<svg width="783" height="702" fill="none" xmlns="http://www.w3.org/2000/svg"><g clip-path="url(#a)"><path d="m400.51 1.53-25.446 6.562L61.56 88.94 36.113 95.5a48.18 48.18 0 0 0-34.582 58.618l110.341 427.877a48.183 48.183 0 0 0 22.157 29.413 48.183 48.183 0 0 0 36.46 5.17l.066-.017 364.265-93.936.066-.017a48.18 48.18 0 0 0 34.583-58.618L459.128 36.113A48.18 48.18 0 0 0 400.51 1.53z" fill="#F2F2F2"/><path d="m403.969 14.945-30.139 7.773-304.119 78.426-30.139 7.772a34.312 34.312 0 0 0-24.627 41.743l110.341 427.878a34.307 34.307 0 0 0 41.743 24.627l.065-.017L531.36 509.21l.066-.017a34.308 34.308 0 0 0 24.627-41.743L445.712 39.573a34.31 34.31 0 0 0-41.743-24.628z" fill="#fff"/><path d="m381.212 153.503-184.273 47.521a8.016 8.016 0 0 1-9.761-5.759 8.014 8.014 0 0 1 5.759-9.762l184.273-47.52a8.012 8.012 0 0 1 9.754 5.761 8.01 8.01 0 0 1-5.752 9.759zM419.977 171.439l-216.284 55.775a8.01 8.01 0 0 1-9.761-5.759 8.011 8.011 0 0 1 5.759-9.761l216.284-55.775a8.011 8.011 0 0 1 9.761 5.759 8.012 8.012 0 0 1-5.759 9.761zM411.48 270.877l-184.273 47.52a8.014 8.014 0 0 1-4.003-15.52l184.273-47.521a8.014 8.014 0 0 1 4.003 15.521zM450.245 288.813l-216.284 55.775a8.014 8.014 0 0 1-4.003-15.521l216.284-55.775a8.015 8.015 0 0 1 4.003 15.521zM441.748 388.25l-184.273 47.521a8.017 8.017 0 0 1-9.756-5.761 8.011 8.011 0 0 1 5.753-9.76l184.273-47.52a8.014 8.014 0 0 1 4.003 15.52zM480.513 406.186l-216.284 55.775a8 8 0 0 1-6.077-.854 8.019 8.019 0 0 1-3.866-8.027 8.01 8.01 0 0 1 3.121-5.284 8.006 8.006 0 0 1 2.82-1.355l216.284-55.775a8.011 8.011 0 0 1 9.761 5.759 8.012 8.012 0 0 1-5.759 9.761z" fill="#F2F2F2"/><path d="m165.481 249.749-65.212 16.817a3.847 3.847 0 0 1-4.68-2.762l-14.97-58.048a3.845 3.845 0 0 1 2.761-4.681l65.213-16.817a3.85 3.85 0 0 1 4.68 2.762l14.97 58.048a3.846 3.846 0 0 1-2.762 4.681zM195.749 367.122l-65.212 16.817a3.845 3.845 0 0 1-4.681-2.761l-14.97-58.048a3.854 3.854 0 0 1 .413-2.912 3.853 3.853 0 0 1 2.349-1.769l65.212-16.817a3.849 3.849 0 0 1 4.681 2.761l14.969 58.049a3.847 3.847 0 0 1-2.761 4.68zM226.019 484.496l-65.213 16.817a3.846 3.846 0 0 1-4.681-2.762l-14.969-58.048a3.846 3.846 0 0 1 2.761-4.681l65.213-16.817a3.85 3.85 0 0 1 4.681 2.762l14.969 58.048a3.846 3.846 0 0 1-2.761 4.681zM654.658 109.992H278.34a48.179 48.179 0 0 0-48.125 48.125v441.876a48.176 48.176 0 0 0 48.125 48.125h376.318a48.184 48.184 0 0 0 48.125-48.125V158.117a48.179 48.179 0 0 0-48.125-48.125z" fill="#E6E6E6"/><path d="M654.658 123.846H278.339a34.309 34.309 0 0 0-34.271 34.271v441.876a34.312 34.312 0 0 0 34.271 34.27h376.319a34.309 34.309 0 0 0 34.271-34.27V158.117a34.309 34.309 0 0 0-34.271-34.271z" fill="#fff"/><path d="M694.194 701.88c48.519 0 87.85-39.332 87.85-87.85 0-48.519-39.331-87.851-87.85-87.851-48.518 0-87.85 39.332-87.85 87.851 0 48.518 39.332 87.85 87.85 87.85z" fill="#5352ED"/><path d="M598.022 366.656H407.72a8.018 8.018 0 0 1-8.023-8.015 8.021 8.021 0 0 1 2.351-5.67 8.005 8.005 0 0 1 5.672-2.344h190.302a8.016 8.016 0 0 1 0 16.029zM631.08 393.703H407.72a8.017 8.017 0 0 1-7.412-4.945 8.021 8.021 0 0 1 0-6.138 8.008 8.008 0 0 1 4.343-4.338 8.017 8.017 0 0 1 3.069-.607h223.36a8.013 8.013 0 1 1 0 16.028zM598.022 487.869H407.72a8.017 8.017 0 0 1-7.412-4.945 8.021 8.021 0 0 1 0-6.138 8.008 8.008 0 0 1 4.343-4.338 8.017 8.017 0 0 1 3.069-.607h190.302a8.013 8.013 0 1 1 0 16.028zM631.08 514.917H407.72a8.018 8.018 0 0 1-8.023-8.014 8.014 8.014 0 0 1 8.023-8.015h223.36a8.027 8.027 0 0 1 5.673 2.344 8.02 8.02 0 0 1 0 11.341 8.016 8.016 0 0 1-5.673 2.344zM365.093 405.982h-67.346a3.847 3.847 0 0 1-3.843-3.843v-59.947a3.847 3.847 0 0 1 3.843-3.843h67.346a3.847 3.847 0 0 1 3.843 3.843v59.947a3.85 3.85 0 0 1-3.843 3.843zM365.093 527.195h-67.346a3.847 3.847 0 0 1-3.843-3.843v-59.947a3.847 3.847 0 0 1 3.843-3.843h67.346a3.847 3.847 0 0 1 3.843 3.843v59.947a3.847 3.847 0 0 1-3.843 3.843z" fill="#E6E6E6"/><path d="M598.234 231.721H457.932a8.015 8.015 0 1 1 0-16.028h140.302a8.015 8.015 0 1 1 0 16.028zM631.292 258.769h-173.36a8.009 8.009 0 0 1-7.404-4.948 8.005 8.005 0 0 1 0-6.133 8.011 8.011 0 0 1 7.404-4.948h173.36a8.016 8.016 0 0 1 5.667 13.681 8.016 8.016 0 0 1-5.667 2.348z" fill="#CCC"/><path d="M426.882 291.547H297.536a3.845 3.845 0 0 1-3.843-3.843V186.757a3.847 3.847 0 0 1 3.843-3.843h129.346a3.847 3.847 0 0 1 3.843 3.843v100.947a3.843 3.843 0 0 1-1.127 2.716 3.843 3.843 0 0 1-2.716 1.127z" fill="#5352ED"/><path d="M700.5 648v-57a6.5 6.5 0 1 0-13 0v57a6.5 6.5 0 1 0 13 0z" fill="#fff" stroke="#fff" stroke-width="5"/><path d="m728.202 621.069.609-.571a6.5 6.5 0 0 0 .33-9.154l-30.362-32.861a6.5 6.5 0 0 0-9.548-.001l-30.371 32.862a6.5 6.5 0 0 0 .329 9.154l.61.571a6.498 6.498 0 0 0 9.219-.332l23.885-25.853a1.5 1.5 0 0 1 2.204 0l23.875 25.852a6.5 6.5 0 0 0 9.22.333z" fill="#fff" stroke="#fff" stroke-width="5"/></g><defs><clipPath id="a"><path fill="#fff" d="M0 0h782.044v701.88H0z"/></clipPath></defs></svg>