<svg width="1066" height="774" fill="none" xmlns="http://www.w3.org/2000/svg"><g clip-path="url(#a)"><path opacity=".1" d="M995.19 369.87c.59-6.77.9-13.65.9-20.6 0-108.83-73.84-197.06-164.92-197.06-29 0-56.34 9-80 24.75-64.47-50-148.64-80.21-240.72-80.21-149.83 0-278.71 80.07-335.89 194.9a138.6 138.6 0 0 0-9.6-.34C73.83 291.31 0 379.53 0 488.36c0 40 10 77.23 27.14 108.31 0 97.91 78.45 177.31 175.22 177.31h122l.54-.93c7.17-11.64 24.34-14.55 36.3-7.94 3.16 1.74 6.1 4 9.63 4.8 14.13 3 23.62-19.73 37.92-17.52 7.18 1.11 12.78 8.53 20 7.77 4.79-.51 8.42-4.52 12.92-6.22 7.21-2.74 14.52 1.06 19.57 7.23 2.93-8.43 2.91-18.42 7.65-26.15 7.17-11.64 24.34-14.55 36.3-7.94 3.16 1.74 6.1 4 9.63 4.8 14.13 3 23.62-19.73 37.92-17.52 7.18 1.11 12.78 8.53 20 7.77 4.79-.51 8.42-4.52 12.92-6.22 11.22-4.27 22.71 7.32 25.47 19a81.066 81.066 0 0 1 1.69 15.64c9.68-4.69 17.86-17.88 28.91-16.17 7.18 1.11 12.78 8.53 20 7.77 4.79-.51 8.42-4.52 12.92-6.22 11.22-4.27 22.71 7.32 25.47 19 1.47 6.2 1.57 12.64 1.82 19h202.15c76 0 137.58-62.32 137.58-139.2 15.42-30 24.33-65.28 24.33-103.06 0-67-28-126.2-70.81-161.8z" fill="#6C63FF"/><path d="M114 582.98v-24.3l11.2 11.2 2.8-2.9-16-16-16 16 2.8 2.8 11.2-11.1v24.3h4zM789 299a6 6 0 1 0 0-12 6 6 0 0 0 0 12zM224 283a6 6 0 1 0 0-12 6 6 0 0 0 0 12zM401 435a6 6 0 1 0 0-12 6 6 0 0 0 0 12zM925 534a3 3 0 1 0 0-6 3 3 0 0 0 0 6zM700 617a3 3 0 1 0 0-6 3 3 0 0 0 0 6zM315 687a3 3 0 1 0 0-6 3 3 0 0 0 0 6zM96 444a3 3 0 1 0 0-6 3 3 0 0 0 0 6zM125 380a3 3 0 1 0 0-6 3 3 0 0 0 0 6zM957 492a3 3 0 1 0 0-6 3 3 0 0 0 0 6zM770 716a3 3 0 1 0 0-6 3 3 0 0 0 0 6zM215 612a3 3 0 1 0 0-6 3 3 0 0 0 0 6zM284 337a3 3 0 1 0 0-6 3 3 0 0 0 0 6zM386.5 227.5H371V212h-2v15.5h-15.5v2H369V245h2v-15.5h15.5v-2zM764 513.89h-9.39v-9.39h-1.22v9.39H744v1.22h9.39v9.39h1.22v-9.39H764v-1.22zM707 688.89h-9.39v-9.39h-1.22v9.39H687v1.22h9.39v9.39h1.22v-9.39H707v-1.22zM240 666.89h-9.39v-9.39h-1.22v9.39H220v1.22h9.39v9.39h1.22v-9.39H240v-1.22zM174 490.89h-9.39v-9.39h-1.22v9.39H154v1.22h9.39v9.39h1.22v-9.39H174v-1.22zM940 667v-24.3l11.2 11.2 2.8-2.9-16-16-16 16 2.8 2.8 11.2-11.1V667h4zM747 385a6 6 0 1 0 0-12 6 6 0 0 0 0 12zM816 618a6 6 0 1 0 0-12 6 6 0 0 0 0 12zM807 439a3 3 0 1 0 0-6 3 3 0 0 0 0 6zM909.5 329.5H894V314h-2v15.5h-15.5v2H892V347h2v-15.5h15.5v-2zM697 592.89h-9.39v-9.39h-1.22v9.39H677v1.22h9.39v9.39h1.22v-9.39H697v-1.22z" fill="#fff"/><path d="m258.343 592.735 3.913-4.048-2.432-2.348-3.913 4.048-15.794 8.254 10.535 10.166 7.691-16.072z" fill="#5352ED"/><path d="m268.811 603.045 4.009-4.15-2.49-2.417-4.016 4.158-16.198 8.463 10.812 10.428 7.883-16.482z" fill="#5352ED"/><path d="m279.414 613.083 3.913-4.048-2.432-2.348-3.913 4.048-15.794 8.254 10.543 10.173 7.683-16.079zM354.436 685.727l4.016-4.158-2.497-2.409-4.016 4.157-16.191 8.456 10.805 10.435 7.883-16.481zM365.242 696.161l4.016-4.157-2.498-2.41-4.016 4.158-16.191 8.456 10.805 10.434 7.884-16.481zM376.047 706.596l4.016-4.158-2.498-2.409-4.016 4.157-16.191 8.456 10.805 10.435 7.884-16.481zM305.384 638.366l4.016-4.158-2.497-2.409-4.016 4.157-16.191 8.456 10.805 10.435 7.883-16.481z" fill="#5352ED"/><path d="m316.19 648.8 4.016-4.157-2.49-2.403-4.016 4.158-16.199 8.449 10.805 10.435 7.884-16.482zM326.995 659.235l4.016-4.158-2.49-2.402-4.016 4.157-16.199 8.45 10.812 10.441 7.877-16.488zM575.105 337.375c13.499-14.624 20.646-56.373 11.545-65.16-9.102-8.787-49.749.608-63.888 14.613l-.437-.411-277.74 287.63 52.795 50.972 277.733-287.623-.008-.021zM671.535 430.49c13.499-14.623 20.646-56.373 11.545-65.16-9.102-8.787-49.749.609-63.881 14.621l-.436-.412L341.022 667.17l52.795 50.971L671.55 430.518l-.015-.028z" fill="#5352ED"/><path d="M752.018 249.005c19.93-21.3 38.411-74.794 29.317-83.574-9.094-8.78-61.104 12.332-81.634 32.984l-.429-.405-407.254 421.748 52.781 50.972 407.26-421.755-.041.03z" fill="#363192"/><g opacity=".1" fill="#000"><path opacity=".1" d="M574.87 274.92c7.59-17.71 22.41-36.18 31.63-36.07 12 .14 33.62 31.79 36.07 52l.26-21.71c-.21-19.9-23.65-55.18-36.3-55.33-9.1-.11-23.64 17.88-31.32 35.38l-.34 25.73zM435.41 291.7h.6c.67-19.89 23.81-54.61 36.45-54.46 8.26.1 21.11 15.17 29.1 31.16l1.94-162.36h.59c.78-29.16 24.13-80.2 36.77-80 11.94.14 33.36 46.21 35.78 75.9l.23-20c-.11-29.17-23.36-80.77-36-80.92-12.64-.15-36 50.89-36.77 80.05h-.59l-1.94 162.36c-8-16-20.84-31.06-29.1-31.16-12.64-.15-35.78 34.57-36.45 54.46h-.6l-4.77 399.81h.3l4.46-374.84z"/></g><path d="M540.858 25.386h-.01a6.93 6.93 0 0 0-7.012 6.847l-.192 16.189a6.93 6.93 0 0 0 6.847 7.011h.01a6.93 6.93 0 0 0 7.012-6.847l.192-16.189a6.93 6.93 0 0 0-6.847-7.011z" fill="#ECECF3"/></g><defs><clipPath id="a"><path fill="#fff" d="M0 0h1066v773.96H0z"/></clipPath></defs></svg>