<svg xmlns="http://www.w3.org/2000/svg" data-name="Layer 1" width="888.48046" height="696.57211" viewBox="0 0 888.48046 696.57211" xmlns:xlink="http://www.w3.org/1999/xlink"><path d="M536.78993,383.14817c13.52653-13.19649,18.25-34.94486,10.5503-48.57639-7.69976-13.6315-24.907-13.98417-38.43353-.78765s-32.53695,48.88325-24.83721,62.51481C491.76925,409.93044,523.26343,396.34469,536.78993,383.14817Zm-46.68,7.1553c-2.88119-1.38444-3.6656-5.73513-1.752-9.71751s5.80052-6.08842,8.68171-4.704,3.6656,5.73513,1.752,9.71751S492.99116,391.68792,490.11,390.30347Z" transform="translate(-155.75977 -101.71395)" fill="#3f3d56"/><path d="M520.07462,373.1068q-1.95352-1.785-3.907-3.56993a16.2159,16.2159,0,0,1-4.29677-5.26456,15.91162,15.91162,0,0,1-.81911-8.95815,21.5004,21.5004,0,0,1,5.82208-11.543l-.20872,3.0313a23.11708,23.11708,0,0,1,5.45522-4.66336c1.9291-.99625,4.051-.92589,4.88976.84555.96009,2.0278.0461,5.66572,1.34716,7.29316,2.24992,2.81423,8.11463-3.26414,10.588-.76392,1.44118,1.45675.75887,4.913.00363,7.82238a43.5685,43.5685,0,0,1-3.66259,10.36094c-3.01074,5.42138-8.50953,9.00466-12.22913,7.54225A10.15051,10.15051,0,0,1,520.07462,373.1068Z" transform="translate(-155.75977 -101.71395)" fill="#6c63ff"/><path d="M508.53994,373.83541c-.68488-2.32291.72207-5.34421,2.05671-7.88859l.67424-.69853a12.508,12.508,0,0,1,4.43987-1.27892,3.18,3.18,0,0,1,3.27651,2.23619c.39446,1.3636.07631,3.31167,1.02076,4.10847,1.82632,1.54071,5.49117-3.23157,7.23385-1.56847.978.93331.271,3.33941-.987,4.52159a7.47824,7.47824,0,0,1-4.20083,1.7071q-3.355.55758-6.71,1.11511a11.41933,11.41933,0,0,1-3.99108.20106A3.5222,3.5222,0,0,1,508.53994,373.83541Z" transform="translate(-155.75977 -101.71395)" fill="#2f2e41"/><path d="M501.16128,375.56385c.472-3.43536,3.09914-8.96391,5.44292-13.68895l.91318-1.4393a23.37731,23.37731,0,0,1,4.48075-4.11445c1.2748-.69768,2.15948-.183,1.839,2.09923-.28364,2.02012-1.46148,5.313-1.00164,6.16392.88924,1.64537,6.30314-7.75311,7.06262-5.87154.4262,1.05592-1.30369,5.26795-2.95169,7.75778a17.54625,17.54625,0,0,1-4.46884,4.69562q-3.19722,2.44884-6.39439,4.89757a10.83671,10.83671,0,0,1-3.59,2.16665C501.50731,378.407,500.87487,377.64846,501.16128,375.56385Z" transform="translate(-155.75977 -101.71395)" fill="#ff6584"/><path d="M501.90032,388.0501a10.761,10.761,0,0,0-14.52257-7.8337l-25.01311-28.92592-5.39278,19.12623L481.5515,394.953a10.81929,10.81929,0,0,0,20.34882-6.9029Z" transform="translate(-155.75977 -101.71395)" fill="#ffb8b8"/><path d="M418.86689,277.88389l-6.633,11.237s17.49854,8.66858,17.83855,15.5123,1.59244,5.10819,4.19575,6.98683,5.68975,6.74528,5.7882,12.095S481.542,370.5147,481.542,370.5147l-11.27189,15.61989a60.35147,60.35147,0,0,0-12.14881-8.767c-6.70062-3.51574-25.29638-10.03942-26.64726-13.65361s-6.79337-6.24271-12-10,5.952-6.947-2.72573-13.20915-55.76231-55.562-64.19847-60.33018-8.49-19.3234-8.49-19.3234l6.26216-8.67772Z" transform="translate(-155.75977 -101.71395)" fill="#3f3d56"/><path d="M795.97405,571.32155V565.833a27.149,27.149,0,0,0,0-4.87281V112.214a10.5,10.5,0,1,0-21,0V560.96022a27.149,27.149,0,0,0,0,4.87281v5.48852L668.6776,788.8058a26.99988,26.99988,0,0,0,38.18372,0L774.97405,615.991V786.214a10.5,10.5,0,1,0,21,0V615.991L864.08678,788.8058a26.99988,26.99988,0,0,0,38.18372,0Z" transform="translate(-155.75977 -101.71395)" fill="#e6e6e6"/><path d="M271.88277,732.65244a166.61936,166.61936,0,0,1-28.9185-38.27646,169.94656,169.94656,0,0,1-16.93586-44.6583,163.24789,163.24789,0,0,1-3.5018-48.31482,169.17234,169.17234,0,0,1,35.04415-90.58756q1.858-2.38321,3.80506-4.69446c1.44707-1.72264,3.906.75832,2.469,2.469a165.27693,165.27693,0,0,0-37.30089,87.28092,164.35723,164.35723,0,0,0,47.80784,134.3127c1.60254,1.58016-.86672,4.04888-2.469,2.469Z" transform="translate(-155.75977 -101.71395)" fill="#e6e6e6"/><path d="M256.16331,513.78a42.31061,42.31061,0,0,0,4.14694-1.80914c.06813.10514.13469.21205.203.317Z" transform="translate(-155.75977 -101.71395)" fill="#e6e6e6"/><path d="M283.12057,482.98028a33.67832,33.67832,0,0,1-3.06288,9.20349,44.126,44.126,0,0,1-18.39232,19.081c-.43964.23453-.89394.48364-1.34825.70351-.54223-.85-1.09914-1.7-1.6267-2.55008-3.5612-5.70079-6.72677-11.6948-8.17761-18.231-1.7-7.63528-.77668-16.20861,4.1181-22.3198,4.88019-6.11118,14.20086-8.85169,20.95688-4.89477a14.74913,14.74913,0,0,1,4.83627,4.675c-.67417.83527-1.34834,1.656-2.02242,2.49131a2.54561,2.54561,0,0,1-.19052.21986c-.58624.73276-1.18707,1.45085-1.77331,2.18361-2.44739,3.00429-4.8802,6.02325-7.32759,9.013a46.36031,46.36031,0,0,0,10.46382.71808c.27845-.01466.57157-.02933.85-.044C281.318,483.17081,282.22662,483.09755,283.12057,482.98028Z" transform="translate(-155.75977 -101.71395)" fill="#e6e6e6"/><path d="M233.6887,543.08116l-.938,12.22237-.24911,3.31208c-.26378-.13185-.54223-.26378-.806-.39563a71.52111,71.52111,0,0,1-37.32678-45.70949,69.48244,69.48244,0,0,1-1.83189-10.39055c4.74826-.73276,9.51119-1.48019,14.25945-2.21295a46.80716,46.80716,0,0,0-14.15686-12.26637A70.74223,70.74223,0,0,1,205.46282,453.714c1.23107,20.4879,22.68618,33.51637,30.54142,52.4655A42.62023,42.62023,0,0,1,233.6887,543.08116Z" transform="translate(-155.75977 -101.71395)" fill="#e6e6e6"/><path d="M229.61452,650.4303c-1.14306.05859-2.28621.08793-3.41459.07326A71.61612,71.61612,0,0,1,174.262,627.71478a69.55679,69.55679,0,0,1-12.794-20.03359c.1026-.01467.19053-.02934.29312-.044,4.74827-.73276,9.5112-1.48019,14.25946-2.21295a46.62514,46.62514,0,0,0-19.41811-14.80168,69.84628,69.84628,0,0,1-.23444-20.00435c10.7276,17.48361,35.80258,18.89054,51.64482,31.90434a42.71572,42.71572,0,0,1,14.58191,24.66468,40.1823,40.1823,0,0,1,.74743,7.23966c.01467.58615.01467,1.15772,0,1.7293l.35171.79135Z" transform="translate(-155.75977 -101.71395)" fill="#e6e6e6"/><path d="M276.7456,670.66909c-3.03363,3.72238-6.06726,7.4741-9.10089,11.19658a46.45762,46.45762,0,0,0,11.31384.67408,71.62675,71.62675,0,0,1-18.71469,31.75782c-.83535.82069-1.7,1.6267-2.57932,2.3888-.17586.16119-.36638.32237-.54224.48356l-.79134-2.2422-.01467-.01467-4.48448-12.413a42.41163,42.41163,0,0,1-11.35776-20.82494v-.02934a40.90936,40.90936,0,0,1-.71809-14.06893c2.506-20.356,19.71114-38.66035,15.43185-58.72329a71.0353,71.0353,0,0,1,21.25,28.8267c-2.44739,3.0043-4.8802,6.02326-7.32759,9.013a46.36031,46.36031,0,0,0,10.46382.71809,68.526,68.526,0,0,1,1.99308,15.1534c.01467.73276.01467,1.45094,0,2.18369-1.53877,1.90516-3.09222,3.79564-4.631,5.7008A2.54752,2.54752,0,0,1,276.7456,670.66909Z" transform="translate(-155.75977 -101.71395)" fill="#e6e6e6"/><path d="M872.06614,771.78981a166.61936,166.61936,0,0,1,1.45086-47.95062,169.94589,169.94589,0,0,1,14.788-45.41477,163.24746,163.24746,0,0,1,27.54845-39.84554,169.17236,169.17236,0,0,1,84.07776-48.63259q2.94141-.69283,5.9071-1.27382c2.20721-.43559,2.56869,3.03872.37681,3.47129a165.277,165.277,0,0,0-83.76424,44.64154A164.35723,164.35723,0,0,0,875.53743,771.413c.25861,2.23566-3.21273,2.61209-3.47129.37682Z" transform="translate(-155.75977 -101.71395)" fill="#e6e6e6"/><path d="M996.97656,591.37465a42.31,42.31,0,0,0,4.36538,1.18892c-.0128.12463-.02792.24966-.04048.3742Z" transform="translate(-155.75977 -101.71395)" fill="#e6e6e6"/><path d="M1037.28519,584.2661a33.67821,33.67821,0,0,1-8.1544,5.25274,44.12588,44.12588,0,0,1-26.29031,3.34366c-.48958-.09273-.99973-.1833-1.49154-.29667.11013-1.00221.20882-2.01362.33038-3.00664.79732-6.67424,2.08668-13.329,5.05211-19.33184,3.46-7.01539,9.55217-13.11788,17.19629-14.81284,7.63275-1.70409,16.61361,2.00123,19.39881,9.31858a14.74921,14.74921,0,0,1,.83917,6.67391c-1.04881.22843-2.08848.4455-3.13727.674a2.54669,2.54669,0,0,1-.28626.05194c-.916.20365-1.83426.38673-2.75031.59038-3.78991.80751-7.57765,1.63558-11.35842,2.43172a46.36085,46.36085,0,0,0,7.7043,7.11694c.22619.16306.4638.33532.69.49838C1035.76108,583.285,1036.51506,583.79727,1037.28519,584.2661Z" transform="translate(-155.75977 -101.71395)" fill="#e6e6e6"/><path d="M961.10031,600.12451l-8.3903,8.93693-2.26971,2.425c-.12294-.26805-.25725-.54536-.38019-.81341a71.52109,71.52109,0,0,1-.44356-59.01227,69.48222,69.48222,0,0,1,5.08386-9.24521c4.15945,2.40455,8.33953,4.80687,12.499,7.21142a46.807,46.807,0,0,0-3.3453-18.43066,70.74206,70.74206,0,0,1,31.25377-18.40265c-11.87976,16.73741-3.32462,40.33555-9.07795,60.025A42.62026,42.62026,0,0,1,961.10031,600.12451Z" transform="translate(-155.75977 -101.71395)" fill="#e6e6e6"/><path d="M890.65307,681.22706c-.92748-.67066-1.83671-1.36417-2.70685-2.08273A71.61614,71.61614,0,0,1,861.7527,628.8375a69.55663,69.55663,0,0,1,2.58421-23.62951c.08914.05286.16685.09653.256.14939,4.15945,2.40456,8.33953,4.80687,12.499,7.21143a46.62516,46.62516,0,0,0-5.85652-23.70346,69.84641,69.84641,0,0,1,12.35339-15.736c-2.59655,20.34738,16.06236,37.15747,20.25266,57.22677a42.71578,42.71578,0,0,1-4.09308,28.35887,40.18341,40.18341,0,0,1-3.9544,6.11016c-.3559.466-.71408.91139-1.0837,1.34762l-.22183.83709Z" transform="translate(-155.75977 -101.71395)" fill="#e6e6e6"/><path d="M914.69867,726.53442c-4.69676.99972-9.41191,2.0223-14.10873,3.02209a46.45781,46.45781,0,0,0,8.39429,7.61533,71.62674,71.62674,0,0,1-34.48571,13.02054c-1.16528.11605-2.34423.2023-3.507.24517-.238.01541-.48753.02163-.72558.037l.78842-2.24322-.00224-.02063,4.28413-12.48354a42.41164,42.41164,0,0,1,4.19938-23.34614l.01839-.02286a40.90926,40.90926,0,0,1,8.257-11.41373c14.70936-14.29278,39.58783-17.77514,48.82584-36.0916a71.03531,71.03531,0,0,1-1.50494,35.781c-3.78991.8075-7.57765,1.63557-11.35843,2.43172a46.36043,46.36043,0,0,0,7.70431,7.11693,68.52593,68.52593,0,0,1-7.943,13.05784c-.44777.58022-.89783,1.13989-1.36846,1.70172-2.393.52036-4.78833,1.0201-7.18137,1.54046A2.549,2.549,0,0,1,914.69867,726.53442Z" transform="translate(-155.75977 -101.71395)" fill="#e6e6e6"/><path d="M979.92285,497.21387H591.02539a17.07049,17.07049,0,0,1-17.05127-17.05078v-271.898a17.07027,17.07027,0,0,1,17.05127-17.05127H979.92285a17.07047,17.07047,0,0,1,17.05078,17.05127v271.898A17.07069,17.07069,0,0,1,979.92285,497.21387Z" transform="translate(-155.75977 -101.71395)" fill="#f2f2f2"/><path d="M842.97405,208.214h-115a27.53112,27.53112,0,0,1-27.5-27.5v-.5h170v.5A27.53112,27.53112,0,0,1,842.97405,208.214Z" transform="translate(-155.75977 -101.71395)" fill="#e6e6e6"/><path d="M843.47405,514.214h-115a27.53144,27.53144,0,0,1-27.5-27.5v-.5h170v.5A27.53144,27.53144,0,0,1,843.47405,514.214Z" transform="translate(-155.75977 -101.71395)" fill="#e6e6e6"/><path d="M815.47405,444.714c0,16.56854-12.43146-2-29-2a30,30,0,0,1,0-60C803.04259,382.714,815.47405,428.1454,815.47405,444.714Z" transform="translate(-155.75977 -101.71395)" fill="#6c63ff"/><path d="M700.47405,294.714a30,30,0,0,1-30,30c-16.56854,0-25,33.56854-25,17s8.43146-77,25-77A30,30,0,0,1,700.47405,294.714Z" transform="translate(-155.75977 -101.71395)" fill="#6c63ff"/><path d="M660.09331,261.63939c4.3301-2.52561,9.6319-1.65711,13.74476.90164,4.67811,2.9104,7.26683,7.923,8.40718,13.18467a42.49192,42.49192,0,0,1-.057,17.12831c-1.11585,5.44489-3.97255,11.22991-9.76911,12.79274-3.8634,1.04161-8.1802-.30075-9.58881-4.28685a9.83565,9.83565,0,0,1,1.785-9.4814c3.25205-3.6592,8.92068-3.848,13.17788-2.022,5.007,2.1476,8.05932,6.995,9.34548,12.12522,1.52912,6.09938.56593,12.42566-1.04326,18.40435-1.749,6.49816-4.06432,12.85065-6.14684,19.24668-4.06123,12.47329-7.798,25.18257-8.76952,38.32771-1.484,20.08059,5.12734,43.25082,23.48041,54.02183,9.90741,5.81445,21.82976,6.74145,32.92062,4.44541,11.69626-2.42137,22.14284-8.46275,31.21411-16.08618A137.50573,137.50573,0,0,0,772.07063,407.34a9.82016,9.82016,0,0,1,10.48711-3.10247c9.542,3.03223,7.78406,18.3083-1.65681,20.182-4.28977.85136-8.94-1.21213-12.11542-3.99864a23.2838,23.2838,0,0,1-6.97508-11.90566c-2.4012-9.6325.40288-20.23674,6.1-28.19484,6.43614-8.99051,16.854-14.58864,27.16312-17.9182,11.73715-3.79079,24.02892-4.90788,36.235-6.14423,12.491-1.26521,25.11432-2.74106,36.908-7.28494a92.3427,92.3427,0,0,0,26.08816-15.48188,96.4542,96.4542,0,0,0,31.73273-50.736,88.35177,88.35177,0,0,0,2.22647-14.60511c.13192-1.927-2.86864-1.91885-3,0-1.46886,21.45651-11.41106,41.86669-26.44854,57.1033a91.47616,91.47616,0,0,1-25.94305,18.48917c-11.64091,5.501-24.29686,7.66249-37.0041,9.04034-12.978,1.40721-26.12,2.23739-38.72824,5.85395-11.14623,3.19721-22.26058,8.61946-29.85362,17.635-6.695,7.94929-10.364,18.855-9.05738,29.24352,1.21582,9.66622,7.3786,19.61782,17.50514,21.71889,4.75152.98584,9.66975-.26865,12.83962-4.08709a15.12983,15.12983,0,0,0,2.044-15.70268,12.55131,12.55131,0,0,0-15.85564-5.7377,15.27541,15.27541,0,0,0-5.44032,4.20343c-8.65547,9.49053-18.48058,18.34853-30.307,23.66829-11.03073,4.96186-24.02335,6.82722-35.68917,3.03134-22.08523-7.18622-30.54545-32.437-29.21423-53.65484.87122-13.8859,5.0429-27.29823,9.35581-40.43787,2.20235-6.70967,4.71039-13.40136,6.25688-20.30181,1.3846-6.17816,1.8079-12.72383-.20929-18.817-1.76061-5.3181-5.30762-10.05345-10.55947-12.28211-4.77051-2.0244-10.61724-1.97688-14.882,1.21569-6.166,4.61583-6.73092,16.06055.88477,19.61322,5.05325,2.35732,11.14057.52222,14.86782-3.39244,4.17874-4.38886,5.53853-10.57431,6.009-16.4281.88907-11.06138-1.55034-24.40334-12.80079-29.39472-4.63491-2.05633-9.9856-2.28779-14.45505.31908a1.50112,1.50112,0,0,0,1.51416,2.59042Z" transform="translate(-155.75977 -101.71395)" fill="#3f3d56"/><path d="M929.47405,275.714c0,17.57,27.58,62.37,18.3,75.82q-1.725,2.52-3.65,4.9a82.59858,82.59858,0,0,1-14.18,13.91c-.88995.7-1.79,1.37-2.7,2.02a84.19416,84.19416,0,0,1-10.15,6.17c-.64.32-1.29.64-1.94.96a83.50589,83.50589,0,0,1-94.78-134.75c.74-.74,1.5-1.46,2.28-2.17a83.165,83.165,0,0,1,26.55-16.39c.01,0,.01-.01.02-.01a83.83141,83.83141,0,0,1,46.11-3.85h.02c.34.07.68.14,1.02.22C934.144,230.534,929.47405,235.56392,929.47405,275.714Z" transform="translate(-155.75977 -101.71395)" fill="#6c63ff"/><path d="M917.10405,378.154a1.58039,1.58039,0,0,1-.01.38c-.64.32-1.29.64-1.94.96a1.49972,1.49972,0,0,1-1.05-1.34,20.49563,20.49563,0,0,0-.87-4.45c-3.9-12.56-17.58-18.98-29.52-21.25-14.61-2.79-29.98-1.63-43.88-7.66a37.88825,37.88825,0,0,1-14.71-10.7,26.92228,26.92228,0,0,1-5.85-18.35c.82-15.59,11.81-27.79,15.57-42.5,1.55-6.06,1.55-12.38-1.21-18.1-2.34-4.86-6.54-9.13-12.13995-9.73a1.45266,1.45266,0,0,1-1.12-.67005c.74-.74,1.5-1.46,2.28-2.17a14.57873,14.57873,0,0,1,2.97.77c5.48,2.1,9.29,6.85,11.43,12.18,2.47,6.17,2.24,12.81.52,19.14-4.01,14.76-15.79,27.56994-15.33,43.48.4,13.79,12.44,22.39,24.58,26.03,15.02,4.5,31.29,2.37,46.15,7.58C904.66405,355.854,916.014,365.02394,917.10405,378.154Z" transform="translate(-155.75977 -101.71395)" fill="#3f3d56"/><path d="M929.944,370.344c-.88995.7-1.79,1.37-2.7,2.02a1.24762,1.24762,0,0,1-.33-.98,50.76507,50.76507,0,0,0-12.47-35.33,50.1579,50.1579,0,0,0-12.96-10.74c-5.12-2.93-10.74-4.5-16.31-6.32-5.48-1.79-11.05-3.96-15.24-8.05-4.27-4.17-6.37-9.82-7.01-15.66-1.51-13.84,5.42-26.56,5.98-40.19.25-6.08-1.09-11.99-4.86-16.88-3.26-4.22-8.07-7.1-13.52-6.46-1.8.22-1.89-2.42-.33-2.93a1.60159,1.60159,0,0,1,.33-.07c6.34-.74,12.09,2.74,15.86,7.62,4.39,5.67,5.91,12.58,5.47,19.65-.86,13.68-8.06,26.83-5.72,40.73a21.07323,21.07323,0,0,0,9.03,14.56c5.02,3.31,10.95,4.8,16.61,6.64a55.59953,55.59953,0,0,1,15.81,7.74,54.89289,54.89289,0,0,1,12.26,12.41A53.17958,53.17958,0,0,1,929.944,370.344Z" transform="translate(-155.75977 -101.71395)" fill="#3f3d56"/><path d="M947.774,351.534q-1.725,2.52-3.65,4.9a56.74594,56.74594,0,0,0-.87-23.38,58.90221,58.90221,0,0,0-13.74-25.82995,51.60231,51.60231,0,0,0-11.44-9.33c-4.85-2.9-10.15-5.35-13.58-10.03-7.44-10.16-2.42-23.42-.02-34.34,1.26-5.7,1.94-11.77-.39-17.29-1.81-4.28-5.39-8.29-10.25-8.78-1.91-.19-1.92-3.2,0-3q.54.06,1.08.15c5.31.96,9.4,4.92,11.62,9.8,2.88,6.37,2.31,13.25.84,19.92-2.42,10.97-8.03,25.5,2,34.46,4.23,3.78,9.72,5.87,14.28,9.22a55.75892,55.75892,0,0,1,10.88,10.49A62.58592,62.58592,0,0,1,947.774,351.534Z" transform="translate(-155.75977 -101.71395)" fill="#3f3d56"/><polygon points="255.165 664.416 272.911 664.416 281.355 595.969 255.165 595.969 255.165 664.416" fill="#ffb6b6"/><path d="M401.55873,796.87659h12.72593l2.27147-12.01487,5.81777,12.01487h33.7525a7.5872,7.5872,0,0,0,4.31129-13.83084L433.484,764.43062V752.284l-28.35058,1.69213Z" transform="translate(-155.75977 -101.71395)" fill="#2f2e41"/><polygon points="117.583 629.208 132.847 638.259 175.024 583.694 152.498 570.335 117.583 629.208" fill="#ffb6b6"/><path d="M249.60331,752.58958l10.94582,6.4914,8.08244-9.17555-1.12472,13.30182,29.03117,17.2169a7.5872,7.5872,0,0,0,10.76324-9.697L293.61334,740.967l6.19592-10.44757-25.248-13.006Z" transform="translate(-155.75977 -101.71395)" fill="#2f2e41"/><polygon points="257.085 226.77 271.709 281.744 189.786 282.822 200.565 230.003 257.085 226.77" fill="#ffb6b6"/><path d="M427.78423,382.76332l17.399,56.74766,7.70448,151.75715L432.92019,736.16467h-22.0977l-9.05364-142.5344-22.2684-97.5276,13.03746,102.00376-68.289,99.84159H290.69239l61.6933-110.0221L316.47405,473.714s3.60139-56.48093,26.37654-86.4829l5.54367-16.0161Z" transform="translate(-155.75977 -101.71395)" fill="#2f2e41"/><path d="M428.91753,277.8531c-.04695-.49407-.1176-1.01168-.21164-1.50561a45.34465,45.34465,0,0,0-51.35428-38.18041,46.29468,46.29468,0,0,0-28.55892,15.97317v.02354c-.37633.447-.72926.91735-1.082,1.38788-.63521.7999-1.22332,1.64675-1.78789,2.4936a45.38159,45.38159,0,0,0-7.52791,26.01822s4.2815,22.79536,5.17545,28.8412c.61166,3.90517,1.08218,7.73969,1.435,11.48.21179,1.88194.37648,3.74047.51762,5.55177V329.96c.70571,8.96287.9409,17.00839,1.15268,23.24233.094,3.38755,2.44651,13.00918,2.58765,13.12678.14507.10978.30239.21564.46891.31747a8.403,8.403,0,0,0,7.90944.29131l10.58249-4.93738h0a40.91651,40.91651,0,0,1,22.52262-3.47925c12.57742,1.6305,30.89652,3.86959,31.72737,3.19265.988-.847,5.76132-43.56317,7.00819-56.99578.16455-1.929.30583-3.92857.37633-6.06939v-.02355A138.70708,138.70708,0,0,0,428.91753,277.8531Z" transform="translate(-155.75977 -101.71395)" fill="#3f3d56"/><path d="M489.76937,285.53329A10.19587,10.19587,0,0,1,475.209,291.2275l-26.85612,24.322-2.86829-18.60867,25.94277-20.24369a10.25114,10.25114,0,0,1,18.342,8.83614Z" transform="translate(-155.75977 -101.71395)" fill="#ffb8b8"/><path d="M389.81333,238.36674s26.43025,4.93583,11.38811,56.24159l5.80785,25.43055,27.25087-15.67478,1.65062-6.62605L459.77,280.99032l11.281,20.33712-13.717,13.107-3.96182,8.182-7.03659,2.32728L424.538,345.772l-9.13993,5.58562s-11.62125,7.2011-21.9589,3.29968a28.13741,28.13741,0,0,1-7.64714-4.3275c-4.51193-3.5978-8.516-9.09708-11.02313-17.41129-9.301-30.84475-12.7925-52.41386-12.7925-52.41386Z" transform="translate(-155.75977 -101.71395)" fill="#3f3d56"/><path d="M488.02174,310.52735l-16.001-60.19365a1.32612,1.32612,0,0,1,2.52014-.8146L496.077,305.77672Z" transform="translate(-155.75977 -101.71395)" fill="#3f3d56"/><path d="M501.34292,324.17382a30.25186,30.25186,0,0,1-6.7534-2.26463c-1.0938-.52215-2.15157-1.11132-3.18586-1.71921-.36822-.20526-.73477-.42459-1.09517-.63609-.86112-.50293-1.72225-1.00586-2.58966-1.51658-.73477-.42459-1.47582-.85706-2.20276-1.28788-1.07486-.62668-2.23074-1.35511-2.54244-2.56446a3.91888,3.91888,0,0,1,.91971-3.22638,13.19352,13.19352,0,0,1,2.70472-2.39846q3.38735-2.48856,6.781-4.96933l.60531-1.32632a17.10941,17.10941,0,0,1,4.98688,3.22494,6.10425,6.10425,0,0,1,1.75169,4.46046,5.14132,5.14132,0,0,1-.17846,1.07574c-.437,1.53748-1.58112,2.84566-2.26013,4.32023a8.33786,8.33786,0,0,0-.35627.94888,6.77725,6.77725,0,0,0,.74833,5.72048A6.26032,6.26032,0,0,0,501.34292,324.17382Z" transform="translate(-155.75977 -101.71395)" fill="#ccc"/><path d="M504.68872,324.72981a7.187,7.187,0,0,1-3.3458-.556A33.74514,33.74514,0,0,0,504.68872,324.72981Z" transform="translate(-155.75977 -101.71395)" fill="#e6e6e6"/><path d="M501.34292,324.17382a30.25186,30.25186,0,0,1-6.7534-2.26463c-1.0938-.52215-2.15157-1.11132-3.18586-1.71921-.36822-.20526-.73477-.42459-1.09517-.63609-.86112-.50293-1.72225-1.00586-2.58966-1.51658a14.57579,14.57579,0,0,1,.97207-1.17108c3.205-3.48761,7.583-5.45506,12.032-6.91635a5.14132,5.14132,0,0,1-.17846,1.07574c-.437,1.53748-1.58112,2.84566-2.26013,4.32023a8.33786,8.33786,0,0,0-.35627.94888,6.77725,6.77725,0,0,0,.74833,5.72048A6.26032,6.26032,0,0,0,501.34292,324.17382Z" transform="translate(-155.75977 -101.71395)" fill="#6c63ff"/><path d="M1034.422,797.09605a1.18647,1.18647,0,0,1-1.19007,1.19h-862.29a1.19,1.19,0,1,1,0-2.38h862.29A1.18651,1.18651,0,0,1,1034.422,797.09605Z" transform="translate(-155.75977 -101.71395)" fill="#ccc"/><circle cx="377.91725" cy="196.08969" r="34.63853" transform="translate(-131.17399 331.92466) rotate(-61.33682)" fill="#ffb6b6"/><path d="M356.79112,167.82761v.02436a17.412,17.412,0,0,1-.57186,4.4656c-.0609.25555-.1339.52321-.21908.77877v.01217A17.66382,17.66382,0,0,1,345.11,184.449c-.3772.146-.76658.26766-1.156.3772a15.78218,15.78218,0,0,1-2.50658.511,15.99474,15.99474,0,0,1-2.29975.15819,17.512,17.512,0,0,1-1.80083-.08518,17.039,17.039,0,0,1-4.10058-.93695,5.153,5.153,0,0,1-.60839-.219,2.96748,2.96748,0,0,1-.2921-.12165,17.66092,17.66092,0,0,1-9.11374-23.91l.01218-.01218a17.30729,17.30729,0,0,1,3.46789-4.86716c3.188-3.17581,4.59276-11.13482,9.43557-11.13482a6.621,6.621,0,0,1,.69358.02428c3.24881.10955,9.25432,7.1195,11.80955,8.77432a17.22315,17.22315,0,0,1,4.8428,4.58733,17.44,17.44,0,0,1,2.84732,6.2786A17.66888,17.66888,0,0,1,356.79112,167.82761Z" transform="translate(-155.75977 -101.71395)" fill="#2f2e41"/><path d="M335.23406,161.68392c-2.74,3.19-7.03,4.43-10.9,6.09a45.855,45.855,0,0,0-26.64,33.5c-1.07,5.97-.93,12.15-2.62,17.97-1.68,5.82-5.84,11.53-11.81,12.54-4.04.69-8.09-.87-11.89-2.41q-3.135-1.26-6.27-2.53,3.27-8.205,6.53-16.41a83.16091,83.16091,0,0,1-12.11,14.17q-11.235-4.53-22.49-9.06006c18.46.07,15.31-17.85,19.44-35.82995,2.27-9.88,21.6-16.57,25.39-25.97a28.75636,28.75636,0,0,1,52.16-2.62C337.81408,152.63393,337.92406,158.534,335.23406,161.68392Z" transform="translate(-155.75977 -101.71395)" fill="#2f2e41"/><path d="M409.27038,161.43782c-3.37977-4.45068-11.89393-4.62378-13.60212.69721l-3.59021-4.86914c-4.6582-10.17829-16.94879-8.1073-28.06158-6.76471-11.11273,1.34259-20.9054,9.17364-25.87689,19.20257-4.9715,10.029-5.42224,21.9397-2.559,32.76087,1.92645,7.28076,5.46368,14.38476,11.33258,19.10455s33.45837,15.8822,35.75506,6.27057c-2.87109,12.53949,2.905,10.5766,11.45508,20.188,4.42847-13.303,6.50452-38.36823,10.933-51.67127q.99994-3.00366,1.99982-6.00738c1.40515-4.221,2.81232-8.4491,3.82764-12.7804C412.15923,172.1277,412.65007,165.88851,409.27038,161.43782Z" transform="translate(-155.75977 -101.71395)" fill="#2f2e41"/><path d="M386.50128,199.62628l-1.48062-9.42592c1.00623-11.72326-.63636-30.37065,7.05738-32.93447l4.70493,4.70493C393.80678,162.96326,388.14617,180.49415,386.50128,199.62628Z" transform="translate(-155.75977 -101.71395)" fill="#ff6584"/><path d="M397.47405,149.714c0,7.1797-2.46243,13-5.5,13s-5.5-5.8203-5.5-13,5.5-13,5.5-13S397.47405,142.53424,397.47405,149.714Z" transform="translate(-155.75977 -101.71395)" fill="#ff6584"/><path d="M402.0105,152.924c-2.885,6.57458-7.47856,10.91488-10.26011,9.69433s-2.69774-7.53977.18721-14.11436,10.26011-9.69432,10.26011-9.69432S404.89545,146.34937,402.0105,152.924Z" transform="translate(-155.75977 -101.71395)" fill="#ff6584"/></svg>