<svg width="400" height="100" viewBox="0 0 629 160" fill="none" xmlns="http://www.w3.org/2000/svg"><path d="M502.973 139.536h68.977L606.438 79.8 571.95 20.064h-68.977L468.484 79.8l34.489 59.736zM56.973 138.577h68.977l34.488-59.736-34.488-59.735H56.973L22.484 78.84l34.489 59.736zM279.973 139.616h68.977l34.488-59.736-34.488-59.735h-68.977L245.484 79.88l34.489 59.736z" fill="#F2F2F2"/><path d="M357.693 159.759h-86.464a5.019 5.019 0 0 1-4.33-2.5l-43.231-74.88a5.009 5.009 0 0 1 0-5L266.899 2.5a5.02 5.02 0 0 1 4.33-2.5h86.464a5.015 5.015 0 0 1 4.33 2.5l43.231 74.879a5.009 5.009 0 0 1 0 5l-43.231 74.88a5.018 5.018 0 0 1-4.33 2.5zM271.229 2a3.008 3.008 0 0 0-2.598 1.5L225.4 78.38a3.003 3.003 0 0 0 0 3l43.231 74.88a3.011 3.011 0 0 0 2.598 1.5h86.464a3.012 3.012 0 0 0 2.597-1.5l43.232-74.88a3.003 3.003 0 0 0 0-3L360.29 3.5a2.999 2.999 0 0 0-2.597-1.5h-86.464zM134.693 159.759H48.229a5.018 5.018 0 0 1-4.33-2.5L.668 82.379a5.015 5.015 0 0 1 0-5L43.899 2.5A5.014 5.014 0 0 1 48.23 0h86.464a5.015 5.015 0 0 1 4.33 2.5l43.231 74.879a5.009 5.009 0 0 1 0 5l-43.231 74.88a5.018 5.018 0 0 1-4.33 2.5zM48.229 2a3.008 3.008 0 0 0-2.598 1.5L2.4 78.379a3.009 3.009 0 0 0 0 3l43.231 74.88a3.011 3.011 0 0 0 2.598 1.5h86.464a3.012 3.012 0 0 0 2.597-1.5l43.232-74.88a3.003 3.003 0 0 0 0-3L137.29 3.5a2.999 2.999 0 0 0-2.597-1.5H48.229zM580.693 159.759H494.23a5.013 5.013 0 0 1-4.331-2.5l-43.231-74.88a5.009 5.009 0 0 1 0-5L489.899 2.5A5.016 5.016 0 0 1 494.23 0h86.463a5.015 5.015 0 0 1 4.33 2.5l43.231 74.879a5.009 5.009 0 0 1 0 5l-43.231 74.88a5.016 5.016 0 0 1-4.33 2.5zM494.23 2a3.01 3.01 0 0 0-2.599 1.5L448.4 78.379a3.003 3.003 0 0 0 0 3l43.231 74.88a3.011 3.011 0 0 0 2.599 1.5h86.463a3.012 3.012 0 0 0 2.598-1.5l43.231-74.88a3.003 3.003 0 0 0 0-3L583.291 3.5a3.009 3.009 0 0 0-2.598-1.5H494.23z" fill="#CCC"/><path d="M91.461 45.863a32.977 32.977 0 1 0 0 65.954 32.977 32.977 0 0 0 0-65.954zm0 9.893a9.893 9.893 0 1 1 0 19.786 9.893 9.893 0 0 1 0-19.786zm0 47.626a24.026 24.026 0 0 1-19.786-10.559c.159-6.595 13.19-10.226 19.786-10.226 6.595 0 19.628 3.631 19.786 10.226a24.062 24.062 0 0 1-19.786 10.559zM314.397 56.907a17.995 17.995 0 0 0-12.604-5.58 18.005 18.005 0 0 0-12.851 31.035l26.067 26.068 25.456-25.456a18.44 18.44 0 0 0-.306-25.761 18.44 18.44 0 0 0-25.762-.306zM558.697 59.821c0 11.728-21.235 37.474-21.235 37.474s-21.235-25.746-21.235-37.474a21.223 21.223 0 0 1 6.207-15.02 21.236 21.236 0 0 1 36.263 14.985v.035z" fill="#5352ED"/><path d="M537.462 68.163a8.342 8.342 0 1 0 0-16.684 8.342 8.342 0 0 0 0 16.684z" fill="#fff"/><path d="M536.702 121.029a8.342 8.342 0 1 0 0-16.685 8.342 8.342 0 0 0 0 16.685z" fill="#5352ED"/></svg>