<svg width="783" height="702" viewBox="0 0 783 702" fill="none" xmlns="http://www.w3.org/2000/svg">
<g clip-path="url(#clip0)">
<path d="M400.51 1.53013L375.064 8.09222L61.5599 88.9387L36.1135 95.5008C23.7622 98.7008 13.1845 106.67 6.70118 117.659C0.217846 128.648 -1.64169 141.76 1.53053 154.119L111.872 581.996C115.072 594.347 123.04 604.925 134.029 611.409C145.019 617.892 158.131 619.751 170.489 616.579L170.555 616.562L534.82 522.626L534.886 522.609C547.237 519.409 557.815 511.44 564.298 500.451C570.782 489.461 572.641 476.349 569.469 463.991L459.128 36.1134C455.928 23.762 447.959 13.1843 436.97 6.7009C425.981 0.217516 412.869 -1.64206 400.51 1.53013Z" fill="#F2F2F2"/>
<path d="M403.969 14.9453L373.83 22.7177L69.7111 101.144L39.5721 108.916C30.7764 111.195 23.2437 116.87 18.6268 124.695C14.0098 132.521 12.6856 141.858 14.9446 150.659L125.286 578.537C127.564 587.332 133.239 594.865 141.065 599.482C148.89 604.099 158.228 605.423 167.029 603.164L167.094 603.147L531.36 509.21L531.426 509.193C540.222 506.914 547.754 501.24 552.371 493.414C556.988 485.588 558.312 476.251 556.053 467.45L445.712 39.5729C443.433 30.7773 437.759 23.2447 429.933 18.6277C422.108 14.0108 412.77 12.6865 403.969 14.9453V14.9453Z" fill="white"/>
<path d="M381.212 153.503L196.939 201.024C194.881 201.554 192.696 201.246 190.866 200.166C189.035 199.086 187.708 197.323 187.178 195.265C186.647 193.206 186.956 191.022 188.036 189.191C189.116 187.36 190.879 186.034 192.937 185.503L377.21 137.983C379.267 137.454 381.45 137.764 383.279 138.844C385.108 139.924 386.434 141.687 386.964 143.744C387.495 145.801 387.187 147.984 386.108 149.814C385.03 151.644 383.269 152.971 381.212 153.503V153.503Z" fill="#F2F2F2"/>
<path d="M419.977 171.439L203.693 227.214C201.635 227.745 199.45 227.437 197.62 226.356C195.789 225.276 194.462 223.513 193.932 221.455C193.401 219.397 193.709 217.212 194.789 215.382C195.87 213.551 197.633 212.225 199.691 211.694L415.975 155.919C418.033 155.388 420.218 155.696 422.048 156.776C423.879 157.856 425.205 159.619 425.736 161.678C426.267 163.736 425.958 165.92 424.878 167.751C423.798 169.582 422.035 170.908 419.977 171.439V171.439Z" fill="#F2F2F2"/>
<path d="M411.48 270.877L227.207 318.397C226.188 318.66 225.127 318.719 224.085 318.572C223.043 318.425 222.04 318.074 221.133 317.539C220.227 317.004 219.435 316.296 218.802 315.455C218.169 314.615 217.708 313.657 217.445 312.638C217.182 311.619 217.123 310.558 217.27 309.516C217.417 308.474 217.768 307.471 218.303 306.565C218.838 305.658 219.546 304.866 220.387 304.233C221.228 303.6 222.185 303.139 223.204 302.877L407.477 255.356C408.496 255.093 409.557 255.034 410.599 255.181C411.641 255.328 412.644 255.679 413.551 256.214C414.457 256.749 415.249 257.457 415.882 258.298C416.515 259.139 416.976 260.096 417.239 261.115C417.502 262.134 417.561 263.195 417.414 264.237C417.267 265.279 416.916 266.282 416.381 267.189C415.846 268.095 415.138 268.887 414.297 269.52C413.456 270.153 412.499 270.614 411.48 270.877V270.877Z" fill="#F2F2F2"/>
<path d="M450.245 288.813L233.961 344.588C232.942 344.851 231.881 344.91 230.839 344.763C229.796 344.616 228.794 344.265 227.887 343.73C226.981 343.195 226.189 342.487 225.556 341.646C224.923 340.805 224.462 339.848 224.199 338.829C223.936 337.81 223.877 336.749 224.024 335.707C224.171 334.665 224.522 333.662 225.057 332.755C225.592 331.849 226.3 331.057 227.141 330.424C227.982 329.791 228.939 329.33 229.958 329.067L446.242 273.292C448.3 272.761 450.485 273.07 452.316 274.15C454.146 275.23 455.473 276.993 456.004 279.051C456.534 281.109 456.226 283.294 455.146 285.125C454.066 286.955 452.303 288.282 450.245 288.813Z" fill="#F2F2F2"/>
<path d="M441.748 388.25L257.475 435.771C255.417 436.3 253.234 435.99 251.404 434.91C249.575 433.83 248.249 432.067 247.719 430.01C247.188 427.953 247.496 425.769 248.575 423.939C249.654 422.109 251.416 420.782 253.472 420.25L437.745 372.73C439.804 372.199 441.988 372.508 443.819 373.588C445.649 374.668 446.976 376.431 447.507 378.489C448.038 380.547 447.729 382.732 446.649 384.562C445.569 386.393 443.806 387.719 441.748 388.25Z" fill="#F2F2F2"/>
<path d="M480.513 406.186L264.229 461.961C263.21 462.225 262.148 462.286 261.106 462.139C260.063 461.992 259.059 461.642 258.152 461.107C257.245 460.572 256.452 459.864 255.819 459.023C255.185 458.182 254.724 457.224 254.461 456.204C254.198 455.184 254.139 454.123 254.286 453.08C254.434 452.038 254.785 451.034 255.321 450.128C255.856 449.221 256.565 448.429 257.407 447.796C258.249 447.163 259.207 446.703 260.227 446.441L476.511 390.666C478.569 390.135 480.754 390.443 482.584 391.523C484.415 392.603 485.742 394.366 486.272 396.425C486.803 398.483 486.494 400.667 485.414 402.498C484.334 404.329 482.571 405.655 480.513 406.186V406.186Z" fill="#F2F2F2"/>
<path d="M165.481 249.749L100.269 266.566C99.2821 266.819 98.2351 266.671 97.3576 266.153C96.4801 265.635 95.8438 264.791 95.5883 263.804L80.6189 205.756C80.3655 204.769 80.514 203.722 81.0317 202.845C81.5494 201.967 82.3941 201.331 83.3803 201.075L148.593 184.258C149.58 184.005 150.627 184.154 151.504 184.671C152.382 185.189 153.018 186.034 153.273 187.02L168.243 245.068C168.496 246.055 168.348 247.102 167.83 247.979C167.312 248.857 166.468 249.493 165.481 249.749V249.749Z" fill="#E6E6E6"/>
<path d="M195.749 367.122L130.537 383.939C129.55 384.193 128.503 384.044 127.625 383.526C126.748 383.009 126.111 382.164 125.856 381.178L110.886 323.13C110.633 322.143 110.782 321.096 111.299 320.218C111.817 319.341 112.662 318.705 113.648 318.449L178.86 301.632C179.847 301.379 180.894 301.527 181.772 302.045C182.649 302.563 183.285 303.407 183.541 304.393L198.51 362.442C198.764 363.428 198.615 364.475 198.098 365.353C197.58 366.23 196.735 366.867 195.749 367.122V367.122Z" fill="#E6E6E6"/>
<path d="M226.019 484.496L160.806 501.313C159.819 501.566 158.772 501.418 157.895 500.9C157.017 500.382 156.381 499.538 156.125 498.551L141.156 440.503C140.903 439.516 141.051 438.469 141.569 437.592C142.087 436.714 142.931 436.078 143.917 435.822L209.13 419.005C210.117 418.752 211.164 418.901 212.041 419.418C212.919 419.936 213.555 420.781 213.811 421.767L228.78 479.815C229.033 480.802 228.885 481.849 228.367 482.726C227.849 483.604 227.005 484.24 226.019 484.496V484.496Z" fill="#E6E6E6"/>
<path d="M654.658 109.992H278.34C265.581 110.006 253.348 115.081 244.326 124.103C235.304 133.125 230.229 145.358 230.215 158.117V599.993C230.229 612.752 235.304 624.984 244.326 634.006C253.348 643.028 265.581 648.103 278.34 648.118H654.658C667.417 648.103 679.65 643.028 688.672 634.006C697.694 624.984 702.769 612.752 702.783 599.993V158.117C702.769 145.358 697.694 133.125 688.672 124.103C679.65 115.081 667.417 110.006 654.658 109.992V109.992Z" fill="#E6E6E6"/>
<path d="M654.658 123.846H278.339C269.253 123.856 260.542 127.47 254.117 133.895C247.693 140.32 244.079 149.031 244.068 158.117V599.993C244.079 609.079 247.693 617.79 254.117 624.215C260.542 630.639 269.253 634.253 278.339 634.263H654.658C663.744 634.253 672.455 630.639 678.88 624.214C685.305 617.79 688.919 609.079 688.929 599.993V158.117C688.919 149.031 685.305 140.32 678.88 133.895C672.455 127.47 663.744 123.856 654.658 123.846V123.846Z" fill="white"/>
<path d="M694.194 701.88C742.713 701.88 782.044 662.548 782.044 614.03C782.044 565.511 742.713 526.179 694.194 526.179C645.676 526.179 606.344 565.511 606.344 614.03C606.344 662.548 645.676 701.88 694.194 701.88Z" fill="#5352ED"/>
<path d="M598.022 366.656H407.72C406.667 366.657 405.624 366.45 404.651 366.048C403.677 365.646 402.793 365.056 402.048 364.311C401.303 363.567 400.711 362.683 400.308 361.71C399.905 360.737 399.697 359.695 399.697 358.641C399.697 357.588 399.905 356.545 400.308 355.572C400.711 354.6 401.303 353.716 402.048 352.971C402.793 352.227 403.677 351.637 404.651 351.235C405.624 350.833 406.667 350.626 407.72 350.627H598.022C600.146 350.63 602.182 351.475 603.683 352.978C605.184 354.48 606.027 356.517 606.027 358.641C606.027 360.765 605.184 362.802 603.683 364.305C602.182 365.808 600.146 366.653 598.022 366.656V366.656Z" fill="#E6E6E6"/>
<path d="M631.08 393.703H407.72C406.667 393.704 405.624 393.498 404.651 393.096C403.677 392.693 402.793 392.103 402.048 391.359C401.303 390.615 400.711 389.731 400.308 388.758C399.905 387.785 399.697 386.742 399.697 385.689C399.697 384.636 399.905 383.593 400.308 382.62C400.711 381.647 401.303 380.763 402.048 380.019C402.793 379.275 403.677 378.685 404.651 378.282C405.624 377.88 406.667 377.674 407.72 377.675H631.08C633.206 377.675 635.244 378.519 636.747 380.022C638.25 381.525 639.094 383.564 639.094 385.689C639.094 387.815 638.25 389.853 636.747 391.356C635.244 392.859 633.206 393.703 631.08 393.703Z" fill="#E6E6E6"/>
<path d="M598.022 487.869H407.72C406.667 487.87 405.624 487.664 404.651 487.262C403.677 486.859 402.793 486.269 402.048 485.525C401.303 484.781 400.711 483.897 400.308 482.924C399.905 481.951 399.697 480.908 399.697 479.855C399.697 478.802 399.905 477.759 400.308 476.786C400.711 475.813 401.303 474.929 402.048 474.185C402.793 473.441 403.677 472.85 404.651 472.448C405.624 472.046 406.667 471.84 407.72 471.841H598.022C600.148 471.841 602.186 472.685 603.689 474.188C605.192 475.691 606.036 477.729 606.036 479.855C606.036 481.98 605.192 484.019 603.689 485.522C602.186 487.025 600.148 487.869 598.022 487.869V487.869Z" fill="#E6E6E6"/>
<path d="M631.08 514.917H407.72C406.667 514.918 405.624 514.711 404.651 514.309C403.677 513.907 402.793 513.317 402.048 512.573C401.303 511.828 400.711 510.944 400.308 509.971C399.905 508.999 399.697 507.956 399.697 506.903C399.697 505.849 399.905 504.806 400.308 503.834C400.711 502.861 401.303 501.977 402.048 501.232C402.793 500.488 403.677 499.898 404.651 499.496C405.624 499.094 406.667 498.887 407.72 498.888H631.08C632.133 498.887 633.176 499.094 634.15 499.496C635.123 499.898 636.008 500.488 636.753 501.232C637.498 501.977 638.089 502.861 638.492 503.834C638.896 504.806 639.103 505.849 639.103 506.903C639.103 507.956 638.896 508.999 638.492 509.971C638.089 510.944 637.498 511.828 636.753 512.573C636.008 513.317 635.123 513.907 634.15 514.309C633.176 514.711 632.133 514.918 631.08 514.917Z" fill="#E6E6E6"/>
<path d="M365.093 405.982H297.747C296.728 405.981 295.751 405.575 295.031 404.855C294.311 404.134 293.905 403.158 293.904 402.139V342.192C293.905 341.173 294.311 340.196 295.031 339.476C295.751 338.755 296.728 338.35 297.747 338.349H365.093C366.112 338.35 367.089 338.755 367.809 339.476C368.529 340.196 368.935 341.173 368.936 342.192V402.139C368.935 403.158 368.529 404.134 367.809 404.855C367.089 405.575 366.112 405.981 365.093 405.982V405.982Z" fill="#E6E6E6"/>
<path d="M365.093 527.195H297.747C296.728 527.194 295.751 526.789 295.031 526.068C294.311 525.348 293.905 524.371 293.904 523.352V463.405C293.905 462.386 294.311 461.409 295.031 460.689C295.751 459.969 296.728 459.563 297.747 459.562H365.093C366.112 459.563 367.089 459.969 367.809 460.689C368.529 461.409 368.935 462.386 368.936 463.405V523.352C368.935 524.371 368.529 525.348 367.809 526.068C367.089 526.789 366.112 527.194 365.093 527.195V527.195Z" fill="#E6E6E6"/>
<path d="M598.234 231.721H457.932C455.807 231.721 453.768 230.877 452.265 229.374C450.762 227.871 449.918 225.832 449.918 223.707C449.918 221.581 450.762 219.543 452.265 218.04C453.768 216.537 455.807 215.693 457.932 215.693H598.234C600.359 215.693 602.398 216.537 603.901 218.04C605.404 219.543 606.248 221.581 606.248 223.707C606.248 225.832 605.404 227.871 603.901 229.374C602.398 230.877 600.359 231.721 598.234 231.721Z" fill="#CCCCCC"/>
<path d="M631.292 258.769H457.932C456.88 258.769 455.838 258.561 454.865 258.159C453.893 257.756 453.009 257.166 452.265 256.421C451.521 255.677 450.931 254.794 450.528 253.821C450.125 252.849 449.918 251.807 449.918 250.755C449.918 249.702 450.125 248.66 450.528 247.688C450.931 246.715 451.521 245.832 452.265 245.088C453.009 244.343 453.893 243.753 454.865 243.35C455.838 242.948 456.88 242.74 457.932 242.74H631.292C633.417 242.74 635.456 243.585 636.959 245.088C638.462 246.591 639.306 248.629 639.306 250.755C639.306 252.88 638.462 254.918 636.959 256.421C635.456 257.924 633.417 258.769 631.292 258.769V258.769Z" fill="#CCCCCC"/>
<path d="M426.882 291.547H297.536C296.517 291.546 295.541 291.141 294.82 290.42C294.1 289.7 293.694 288.723 293.693 287.704V186.757C293.694 185.738 294.1 184.761 294.82 184.041C295.541 183.321 296.517 182.915 297.536 182.914H426.882C427.901 182.915 428.878 183.321 429.598 184.041C430.319 184.761 430.724 185.738 430.725 186.757V287.704C430.724 288.723 430.319 289.7 429.598 290.42C428.878 291.141 427.901 291.546 426.882 291.547V291.547Z" fill="#5352ED"/>
<path d="M700.5 648V591C700.5 587.41 697.59 584.5 694 584.5C690.41 584.5 687.5 587.41 687.5 591V648C687.5 651.59 690.41 654.5 694 654.5C697.59 654.5 700.5 651.59 700.5 648Z" fill="white" stroke="white" stroke-width="5"/>
<path d="M728.202 621.069L728.811 620.498C731.418 618.055 731.565 613.967 729.141 611.344L698.779 578.483C696.206 575.698 691.805 575.697 689.231 578.482L658.86 611.344C656.436 613.967 656.582 618.055 659.189 620.498L659.799 621.069C662.431 623.537 666.569 623.388 669.018 620.737L692.903 594.884C693.497 594.241 694.513 594.241 695.107 594.884L718.982 620.736C721.43 623.387 725.569 623.536 728.202 621.069Z" fill="white" stroke="white" stroke-width="5"/>
</g>
<defs>
<clipPath id="clip0">
<rect width="782.044" height="701.88" fill="white"/>
</clipPath>
</defs>
</svg>