<svg width="400px" height="100" viewBox="0 0 629 160" fill="none" xmlns="http://www.w3.org/2000/svg">
<path d="M502.973 139.536H571.95L606.438 79.8002L571.95 20.0645H502.973L468.484 79.8002L502.973 139.536Z" fill="#F2F2F2"/>
<path d="M56.9728 138.577H125.95L160.438 78.8412L125.95 19.1055H56.9728L22.4844 78.8412L56.9728 138.577Z" fill="#F2F2F2"/>
<path d="M279.973 139.616H348.95L383.438 79.8802L348.95 20.1445H279.973L245.484 79.8802L279.973 139.616Z" fill="#F2F2F2"/>
<path d="M357.693 159.759H271.229C270.352 159.757 269.49 159.526 268.73 159.087C267.971 158.648 267.339 158.018 266.899 157.259L223.668 82.3789C223.23 81.6183 223 80.7563 223 79.8789C223 79.0015 223.23 78.1395 223.668 77.3789L266.899 2.5C267.339 1.74084 267.971 1.11043 268.73 0.671722C269.49 0.23302 270.352 0.00139483 271.229 0H357.693C358.57 0.00137846 359.432 0.232987 360.192 0.671692C360.951 1.1104 361.583 1.74083 362.023 2.5L405.254 77.3789C405.692 78.1394 405.922 79.0015 405.922 79.8789C405.922 80.7563 405.692 81.6184 405.254 82.3789L362.023 157.259C361.583 158.018 360.951 158.648 360.191 159.087C359.432 159.526 358.57 159.757 357.693 159.759ZM271.229 2.00005C270.703 2.00088 270.186 2.13984 269.73 2.40306C269.274 2.66628 268.895 3.04455 268.631 3.50005L225.4 78.379C225.137 78.8353 224.999 79.3525 224.999 79.879C224.999 80.4054 225.137 80.9226 225.4 81.379L268.631 156.259C268.895 156.714 269.274 157.093 269.73 157.356C270.186 157.619 270.703 157.758 271.229 157.759H357.693C358.219 157.758 358.736 157.619 359.192 157.356C359.648 157.093 360.027 156.714 360.29 156.259L403.522 81.3789C403.785 80.9226 403.923 80.4053 403.923 79.8789C403.923 79.3525 403.785 78.8352 403.522 78.3789L360.29 3.5C360.027 3.0445 359.648 2.66624 359.192 2.40302C358.736 2.13979 358.219 2.00082 357.693 2L271.229 2.00005Z" fill="#CCCCCC"/>
<path d="M134.693 159.759H48.2294C47.352 159.757 46.4903 159.526 45.7304 159.087C44.9705 158.648 44.3391 158.018 43.8992 157.259L0.667587 82.3789C0.230185 81.6183 0 80.7563 0 79.8789C0 79.0015 0.230185 78.1395 0.667587 77.3789L43.8993 2.5C44.3392 1.74084 44.9706 1.11043 45.7304 0.671722C46.4903 0.23302 47.352 0.00139483 48.2294 0H134.693C135.57 0.00137846 136.432 0.233018 137.192 0.671722C137.951 1.11043 138.583 1.74083 139.023 2.5L182.254 77.3789C182.692 78.1394 182.922 79.0015 182.922 79.8789C182.922 80.7563 182.692 81.6184 182.254 82.3789L139.023 157.259C138.583 158.018 137.951 158.648 137.191 159.087C136.432 159.526 135.57 159.757 134.693 159.759ZM48.2294 2C47.7029 2.00083 47.1859 2.13982 46.73 2.40305C46.2741 2.66627 45.8952 3.0445 45.6312 3.5L2.39966 78.3789C2.13722 78.8353 1.99909 79.3525 1.99911 79.8789C1.99914 80.4054 2.13729 80.9226 2.39977 81.3789L45.6312 156.259C45.8952 156.714 46.2741 157.093 46.73 157.356C47.1859 157.619 47.7029 157.758 48.2294 157.759H134.693C135.219 157.758 135.736 157.619 136.192 157.356C136.648 157.093 137.027 156.714 137.29 156.259L180.522 81.3789C180.785 80.9226 180.923 80.4053 180.923 79.8789C180.923 79.3525 180.785 78.8352 180.522 78.3789L137.29 3.5C137.027 3.0445 136.648 2.66624 136.192 2.40302C135.736 2.13979 135.219 2.00082 134.693 2H48.2294Z" fill="#CCCCCC"/>
<path d="M580.693 159.759H494.23C493.352 159.757 492.49 159.526 491.731 159.087C490.971 158.648 490.339 158.018 489.899 157.259L446.668 82.3789C446.23 81.6184 446 80.7563 446 79.8788C446 79.0014 446.23 78.1394 446.668 77.3789L489.899 2.5C490.339 1.74084 490.971 1.11039 491.731 0.671692C492.49 0.232989 493.352 0.00139483 494.23 0H580.693C581.57 0.00137846 582.432 0.232987 583.192 0.671692C583.952 1.1104 584.583 1.74083 585.023 2.5L628.254 77.3789C628.692 78.1394 628.922 79.0015 628.922 79.8789C628.922 80.7563 628.692 81.6184 628.254 82.3789L585.023 157.259C584.583 158.018 583.952 158.648 583.192 159.087C582.432 159.526 581.57 159.757 580.693 159.759V159.759ZM494.23 2C493.703 2.00083 493.186 2.13979 492.73 2.40302C492.274 2.66624 491.895 3.0445 491.631 3.5L448.4 78.3789C448.137 78.8352 447.999 79.3525 447.999 79.8789C447.999 80.4054 448.137 80.9226 448.4 81.3789L491.631 156.259C491.895 156.714 492.274 157.093 492.73 157.356C493.186 157.619 493.703 157.758 494.23 157.759H580.693C581.219 157.758 581.736 157.619 582.192 157.356C582.648 157.093 583.027 156.714 583.291 156.259L626.522 81.3789C626.785 80.9226 626.923 80.4053 626.923 79.8789C626.923 79.3525 626.785 78.8352 626.522 78.3789L583.291 3.5C583.027 3.0445 582.648 2.66624 582.192 2.40302C581.736 2.13979 581.219 2.00082 580.693 2H494.23Z" fill="#CCCCCC"/>
<path d="M91.4611 45.8633C84.9389 45.8633 78.5632 47.7973 73.1402 51.4208C67.7172 55.0444 63.4905 60.1946 60.9946 66.2203C58.4987 72.246 57.8456 78.8765 59.118 85.2734C60.3904 91.6702 63.5312 97.5461 68.143 102.158C72.7549 106.77 78.6308 109.911 85.0276 111.183C91.4245 112.455 98.055 111.802 104.081 109.306C110.106 106.811 115.257 102.584 118.88 97.1609C122.504 91.7379 124.438 85.3622 124.438 78.84C124.438 74.5094 123.585 70.2213 121.928 66.2204C120.27 62.2194 117.841 58.5841 114.779 55.5219C111.717 52.4598 108.082 50.0307 104.081 48.3735C100.08 46.7162 95.7916 45.8633 91.4611 45.8633ZM91.4611 55.7563C93.4177 55.7563 95.3305 56.3365 96.9574 57.4236C98.5842 58.5106 99.8523 60.0557 100.601 61.8634C101.35 63.6711 101.546 65.6602 101.164 67.5793C100.782 69.4983 99.8401 71.2611 98.4565 72.6447C97.0729 74.0282 95.3102 74.9704 93.3911 75.3522C91.4721 75.7339 89.4829 75.538 87.6752 74.7892C85.8675 74.0404 84.3224 72.7724 83.2354 71.1455C82.1483 69.5186 81.5681 67.6059 81.5681 65.6493C81.5681 63.0255 82.6104 60.5092 84.4657 58.6539C86.321 56.7986 88.8373 55.7563 91.4611 55.7563V55.7563ZM91.4611 103.382C87.553 103.364 83.7082 102.393 80.2603 100.553C76.8124 98.7134 73.8655 96.06 71.6751 92.8234C71.8337 86.228 84.8658 82.5974 91.4611 82.5974C98.0564 82.5974 111.089 86.228 111.247 92.8234C109.054 96.0576 106.107 98.7091 102.659 100.549C99.2121 102.388 95.3685 103.361 91.4611 103.382V103.382Z" fill="#5352ED"/>
<path d="M314.397 56.9066C312.766 55.1944 310.813 53.8205 308.65 52.8632C306.488 51.9059 304.158 51.384 301.793 51.3274C299.429 51.2708 297.077 51.6806 294.871 52.5332C292.665 53.3859 290.648 54.6648 288.937 56.2969C287.225 57.929 285.852 59.8824 284.896 62.0453C283.939 64.2082 283.418 66.5384 283.362 68.9028C283.307 71.2671 283.717 73.6193 284.571 75.8249C285.424 78.0305 286.704 80.0463 288.337 81.7573C288.534 81.9636 288.735 82.1652 288.942 82.3621L315.009 108.43L340.465 82.9743C343.787 79.4903 345.615 74.845 345.558 70.0312C345.5 65.2174 343.563 60.6168 340.159 57.2127C336.754 53.8086 332.154 51.8709 327.34 51.8137C322.526 51.7565 317.881 53.5843 314.397 56.9066H314.397Z" fill="#5352ED"/>
<path d="M558.697 59.8211C558.697 71.5491 537.462 97.2952 537.462 97.2952C537.462 97.2952 516.227 71.549 516.227 59.8211C516.224 57.0324 516.771 54.2706 517.836 51.6933C518.901 49.116 520.464 46.7738 522.434 44.8003C524.404 42.8268 526.744 41.2607 529.319 40.1914C531.895 39.1221 534.656 38.5706 537.445 38.5684C540.233 38.5661 542.995 39.113 545.572 40.1781C548.15 41.2432 550.492 42.8055 552.465 44.7758C554.439 46.746 556.005 49.0857 557.074 51.6612C558.143 54.2367 558.695 56.9977 558.697 59.7863L558.697 59.8211Z" fill="#5352ED"/>
<path d="M537.462 68.1635C542.069 68.1635 545.804 64.4284 545.804 59.821C545.804 55.2136 542.069 51.4785 537.462 51.4785C532.854 51.4785 529.119 55.2136 529.119 59.821C529.119 64.4284 532.854 68.1635 537.462 68.1635Z" fill="white"/>
<path d="M536.702 121.029C541.309 121.029 545.044 117.294 545.044 112.686C545.044 108.079 541.309 104.344 536.702 104.344C532.094 104.344 528.359 108.079 528.359 112.686C528.359 117.294 532.094 121.029 536.702 121.029Z" fill="#5352ED"/>
</svg>