<svg width="1066" height="774" viewBox="0 0 1066 774" fill="none" xmlns="http://www.w3.org/2000/svg">
<g clip-path="url(#clip0)">
<path opacity="0.1" d="M995.19 369.87C995.78 363.1 996.09 356.22 996.09 349.27C996.09 240.44 922.25 152.21 831.17 152.21C802.17 152.21 774.83 161.21 751.17 176.96C686.7 126.96 602.53 96.75 510.45 96.75C360.62 96.75 231.74 176.82 174.56 291.65C171.39 291.43 168.19 291.31 164.96 291.31C73.83 291.31 0 379.53 0 488.36C0 528.36 10 565.59 27.14 596.67C27.14 694.58 105.59 773.98 202.36 773.98H324.36L324.9 773.05C332.07 761.41 349.24 758.5 361.2 765.11C364.36 766.85 367.3 769.11 370.83 769.91C384.96 772.91 394.45 750.18 408.75 752.39C415.93 753.5 421.53 760.92 428.75 760.16C433.54 759.65 437.17 755.64 441.67 753.94C448.88 751.2 456.19 755 461.24 761.17C464.17 752.74 464.15 742.75 468.89 735.02C476.06 723.38 493.23 720.47 505.19 727.08C508.35 728.82 511.29 731.08 514.82 731.88C528.95 734.88 538.44 712.15 552.74 714.36C559.92 715.47 565.52 722.89 572.74 722.13C577.53 721.62 581.16 717.61 585.66 715.91C596.88 711.64 608.37 723.23 611.13 734.91C612.199 740.056 612.765 745.294 612.82 750.55C622.5 745.86 630.68 732.67 641.73 734.38C648.91 735.49 654.51 742.91 661.73 742.15C666.52 741.64 670.15 737.63 674.65 735.93C685.87 731.66 697.36 743.25 700.12 754.93C701.59 761.13 701.69 767.57 701.94 773.93H904.09C980.09 773.93 1041.67 711.61 1041.67 634.73C1057.09 604.73 1066 569.45 1066 531.67C1066 464.67 1038 405.47 995.19 369.87Z" fill="#6C63FF"/>
<path d="M114 582.98V558.68L125.2 569.88L128 566.98L112 550.98L96 566.98L98.8 569.78L110 558.68V582.98H114Z" fill="white"/>
<path d="M789 299C792.314 299 795 296.314 795 293C795 289.686 792.314 287 789 287C785.686 287 783 289.686 783 293C783 296.314 785.686 299 789 299Z" fill="white"/>
<path d="M224 283C227.314 283 230 280.314 230 277C230 273.686 227.314 271 224 271C220.686 271 218 273.686 218 277C218 280.314 220.686 283 224 283Z" fill="white"/>
<path d="M401 435C404.314 435 407 432.314 407 429C407 425.686 404.314 423 401 423C397.686 423 395 425.686 395 429C395 432.314 397.686 435 401 435Z" fill="white"/>
<path d="M925 534C926.657 534 928 532.657 928 531C928 529.343 926.657 528 925 528C923.343 528 922 529.343 922 531C922 532.657 923.343 534 925 534Z" fill="white"/>
<path d="M700 617C701.657 617 703 615.657 703 614C703 612.343 701.657 611 700 611C698.343 611 697 612.343 697 614C697 615.657 698.343 617 700 617Z" fill="white"/>
<path d="M315 687C316.657 687 318 685.657 318 684C318 682.343 316.657 681 315 681C313.343 681 312 682.343 312 684C312 685.657 313.343 687 315 687Z" fill="white"/>
<path d="M96 444C97.6569 444 99 442.657 99 441C99 439.343 97.6569 438 96 438C94.3431 438 93 439.343 93 441C93 442.657 94.3431 444 96 444Z" fill="white"/>
<path d="M125 380C126.657 380 128 378.657 128 377C128 375.343 126.657 374 125 374C123.343 374 122 375.343 122 377C122 378.657 123.343 380 125 380Z" fill="white"/>
<path d="M957 492C958.657 492 960 490.657 960 489C960 487.343 958.657 486 957 486C955.343 486 954 487.343 954 489C954 490.657 955.343 492 957 492Z" fill="white"/>
<path d="M770 716C771.657 716 773 714.657 773 713C773 711.343 771.657 710 770 710C768.343 710 767 711.343 767 713C767 714.657 768.343 716 770 716Z" fill="white"/>
<path d="M215 612C216.657 612 218 610.657 218 609C218 607.343 216.657 606 215 606C213.343 606 212 607.343 212 609C212 610.657 213.343 612 215 612Z" fill="white"/>
<path d="M284 337C285.657 337 287 335.657 287 334C287 332.343 285.657 331 284 331C282.343 331 281 332.343 281 334C281 335.657 282.343 337 284 337Z" fill="white"/>
<path d="M386.5 227.5H371V212H369V227.5H353.5V229.5H369V245H371V229.5H386.5V227.5Z" fill="white"/>
<path d="M764 513.89H754.61V504.5H753.39V513.89H744V515.11H753.39V524.5H754.61V515.11H764V513.89Z" fill="white"/>
<path d="M707 688.89H697.61V679.5H696.39V688.89H687V690.11H696.39V699.5H697.61V690.11H707V688.89Z" fill="white"/>
<path d="M240 666.89H230.61V657.5H229.39V666.89H220V668.11H229.39V677.5H230.61V668.11H240V666.89Z" fill="white"/>
<path d="M174 490.89H164.61V481.5H163.39V490.89H154V492.11H163.39V501.5H164.61V492.11H174V490.89Z" fill="white"/>
<path d="M940 667V642.7L951.2 653.9L954 651L938 635L922 651L924.8 653.8L936 642.7V667H940Z" fill="white"/>
<path d="M747 385C750.314 385 753 382.314 753 379C753 375.686 750.314 373 747 373C743.686 373 741 375.686 741 379C741 382.314 743.686 385 747 385Z" fill="white"/>
<path d="M816 618C819.314 618 822 615.314 822 612C822 608.686 819.314 606 816 606C812.686 606 810 608.686 810 612C810 615.314 812.686 618 816 618Z" fill="white"/>
<path d="M807 439C808.657 439 810 437.657 810 436C810 434.343 808.657 433 807 433C805.343 433 804 434.343 804 436C804 437.657 805.343 439 807 439Z" fill="white"/>
<path d="M909.5 329.5H894V314H892V329.5H876.5V331.5H892V347H894V331.5H909.5V329.5Z" fill="white"/>
<path d="M697 592.89H687.61V583.5H686.39V592.89H677V594.11H686.39V603.5H687.61V594.11H697V592.89Z" fill="white"/>
<path d="M258.343 592.735L262.256 588.687L259.824 586.339L255.911 590.387L240.117 598.641L250.652 608.807L258.343 592.735Z" fill="#5352ED"/>
<path d="M268.811 603.045L272.82 598.895L270.33 596.478L266.314 600.636L250.116 609.099L260.928 619.527L268.811 603.045Z" fill="#5352ED"/>
<path d="M279.414 613.083L283.327 609.035L280.895 606.687L276.982 610.735L261.188 618.989L271.731 629.162L279.414 613.083Z" fill="#5352ED"/>
<path d="M354.436 685.727L358.452 681.569L355.955 679.16L351.939 683.317L335.748 691.773L346.553 702.208L354.436 685.727Z" fill="#5352ED"/>
<path d="M365.242 696.161L369.258 692.004L366.76 689.594L362.744 693.752L346.553 702.208L357.358 712.642L365.242 696.161Z" fill="#5352ED"/>
<path d="M376.047 706.596L380.063 702.438L377.565 700.029L373.549 704.186L357.358 712.642L368.163 723.077L376.047 706.596Z" fill="#5352ED"/>
<path d="M305.384 638.366L309.4 634.208L306.903 631.799L302.887 635.956L286.696 644.412L297.501 654.847L305.384 638.366Z" fill="#5352ED"/>
<path d="M316.19 648.8L320.206 644.643L317.716 642.24L313.7 646.398L297.501 654.847L308.306 665.282L316.19 648.8Z" fill="#5352ED"/>
<path d="M326.995 659.235L331.011 655.077L328.521 652.675L324.505 656.832L308.306 665.282L319.118 675.723L326.995 659.235Z" fill="#5352ED"/>
<path d="M575.105 337.375C588.604 322.751 595.751 281.002 586.65 272.215C577.548 263.428 536.901 272.823 522.762 286.828L522.325 286.417L244.585 574.047L297.38 625.019L575.113 337.396L575.105 337.375Z" fill="#5352ED"/>
<path d="M671.535 430.49C685.034 415.867 692.181 374.117 683.08 365.33C673.978 356.543 633.331 365.939 619.199 379.951L618.763 379.539L341.022 667.17L393.817 718.141L671.55 430.518L671.535 430.49Z" fill="#5352ED"/>
<path d="M752.018 249.005C771.948 227.705 790.429 174.211 781.335 165.431C772.241 156.651 720.231 177.763 699.701 198.415L699.272 198.01L292.018 619.758L344.799 670.73L752.059 248.975L752.018 249.005Z" fill="#363192"/>
<g opacity="0.1">
<path opacity="0.1" d="M574.87 274.92C582.46 257.21 597.28 238.74 606.5 238.85C618.5 238.99 640.12 270.64 642.57 290.85L642.83 269.14C642.62 249.24 619.18 213.96 606.53 213.81C597.43 213.7 582.89 231.69 575.21 249.19L574.87 274.92Z" fill="black"/>
<path opacity="0.1" d="M435.41 291.7H436.01C436.68 271.81 459.82 237.09 472.46 237.24C480.72 237.34 493.57 252.41 501.56 268.4L503.5 106.04H504.09C504.87 76.8801 528.22 25.8401 540.86 26.0401C552.8 26.1801 574.22 72.2501 576.64 101.94L576.87 81.9401C576.76 52.7701 553.51 1.17011 540.87 1.02011C528.23 0.870105 504.87 51.9101 504.1 81.0701H503.51L501.57 243.43C493.57 227.43 480.73 212.37 472.47 212.27C459.83 212.12 436.69 246.84 436.02 266.73H435.42L430.65 666.54H430.95L435.41 291.7Z" fill="black"/>
</g>
<path d="M540.858 25.3856L540.848 25.3855C537.021 25.34 533.881 28.4057 533.836 32.2327L533.644 48.4216C533.598 52.2487 536.664 55.3879 540.491 55.4333L540.501 55.4335C544.328 55.4789 547.467 52.4133 547.513 48.5862L547.705 32.3973C547.75 28.5703 544.685 25.431 540.858 25.3856Z" fill="#ECECF3"/>
</g>
<defs>
<clipPath id="clip0">
<rect width="1066" height="773.96" fill="white"/>
</clipPath>
</defs>
</svg>