<svg id="ac509896-9cad-4c3c-91d3-d49a439698b6" data-name="Layer 1" xmlns="http://www.w3.org/2000/svg" width="888" height="623.12839" viewBox="0 0 888 623.12839"><circle cx="787.19149" cy="69.11547" r="47.49974" fill="#ff6584"/><path d="M765.17412,332.68824l-37.216-73.0728,37.32948,63.94827.3389-26.15547L740.052,244.58558l25.66886,45.90726.60882-47.03795-27.80341-42.27541L766.421,236.05784l2.03177-85.86488.01041-.35661.00072.36261-.32037,108.947,30.69428-44.10263L768.23066,268.384l1.2122,52.58714.1256-1.3902,35.39412-46.52636-35.43594,51.44885.15362,6.577.05921.10375-.044.53695,1.60488,69.60212q-3.47454.145-7.018.118l.06752-5.41469L732.058,342.73008l32.35811,48.11971Z" transform="translate(-156 -138.43581)" fill="#3f3d56"/><path d="M591.77937,374.439l-37.216-73.0728,37.32946,63.94826.33892-26.15546-25.57449-52.82266,25.66886,45.90726.60884-47.038-27.8034-42.27543,27.89467,34.87832,2.03175-85.86486.01043-.35661.0007.36261-.32037,108.947L625.44293,256.794l-30.60709,53.34067,1.21222,52.58712.12562-1.3902,35.39412-46.52634-35.43593,51.44885.15359,6.577.05923.10375-.04395.53695,1.60488,69.60212q-3.47451.145-7.018.118l.06752-5.41466-32.29191-53.29648,32.35808,48.11974Z" transform="translate(-156 -138.43581)" fill="#cbcbcb"/><path d="M914.40051,321.28774l-37.216-73.0728L914.514,312.16321l.3389-26.15547-25.57454-52.82266,25.66886,45.90726.60882-47.03795L887.75268,189.779l27.89467,34.87832,2.03176-85.86487.01041-.35661.00072.3626-.32037,108.947,30.69424-44.10256L917.457,256.98349l1.21221,52.58711.1256-1.3902L954.189,261.65405l-35.43593,51.44887.15361,6.577.05922.10375-.044.537,1.6049,69.60211q-3.47454.14505-7.018.118l.06753-5.41468-32.29193-53.2965,32.3581,48.11974Z" transform="translate(-156 -138.43581)" fill="#3f3d56"/><path d="M273.74194,572.38927a597.57651,597.57651,0,0,1,68.04566-43.38941c66.09948-36.47436,147.38562-67.662,239.79748-91.82235q9.52562-2.49834,19.21033-4.88443,20.56723-5.09038,41.81738-9.69406,5.24946-1.1322,10.52686-2.25513,29.57346-6.2178,60.326-11.48126c.41171-.07489.82342-.14042,1.2445-.20591q7.21913-1.24914,14.5037-2.41418c97.0343-15.76688,202.19073-24.441,312.05385-24.572.9076-.00937,1.82466-.00937,2.73228-.00937v379.903H156C156,692.68572,198.83734,628.09282,273.74194,572.38927Z" transform="translate(-156 -138.43581)" fill="#f1f1f1"/><path d="M450.18176,615.72264c37.84058-28.1372,86.29224-53.33618,143.025-74.58642q9.446-3.55105,19.201-6.93372c.90765-.31811,1.82464-.63629,2.74163-.95441q12.4217-4.2669,25.32062-8.3092,21.79761-6.81207,44.83039-12.87555,16.48735-4.35581,33.555-8.29987,5.48322-1.28191,11.01339-2.48907,12.57148-2.79776,25.4423-5.35229C843.035,478.44286,940.85541,468.68327,1044,468.68327V761.56419H359.40723C359.40723,708.462,392.43817,658.66283,450.18176,615.72264Z" transform="translate(-156 -138.43581)" fill="#6c63ff"/><path d="M432.23444,746.36815l1.69366.80469a183.17229,183.17229,0,0,1,20.94147-33.54566l-1.47846-1.15094A185.611,185.611,0,0,0,432.23444,746.36815Zm48.19909-63.27362,1.282,1.36615a335.313,335.313,0,0,1,28.91375-24.01062c.56146-.42108,1.1322-.84216,1.703-1.26325l-1.11353-1.50647c-.5708.42109-1.14154.84217-1.7124,1.27259A338.72729,338.72729,0,0,0,480.43353,683.09453ZM544.465,635.588l.96374,1.6c10.91052-6.58747,22.61639-13.06263,34.78076-19.24775l-.8515-1.675C567.15619,622.4785,555.41284,628.9818,544.465,635.588Zm70.99322-36.28735.7392,1.7124c11.81817-5.13709,24.23523-10.15253,36.88617-14.89667l-.655-1.74982C639.74005,589.12,627.30438,594.14482,615.45819,599.30065Zm74.61441-28.08094.57077,1.7779c3.31244-1.07612,6.63428-2.13343,9.9935-3.1908,9.1514-2.854,18.60217-5.66119,28.09976-8.3186l-.50531-1.806c-9.51629,2.66674-18.98578,5.47393-28.15585,8.34662Q695.04126,569.60557,690.0726,571.21971Zm88.45374-24.385c-3.92066.89832-7.86939,1.83405-11.72452,2.76984l.43976,1.81531c3.85519-.92639,7.79458-1.86212,11.71527-2.76978,3.71478-.86084,7.41089-1.70294,10.99472-2.47961,5.343-1.18842,10.77017-2.3581,16.12247-3.46222l-.37427-1.834c-5.371,1.11347-10.79828,2.27375-16.15058,3.46216-3.58383.786-7.29861,1.62811-11.02282,2.49835Zm66.32394-13.42749.32755,1.84339c12.88485-2.25513,26.116-4.36988,39.30969-6.27875l-.27139-1.85272C871.00375,529.03734,857.76328,531.15209,844.85028,533.40721Zm78.90009-11.44391.21521,1.86206c13.044-1.51586,26.36869-2.88208,39.60913-4.07043l-.16843-1.86206C950.15648,519.08122,936.81308,520.44743,923.75037,521.9633Zm79.41467-7.09283.11227,1.87146c13.13758-.83276,26.51839-1.50647,39.76819-2.00244l-.0655-1.87146C1029.70213,513.37334,1016.312,514.047,1003.165,514.87047Z" transform="translate(-156 -138.43581)" fill="#fff"/><path d="M628.52075,659.52373C711.2012,598.03746,866.3064,556.6411,1044,556.6411V761.56419H565.004C565.004,724.41606,588.11633,689.56975,628.52075,659.52373Z" transform="translate(-156 -138.43581)" fill="#f1f1f1"/><path d="M273.74188,572.38927l176.4397,43.33331,178.33917,43.80115L1044,761.56419H156C156,692.68572,198.83734,628.09282,273.74188,572.38927Z" transform="translate(-156 -138.43581)" opacity="0.2" style="isolation:isolate"/><polygon points="224.992 394.724 218.997 394.723 216.144 371.598 224.993 371.598 224.992 394.724" fill="#ffb7b7"/><path d="M382.52129,538.97138l-19.33231-.00072v-.24452a7.52506,7.52506,0,0,1,7.52467-7.52456h.00048l11.80752.00048Z" transform="translate(-156 -138.43581)" fill="#2f2e41"/><polygon points="277.959 390.307 272.168 391.862 263.417 370.266 271.964 367.972 277.959 390.307" fill="#ffb7b7"/><path d="M436.94212,533.95982l-18.67145,5.01156-.06339-.23617a7.52507,7.52507,0,0,1,5.3165-9.21816l.00046-.00013,11.40389-3.06084Z" transform="translate(-156 -138.43581)" fill="#2f2e41"/><path d="M356.0256,425.91049c-3.46527,4.45538,7.4256,41.58368,7.92071,42.07874s-.495,3.46533-.495,3.46533a2.44423,2.44423,0,0,0,.495,1.4851c.495.49506,0,.99006,0,1.98017s0,.99011.99012,2.97027a7.877,7.877,0,0,1,.495,4.45539l6.43561,37.62335a2.47009,2.47009,0,0,0-1.48517,2.47522c0,1.98022,9.90088,2.97034,13.36621,2.47522s-2.47522-44.554-2.47522-44.554,0-11.386.99012-12.3761,0-.99005,0-2.97027-1.48523-4.9505-.99012-6.43561.99012-22.772.99012-22.772,11.386,21.28689,11.386,24.25717,3.46533,7.92071,3.46533,7.92071l22.772,46.45484s-1.48511,2.97027,0,5.44549,7.92071.49506,14.35626-1.98016-2.47522-6.43561-2.47522-6.43561l-13.86121-39.52429a25.26454,25.26454,0,0,1,.495-4.45538c.495-2.47522-1.48517-1.48511-2.97028-2.47522s-.99011-.99011,0-2.97028-1.48511-6.43555-1.48511-6.43555l-6.43554-36.63323S359.49087,421.45511,356.0256,425.91049Z" transform="translate(-156 -138.43581)" fill="#2f2e41"/><circle cx="215.97598" cy="185.36774" r="12.87115" fill="#ffb8b8"/><path d="M367.189,340.59772s-17.55938,8.04608-19.04448,12.00643,9.36621,40.63328,9.36621,40.63328.65843,15.41973-1.32173,21.36029-1.64855,6.85723-1.64855,6.85723v4.45542c0,2.47522,15.84143.495,23.76215-1.9802s28.21753-1.98019,30.19769-2.47522-3.31129-6.85723-3.31129-6.85723c6.9306-.495,0-15,0-15s-.70855-46.95386-2.68871-53.38944-20.31129-7.61056-20.31129-7.61056l-9.3319,3.15518Z" transform="translate(-156 -138.43581)" fill="#6c63ff"/><path d="M387.56839,320.41611a12.53511,12.53511,0,0,0-1.75269-9.33359,13.94445,13.94445,0,0,0-9.43231-6.127,18.356,18.356,0,0,0-11.03174,1.86844c-2.05414,1.00778-4.27655,2.3595-6.42725,1.62149l.63172,1.13358-1.59986.01871.58448,1.32611-1.52729.21814,1.18134.7088a27.0963,27.0963,0,0,0-3.14276,9.0701,6.23935,6.23935,0,0,0,.28241,3.78274c.57824,1.12976,2.06976,1.78964,3.02447,1.01053.599-.4888.80286-1.3465,1.223-2.01761s1.38556-1.13916,1.88617-.53546l1.2912-2.5813,1.03369.84165a26.885,26.885,0,0,1,8.47315-5.04642,2.80465,2.80465,0,0,1,2.46008-.0669c1.15375.73908.98651,2.63053,1.78571,3.79215,1.2995,1.88873,4.49951,1.10452,5.73016,3.046a8.56936,8.56936,0,0,1,.72516,2.43637c.22.82446.75018,1.69113,1.54517,1.74448C386.189,325.59772,386.82943,323.19989,387.56839,320.41611Z" transform="translate(-156 -138.43581)" fill="#2f2e41"/><path d="M418.635,422.62774a5.43008,5.43008,0,0,1-.84778-8.28308L409.1319,397.098l9.958,1.17912,6.69252,16.19691a5.45949,5.45949,0,0,1-7.14744,8.15367Z" transform="translate(-156 -138.43581)" fill="#ffb8b8"/><path d="M411.50471,410.249l-10.09023-32.66282-11.51628-24.971a7.66192,7.66192,0,0,1,5.49157-10.7287h0a7.7032,7.7032,0,0,1,8.69595,4.987l21.00138,59.94255a2.42993,2.42993,0,0,1-1.78649,3.17985l-8.96726,1.91213a2.48368,2.48368,0,0,1-.517.05485A2.41607,2.41607,0,0,1,411.50471,410.249Z" transform="translate(-156 -138.43581)" fill="#6c63ff"/><path d="M349.15783,433.90746a5.4301,5.4301,0,0,0-.97964-8.26853l4.68433-18.71941-9.46089,3.32311-2.99786,17.26681a5.45949,5.45949,0,0,0,8.75406,6.398Z" transform="translate(-156 -138.43581)" fill="#ffb8b8"/><path d="M351.53382,422.44825a2.48444,2.48444,0,0,1-.51657.05928l-9.16841.09019a2.42993,2.42993,0,0,1-2.43717-2.71353l7.4187-63.08035a7.70319,7.70319,0,0,1,7.39853-6.764h0a7.66192,7.66192,0,0,1,7.69984,9.27227l-5.79131,26.88195-2.72159,34.07733A2.41607,2.41607,0,0,1,351.53382,422.44825Z" transform="translate(-156 -138.43581)" fill="#6c63ff"/></svg>