<svg data-name="Layer 1" xmlns="http://www.w3.org/2000/svg" width="829" height="364.829"><path d="M246.63 300.389c-2.85 22.33-13.33 42.76-24.51 62.44-.37.67-.75 1.33-1.14 2h-116.2c-2.35-.61-4.67-1.28-6.98-2a127.027 127.027 0 0 1-36.69-18.05c-42.75-30.8-59.2-89-51.77-141.15 4.62-32.4 18.84-65.48 46.53-82.93 14.62-9.23 33.4-12.23 50.23-8.8.44.08.88.18 1.33.27 14.48 3.26 27.38 11.36 34.72 24.41 13.2 23.45 5.34 52.5-1.15 78.6-6.47 26.1-9.98 57.34 8.8 76.59-6.2-18.25-.08-40.02 14.73-52.36 11.19-9.31 26.77-12.8 40.98-9.91 1.36.29 2.7.62 4.02 1.02a44.598 44.598 0 0 1 9.17 3.84c22.15 12.37 31.12 40.86 27.93 66.03z" fill="#f2f2f2"/><path d="M177.73 362.829c3.22.75 6.45 1.41 9.7 2h-17.57c-2.3-.62-4.59-1.28-6.86-2q-7.485-2.34-14.74-5.37c-19.4-8.14-37.27-20.36-50.79-36.62a103.37 103.37 0 0 1-16.02-26.17 118.856 118.856 0 0 1-8.2-33.49c-2.45-23.6.05-47.85 4.72-71.03a296.45 296.45 0 0 1 23.16-69.47q1.905-3.975 3.94-7.9a1.542 1.542 0 0 1 1.03-.88 1.777 1.777 0 0 1 1.33.27 2.106 2.106 0 0 1 .83 2.78 293.039 293.039 0 0 0-24.58 66.96c-5.32 22.67-8.34 46.39-7.31 69.7.98 21.78 6.67 43.2 19.58 61.01 11.79 16.26 28.07 29.08 46.08 37.81a169.131 169.131 0 0 0 35.7 12.4zM216.29 364.829h-5.18c-.58-.66-1.14-1.33-1.69-2a110.411 110.411 0 0 1-23.24-49.66 107.734 107.734 0 0 1 9.29-67.05 110.24 110.24 0 0 1 10.04-16.62c1.36.29 2.7.62 4.02 1.02a106.056 106.056 0 0 0-19.77 45.34 105.095 105.095 0 0 0 24.74 86.97c.58.67 1.18 1.34 1.79 2z" fill="#fff"/><path d="M682.93 347.822c.752 5.893 3.517 11.285 6.468 16.48.098.176.198.35.3.527h30.668c.62-.16 1.233-.338 1.842-.528a33.525 33.525 0 0 0 9.684-4.763c11.282-8.13 15.624-23.49 13.663-37.253-1.22-8.55-4.973-17.28-12.28-21.886a18.437 18.437 0 0 0-13.257-2.323c-.116.021-.233.048-.351.071a13.68 13.68 0 0 0-9.163 6.443c-3.484 6.189-1.41 13.855.303 20.744 1.708 6.888 2.634 15.133-2.322 20.213a12.644 12.644 0 0 0-14.703-16.434c-.36.077-.713.164-1.061.27a11.77 11.77 0 0 0-2.42 1.013c-5.846 3.264-8.214 10.783-7.372 17.426z" fill="#f2f2f2"/><path d="M701.113 364.301a53.01 53.01 0 0 1-2.56.528h4.637a42.943 42.943 0 0 0 1.81-.528q1.976-.617 3.891-1.417a34.9 34.9 0 0 0 13.404-9.665 27.282 27.282 0 0 0 4.228-6.906 31.368 31.368 0 0 0 2.164-8.84 62.858 62.858 0 0 0-1.245-18.745 78.238 78.238 0 0 0-6.113-18.335q-.502-1.049-1.04-2.085a.407.407 0 0 0-.271-.232.47.47 0 0 0-.351.071.556.556 0 0 0-.22.734 77.338 77.338 0 0 1 6.488 17.672 68.022 68.022 0 0 1 1.93 18.395 29.35 29.35 0 0 1-5.168 16.102 32.486 32.486 0 0 1-12.162 9.979 44.637 44.637 0 0 1-9.422 3.272zM690.937 364.83h1.367c.153-.175.3-.352.446-.529a29.14 29.14 0 0 0 6.133-13.106 28.433 28.433 0 0 0-2.452-17.696 29.095 29.095 0 0 0-2.65-4.386c-.358.077-.712.164-1.06.27a27.99 27.99 0 0 1 5.217 11.965 27.737 27.737 0 0 1-6.529 22.953c-.153.177-.311.354-.472.528z" fill="#fff"/><path d="M406.51 212.508h-95.981l-1.018-29.51a8.86 8.86 0 0 1 9.931-9.1l55.855 6.84h.006a31.29 31.29 0 0 1 31.207 31.27z" fill="#6c63ff"/><path d="M363.73 107.829H296.79a6.777 6.777 0 0 0-6.78 6.779v66.942a6.777 6.777 0 0 0 6.78 6.779h66.942a6.777 6.777 0 0 0 6.779-6.779v-66.942a6.777 6.777 0 0 0-6.78-6.779z" fill="#ccc"/><path d="m348.654 157.886-31.606 6.155a7.21 7.21 0 0 1-8.446-5.693l-2.43-12.477a7.21 7.21 0 0 1 5.693-8.446l31.606-6.155a7.21 7.21 0 0 1 8.447 5.693l2.43 12.476a7.21 7.21 0 0 1-5.694 8.447z" fill="#3f3d56"/><path d="m342.331 143.146-24.12 4.698a1.695 1.695 0 0 1-.648-3.327l24.12-4.698a1.695 1.695 0 0 1 .648 3.327zM337.643 150.102l-12.477 2.43a1.695 1.695 0 0 1-.647-3.327l12.476-2.43a1.695 1.695 0 1 1 .648 3.327z" fill="#fff"/><path d="M370.51 114.608v8.897h-80.5v-8.897a6.777 6.777 0 0 1 6.779-6.779h66.942a6.777 6.777 0 0 1 6.779 6.779z" fill="#b3b3b3"/><path d="M531.26 126.292a10.743 10.743 0 0 0-15.193-6.365l-92.096-33.043-4.057 23.007 91.804 25.246a10.8 10.8 0 0 0 19.543-8.845z" fill="#ffb8b8"/><path d="M531.26 126.292a10.743 10.743 0 0 0-15.193-6.365l-92.096-33.043-4.057 23.007 91.804 25.246a10.8 10.8 0 0 0 19.543-8.845z" opacity=".2"/><path d="m440.317 91.076-8.696 22.72a4.817 4.817 0 0 1-6.861 2.476l-21.137-11.896a13.377 13.377 0 0 1 9.638-24.958l23.602 5.234a4.817 4.817 0 0 1 3.454 6.424zM538.51 147.329l-33 15 4.332 16.311a253.735 253.735 0 0 1 6.54 96.65l24.128 5.039 20-51-7-58z" fill="#6c63ff"/><path d="M603.26 222.829c-21.682 0-39.352 15.762-40.21 35.5h80.419c-.858-19.738-18.527-35.5-40.21-35.5z" fill="#3f3d56"/><path d="M586.381 226.23c-1.128-89.098-51.871-80.901-51.871-80.901s.949 27.733 1.405 28.596c32.335 61.18-21.03 132.904-88.96 119.709q-1.921-.373-3.691-.757a34.581 34.581 0 0 1-27.164-38.763c6.692-53.736-26.59-52.785-26.59-52.785h-48.667l-25.273-22.746a7.347 7.347 0 0 0-11.809 2.921l-3.251 8.825s-48 5-44 52h14.84a29.967 29.967 0 0 0 .16 4l110.75-.9c6.493-.053 12.223 5.207 12.25 11.7a11.753 11.753 0 0 1-12.145 11.795l-17.855-.595c-5.5 24.5 8 41 22.875 51.375a83.148 83.148 0 0 0 47.617 14.625h48.508c63 0 74-53 74-53 33-14 28.871-55.098 28.871-55.098z" fill="#3f3d56"/><circle cx="600.26" cy="307.079" r="56.25" fill="#3f3d56"/><circle cx="600.26" cy="307.079" r="13.787" fill="#fff"/><circle cx="316.26" cy="298.579" r="64.75" fill="#3f3d56"/><circle cx="316.26" cy="298.579" r="15.87" fill="#fff"/><path d="m505.604 166.761-11.874-32.25a13.638 13.638 0 0 1 8.087-17.51l34.04-12.531a23.998 23.998 0 0 1 30.812 14.227 23.845 23.845 0 0 1 1.48 8.292 24.189 24.189 0 0 1-8.987 18.73 23.813 23.813 0 0 1-6.72 3.79z" fill="#3f3d56"/><path d="M567.65 126.989a23.55 23.55 0 0 1-8.8 18.34 29.988 29.988 0 0 1-19.7-41.3 23.505 23.505 0 0 1 28.5 22.96z" fill="#6c63ff"/><ellipse cx="265.01" cy="231.829" rx="14" ry="17" fill="#6c63ff"/><path fill="#ffb8b8" d="M450.071 292.005h12.26l5.833-31.797-18.095.001.002 31.796z"/><path d="M446.944 288.002H471.088a15.386 15.386 0 0 1 15.387 15.386v.5l-39.53.001zM464.301 278.955q-.214 0-.43-.021l-16.966-1.235a4.5 4.5 0 0 1-3.81-6.03l22.707-51.014a3.498 3.498 0 0 0-.196-2.8 3.45 3.45 0 0 0-2.212-1.759c-10.677-2.79-38.072-10.223-61.786-18.918-10.16-3.725-16.559-9.11-19.019-16.002-3.243-9.087 1.555-17.374 1.76-17.721l.162-.273 22.314 2.028 24.191 2.058 53.014 28.428a20.086 20.086 0 0 1 8.818 25.784l-24.44 54.808a4.497 4.497 0 0 1-4.107 2.667z" fill="#2f2e41"/><circle cx="410.705" cy="39.72" r="24.561" fill="#ffb8b8"/><path fill="#ffb8b8" d="M443.071 295.005h12.26l5.833-31.797-18.095.001.002 31.796z"/><path d="M439.944 291.002H464.088a15.386 15.386 0 0 1 15.387 15.386v.5l-39.53.001zM457.301 281.955q-.214 0-.43-.021l-16.966-1.235a4.5 4.5 0 0 1-3.81-6.03l22.707-51.014a3.498 3.498 0 0 0-.196-2.8 3.45 3.45 0 0 0-2.212-1.759c-10.677-2.79-38.072-10.223-61.786-18.918-10.16-3.725-16.559-9.11-19.019-16.002-3.243-9.087 1.555-17.374 1.76-17.721l.162-.273 22.314 2.028 24.191 2.058 53.014 28.428a20.086 20.086 0 0 1 8.818 25.784l-24.44 54.808a4.497 4.497 0 0 1-4.107 2.667z" fill="#2f2e41"/><path d="m418.28 78.208-26-9s-16.322 12.54-8.48 43.649a77.012 77.012 0 0 1-3.401 48.32 49.779 49.779 0 0 1-2.619 5.531s29 35 56 9l-10.5-50.5s16.5-33.5-5-47z" fill="#6c63ff"/><path d="M413.755 65.117c-3.496-5.233-6.255-12.488-2.406-17.466 3.8-4.915 11.292-4.19 17.11-6.365 8.105-3.029 12.805-12.55 11.339-21.076s-8.31-15.594-16.464-18.486S405.985-.228 398 3.103c-9.83 4.1-18.261 12.03-21.797 22.076s-1.646 22.108 5.69 29.83c7.863 8.278 20.205 10.484 31.622 10.35" fill="#2f2e41"/><path d="M390.908 20.484c-4.405 3.586-11.125 1.993-15.854-1.154s-8.565-7.628-13.68-10.096c-9.02-4.35-19.925-1.458-28.702 3.36s-16.56 11.476-25.832 15.257-21.104 3.968-28.125-3.172a25.732 25.732 0 0 0 37.71 30.372c10.16-6.189 15.772-19.164 27.166-22.58 6.306-1.89 13.077-.368 19.45 1.281s13.017 3.43 19.449 2.027 12.447-7.183 11.629-13.715z" fill="#2f2e41"/><path d="M530.038 125.291a10.743 10.743 0 0 0-15.862-4.441l-95.47-21.428-1.187 23.332 94.217 13.726a10.8 10.8 0 0 0 18.302-11.189z" fill="#ffb8b8"/><path d="m435.445 101.566-5.827 23.62a4.817 4.817 0 0 1-6.503 3.303l-22.442-9.198a13.377 13.377 0 0 1 6.484-25.957l24.068 2.283a4.817 4.817 0 0 1 4.22 5.949z" fill="#6c63ff"/><circle cx="519.01" cy="136.829" r="7" fill="#6c63ff"/><path d="M829 363.829a1.003 1.003 0 0 1-1 1H1a1 1 0 0 1 0-2h827a1.003 1.003 0 0 1 1 1z" fill="#3f3d56"/></svg>