<svg width="462" height="373" fill="none" xmlns="http://www.w3.org/2000/svg"><path d="M358.798 200.076c-29.238-21.857-75.032-42.529-125.639-56.713-46.078-12.916-91.022-19.151-126.56-17.559l-.185-4.133c35.962-1.61 81.371 4.677 127.862 17.708 51.079 14.317 97.369 35.232 126.999 57.384l-2.477 3.313z" fill="#CCC"/><path d="M355.763 216.912a137.664 137.664 0 0 1-13.971 60.611 138.194 138.194 0 0 1-262.051-70.13c.103-1.601.237-3.192.401-4.774a138.18 138.18 0 0 1 237.644-80.847 138.18 138.18 0 0 1 37.977 95.14z" fill="#6C63FF"/><path opacity=".1" d="M343.848 273.121a125.727 125.727 0 0 1-2.056 4.402 200.88 200.88 0 0 1-12.75.956c-3.694.165-7.496.248-11.381.248-33.931 0-74.767-6.263-116.484-17.954-46.491-13.032-88.552-31.259-118.437-51.328a186.75 186.75 0 0 1-3-2.052c.104-1.601.238-3.192.402-4.774a215.92 215.92 0 0 0 4.902 3.393c29.534 19.828 71.173 37.861 117.25 50.777 41.353 11.591 81.804 17.801 115.347 17.801 3.835 0 7.573-.081 11.215-.244 5.304-.24 10.301-.648 14.992-1.225z" fill="#000"/><path d="M317.662 275.418c-33.93.001-74.769-6.263-116.484-17.955-46.491-13.031-88.553-31.259-118.439-51.327-30.509-20.486-44.816-40.673-40.284-56.841 4.532-16.168 27.246-25.979 63.959-27.624l.185 4.133c-17.145.768-31.117 3.317-41.528 7.574-10.386 4.247-16.655 9.978-18.633 17.034-1.977 7.055.4 15.209 7.066 24.236 6.682 9.048 17.294 18.487 31.542 28.054 29.53 19.829 71.17 37.862 117.249 50.777 41.354 11.591 81.802 17.802 115.347 17.803 3.833 0 7.57-.081 11.213-.244 17.144-.769 31.116-3.317 41.528-7.574 10.386-4.247 16.655-9.978 18.632-17.034 3.551-12.669-7.18-29.131-30.217-46.354l2.478-3.313c11.854 8.863 20.629 17.599 26.082 25.965 5.845 8.969 7.743 17.32 5.641 24.819-4.532 16.168-27.246 25.978-63.959 27.624-3.694.165-7.494.247-11.378.247z" fill="#CCC"/><path d="M221.244 53.818a1.583 1.583 0 1 0 0-3.167 1.583 1.583 0 0 0 0 3.167z" fill="#F2F2F2"/><path d="M11.187 122.525a2.724 2.724 0 1 0-.001-5.448 2.724 2.724 0 0 0 0 5.448zM5.381 231.794a5.382 5.382 0 1 0-.001-10.763 5.382 5.382 0 0 0 .001 10.763zM328.383 65.321a3.587 3.587 0 1 0 0-7.173 3.587 3.587 0 0 0 0 7.173zM455.578 216.402a5.823 5.823 0 1 0 0-11.646 5.823 5.823 0 0 0 0 11.646zM410.047 120.078a2.498 2.498 0 1 0 .001-4.997 2.498 2.498 0 0 0-.001 4.997zM106.715 89.383a3.897 3.897 0 1 0 0-7.795 3.897 3.897 0 0 0 0 7.795zM401.303 201.271a2.5 2.5 0 1 0 0-4.998 2.5 2.5 0 0 0 0 4.998zM18.048 305.522a3.11 3.11 0 1 0 0-6.218 3.11 3.11 0 0 0 0 6.218zM80.854 349.059a3.368 3.368 0 1 0-.001-6.735 3.368 3.368 0 0 0 0 6.735zM178.742 6.645h-6.645V0h-3.565v6.645h-6.648v3.568h6.648v6.645h3.565v-6.645h6.645V6.645zM332.884 366.201h-4.174v-4.172h-2.238v4.172H322.3v2.239h4.172v4.172h2.238v-4.172h4.174v-2.239zM429.188 344.844h-3.119v-3.119h-1.675v3.119h-3.119v1.675h3.119v3.119h1.675v-3.119h3.119v-1.675z" fill="#CCC"/><path opacity=".1" d="M219.66 120.329c6.413 0 11.612-5.199 11.612-11.612 0-6.412-5.199-11.61-11.612-11.61-6.412 0-11.611 5.198-11.611 11.61 0 6.413 5.199 11.612 11.611 11.612zM130.465 205.301c6.413 0 11.611-5.198 11.611-11.611 0-6.412-5.198-11.611-11.611-11.611-6.412 0-11.611 5.199-11.611 11.611 0 6.413 5.199 11.611 11.611 11.611zM258.716 321.941c6.413 0 11.611-5.198 11.611-11.611s-5.198-11.611-11.611-11.611-11.611 5.198-11.611 11.611 5.198 11.611 11.611 11.611zM219.66 223.246c6.413 0 11.612-5.199 11.612-11.611 0-6.413-5.199-11.612-11.612-11.612-6.412 0-11.611 5.199-11.611 11.612 0 6.412 5.199 11.611 11.611 11.611zM136.271 287.108c6.412 0 11.611-5.199 11.611-11.612 0-6.412-5.199-11.611-11.611-11.611-6.413 0-11.611 5.199-11.611 11.611 0 6.413 5.198 11.612 11.611 11.612zM281.939 160.968c6.412 0 11.611-5.199 11.611-11.611 0-6.413-5.199-11.612-11.611-11.612-6.413 0-11.612 5.199-11.612 11.612 0 6.412 5.199 11.611 11.612 11.611zM320.467 239.607c6.412 0 11.611-5.198 11.611-11.611s-5.199-11.611-11.611-11.611c-6.413 0-11.612 5.198-11.612 11.611s5.199 11.611 11.612 11.611z" fill="#000"/><path d="M219.66 176.273c8.453 0 15.306-6.852 15.306-15.305s-6.853-15.306-15.306-15.306-15.305 6.853-15.305 15.306 6.852 15.305 15.305 15.305z" fill="#fff"/><path d="M219.66 138.801a21.64 21.64 0 0 0-21.639 21.639c0 11.951 21.639 51.195 21.639 51.195s21.639-39.244 21.639-51.195a21.64 21.64 0 0 0-21.639-21.639zm0 32.194a10.027 10.027 0 1 1 0-20.054 10.027 10.027 0 0 1 0 20.054z" fill="#CCC"/><path d="M136.271 241.718c8.453 0 15.305-6.852 15.305-15.305s-6.852-15.306-15.305-15.306-15.306 6.853-15.306 15.306 6.853 15.305 15.306 15.305z" fill="#fff"/><path d="M136.271 204.246a21.64 21.64 0 0 0-21.639 21.639c0 11.951 21.639 51.195 21.639 51.195s21.639-39.244 21.639-51.195a21.645 21.645 0 0 0-6.338-15.301 21.621 21.621 0 0 0-15.301-6.338zm0 32.194a10.027 10.027 0 1 1 0-20.054 10.027 10.027 0 0 1 0 20.054z" fill="#CCC"/><path d="M320.467 194.218c8.453 0 15.305-6.853 15.305-15.306s-6.852-15.305-15.305-15.305c-8.454 0-15.306 6.852-15.306 15.305s6.852 15.306 15.306 15.306z" fill="#fff"/><path d="M320.467 156.746a21.627 21.627 0 0 0-15.302 6.338 21.627 21.627 0 0 0-6.337 15.301c0 11.951 21.639 51.194 21.639 51.194s21.639-39.243 21.639-51.194c0-2.842-.56-5.656-1.648-8.281a21.624 21.624 0 0 0-11.711-11.711 21.625 21.625 0 0 0-8.28-1.647zm0 32.194a10.028 10.028 0 1 1-.002-20.055 10.028 10.028 0 0 1 .002 20.055z" fill="#CCC"/><path d="M219.66 73.356c8.453 0 15.306-6.853 15.306-15.306s-6.853-15.305-15.306-15.305-15.305 6.852-15.305 15.305 6.852 15.306 15.305 15.306z" fill="#fff"/><path d="M219.66 35.883a21.64 21.64 0 0 0-21.639 21.64c0 11.95 21.639 51.194 21.639 51.194s21.639-39.244 21.639-51.194a21.64 21.64 0 0 0-21.639-21.64zm0 32.195a10.028 10.028 0 1 1 0-20.055 10.028 10.028 0 0 1 0 20.055z" fill="#CCC"/><path d="M258.716 276.552c8.453 0 15.306-6.853 15.306-15.306s-6.853-15.305-15.306-15.305-15.306 6.852-15.306 15.305 6.853 15.306 15.306 15.306z" fill="#fff"/><path d="M258.716 239.079a21.64 21.64 0 0 0-21.639 21.639c0 11.951 21.639 51.195 21.639 51.195s21.639-39.244 21.639-51.195a21.648 21.648 0 0 0-13.358-19.991 21.628 21.628 0 0 0-8.281-1.648zm0 32.195a10.027 10.027 0 1 1 0-20.054 10.027 10.027 0 0 1 0 20.054z" fill="#3F3D56"/><path d="M130.465 158.856c8.453 0 15.306-6.852 15.306-15.305s-6.853-15.306-15.306-15.306-15.305 6.853-15.305 15.306 6.852 15.305 15.305 15.305z" fill="#fff"/><path d="M130.465 121.384a21.64 21.64 0 0 0-21.639 21.639c0 11.951 21.639 51.195 21.639 51.195s21.639-39.244 21.639-51.195a21.64 21.64 0 0 0-21.639-21.639zm0 32.195a10.027 10.027 0 1 1 0-20.054 10.027 10.027 0 0 1 0 20.054z" fill="#3F3D56"/><path d="M281.939 116.106c8.453 0 15.305-6.852 15.305-15.305s-6.852-15.306-15.305-15.306c-8.454 0-15.306 6.853-15.306 15.306s6.852 15.305 15.306 15.305z" fill="#fff"/><path d="M281.938 78.634a21.639 21.639 0 0 0-21.639 21.639c0 11.951 21.639 51.195 21.639 51.195s21.639-39.244 21.639-51.195a21.639 21.639 0 0 0-21.639-21.64zm0 32.194a10.027 10.027 0 1 1 0-20.054 10.027 10.027 0 0 1 0 20.054z" fill="#3F3D56"/></svg>