<svg width="230" height="56" viewBox="0 0 230 56" fill="none" xmlns="http://www.w3.org/2000/svg">
<rect width="230" height="56" rx="8" fill="url(#paint0_linear_1_50)"/>
<rect x="1.05" y="1.05" width="227.9" height="53.9" rx="6.95" stroke="white" stroke-opacity="0.15" stroke-width="2.1"/>
<g filter="url(#filter0_d_1_50)">
<path d="M12 10.5V42.5061C12 44.0112 13.2207 45.2346 14.7285 45.2346H49.2715C50.7766 45.2346 52 44.0139 52 42.5061L51.9974 10.5H12ZM27.4544 14.3207H36.543C37.5482 14.3207 38.3614 15.1338 38.3614 16.139C38.3614 17.1416 37.5482 17.9574 36.543 17.9574H27.4544C26.4492 17.9574 25.636 17.1442 25.636 16.139C25.636 15.1338 26.4492 14.3207 27.4544 14.3207Z" fill="#F1F3F4"/>
<path d="M12 10.5V42.5061C12 44.0112 13.2207 45.2346 14.7285 45.2346H49.2715C50.7766 45.2346 52 44.0139 52 42.5061L51.9974 10.5H12ZM27.4544 14.3207H36.543C37.5482 14.3207 38.3614 15.1338 38.3614 16.139C38.3614 17.1416 37.5482 17.9574 36.543 17.9574H27.4544C26.4492 17.9574 25.636 17.1442 25.636 16.139C25.636 15.1338 26.4492 14.3207 27.4544 14.3207Z" fill="#F1F3F4"/>
<path d="M12 10.5V27.9593H51.9974V10.5H12ZM27.4544 14.3207H36.543C37.5482 14.3207 38.3614 15.1338 38.3614 16.139C38.3614 17.1416 37.5482 17.9574 36.543 17.9574H27.4544C26.4492 17.9574 25.636 17.1442 25.636 16.139C25.636 15.1338 26.4492 14.3207 27.4544 14.3207Z" fill="#E8EAED"/>
<path d="M31.9987 25.2333C25.607 25.2333 20.0285 28.7043 17.0418 33.8671L19.4235 41.1323L23.0992 45.2346H25.4397L31.9987 33.8697L46.9556 33.8671C43.969 28.7043 38.3904 25.2333 31.9987 25.2333Z" fill="url(#paint1_linear_1_50)"/>
<path d="M17.0418 33.8671C15.0772 37.2788 14.3153 41.3015 14.9434 45.2346H23.6029L17.0418 33.8671Z" fill="url(#paint2_linear_1_50)"/>
<path d="M31.9987 33.8697L38.5598 45.2346H49.054C49.682 41.3025 48.9202 37.2812 46.9556 33.8697H31.9987Z" fill="url(#paint3_linear_1_50)"/>
<path d="M31.9987 33.8697C27.2305 33.8697 23.3649 37.7364 23.3649 42.5061C23.3649 43.46 23.5224 44.3766 23.8079 45.2346H40.1895C40.475 44.3766 40.6325 43.46 40.6325 42.5061C40.6325 37.7364 36.7669 33.8697 31.9987 33.8697Z" fill="#F1F3F4"/>
<path d="M31.9987 35.4881C31.0774 35.4881 30.1652 35.6696 29.314 36.0223C28.4629 36.375 27.6895 36.8919 27.0381 37.5436C26.3867 38.1953 25.8699 38.9689 25.5174 39.8204C25.1648 40.6719 24.9833 41.5845 24.9833 42.5061C24.9874 43.4442 25.1795 44.372 25.5482 45.2346H38.4493C38.8179 44.372 39.01 43.4442 39.0141 42.5061C39.0141 41.5845 38.8326 40.6719 38.4801 39.8204C38.1275 38.9689 37.6108 38.1953 36.9593 37.5436C36.3079 36.8919 35.5345 36.375 34.6834 36.0223C33.8322 35.6696 32.92 35.4881 31.9987 35.4881Z" fill="#1A73E8"/>
<path opacity="0.1" d="M51.9974 27.9594H12V28.1857H51.9974V27.9594Z" fill="#BDC1C6"/>
<path opacity="0.1" d="M51.9974 27.7305H12V27.9568H51.9974V27.7305Z" fill="#BDC1C6"/>
</g>
<g filter="url(#filter1_d_1_50)">
<path d="M62.2613 24.5H60.3977L64.5852 12.8636H66.6136L70.8011 24.5H68.9375L65.6477 14.9773H65.5568L62.2613 24.5ZM62.5738 19.9432H68.6193V21.4204H62.5738V19.9432ZM78.7173 15.7727L75.5525 24.5H73.7344L70.5639 15.7727H72.3878L74.598 22.4886H74.6889L76.8934 15.7727H78.7173ZM82.6037 24.6932C82.0506 24.6932 81.5506 24.5909 81.1037 24.3864C80.6567 24.178 80.3025 23.8769 80.0412 23.4829C79.7836 23.089 79.6548 22.6061 79.6548 22.0341C79.6548 21.5417 79.7495 21.1364 79.9389 20.8182C80.1283 20.5 80.384 20.2481 80.7059 20.0625C81.0279 19.8769 81.3878 19.7367 81.7855 19.642C82.1832 19.5473 82.5885 19.4754 83.0014 19.4261C83.5241 19.3655 83.9484 19.3163 84.2741 19.2784C84.5999 19.2367 84.8366 19.1704 84.9844 19.0795C85.1321 18.9886 85.2059 18.8409 85.2059 18.6364V18.5966C85.2059 18.1004 85.0658 17.7159 84.7855 17.4432C84.509 17.1704 84.0961 17.0341 83.5469 17.0341C82.9749 17.0341 82.5241 17.161 82.1946 17.4148C81.8688 17.6648 81.6434 17.9432 81.5184 18.25L79.9219 17.8864C80.1112 17.3561 80.3878 16.928 80.7514 16.6023C81.1188 16.2727 81.5412 16.0341 82.0184 15.8864C82.4957 15.7348 82.9976 15.6591 83.5241 15.6591C83.8726 15.6591 84.2419 15.7008 84.6321 15.7841C85.026 15.8636 85.3934 16.0114 85.7344 16.2273C86.079 16.4432 86.3612 16.7519 86.5809 17.1534C86.8006 17.5511 86.9105 18.0682 86.9105 18.7045V24.5H85.2514V23.3068H85.1832C85.0734 23.5265 84.9086 23.7424 84.6889 23.9545C84.4692 24.1667 84.187 24.3428 83.8423 24.4829C83.4976 24.6231 83.0847 24.6932 82.6037 24.6932ZM82.973 23.3295C83.4427 23.3295 83.8442 23.2367 84.1775 23.0511C84.5147 22.8655 84.7703 22.6231 84.9446 22.3239C85.1226 22.0208 85.2116 21.697 85.2116 21.3523V20.2273C85.151 20.2879 85.0336 20.3447 84.8594 20.3977C84.6889 20.447 84.4938 20.4905 84.2741 20.5284C84.0544 20.5625 83.8404 20.5947 83.6321 20.625C83.4237 20.6515 83.2495 20.6742 83.1094 20.6932C82.7798 20.7348 82.4787 20.8049 82.2059 20.9034C81.937 21.0019 81.7211 21.1439 81.5582 21.3295C81.3991 21.5114 81.3196 21.7538 81.3196 22.0568C81.3196 22.4773 81.4749 22.7954 81.7855 23.0114C82.0961 23.2235 82.4919 23.3295 82.973 23.3295ZM89.1733 24.5V15.7727H90.8721V24.5H89.1733ZM90.0312 14.4261C89.7358 14.4261 89.482 14.3276 89.2699 14.1307C89.0615 13.9299 88.9574 13.6913 88.9574 13.4148C88.9574 13.1345 89.0615 12.8958 89.2699 12.6989C89.482 12.4981 89.7358 12.3977 90.0312 12.3977C90.3267 12.3977 90.5786 12.4981 90.7869 12.6989C90.999 12.8958 91.1051 13.1345 91.1051 13.4148C91.1051 13.6913 90.999 13.9299 90.7869 14.1307C90.5786 14.3276 90.3267 14.4261 90.0312 14.4261ZM94.8565 12.8636V24.5H93.1576V12.8636H94.8565ZM99.6818 24.6932C99.1288 24.6932 98.6288 24.5909 98.1818 24.3864C97.7348 24.178 97.3807 23.8769 97.1193 23.4829C96.8617 23.089 96.7329 22.6061 96.7329 22.0341C96.7329 21.5417 96.8276 21.1364 97.017 20.8182C97.2064 20.5 97.4621 20.2481 97.7841 20.0625C98.106 19.8769 98.4659 19.7367 98.8636 19.642C99.2613 19.5473 99.6666 19.4754 100.08 19.4261C100.602 19.3655 101.026 19.3163 101.352 19.2784C101.678 19.2367 101.915 19.1704 102.062 19.0795C102.21 18.9886 102.284 18.8409 102.284 18.6364V18.5966C102.284 18.1004 102.144 17.7159 101.864 17.4432C101.587 17.1704 101.174 17.0341 100.625 17.0341C100.053 17.0341 99.6022 17.161 99.2727 17.4148C98.9469 17.6648 98.7216 17.9432 98.5966 18.25L97 17.8864C97.1894 17.3561 97.4659 16.928 97.8295 16.6023C98.1969 16.2727 98.6193 16.0341 99.0966 15.8864C99.5738 15.7348 100.076 15.6591 100.602 15.6591C100.951 15.6591 101.32 15.7008 101.71 15.7841C102.104 15.8636 102.472 16.0114 102.812 16.2273C103.157 16.4432 103.439 16.7519 103.659 17.1534C103.879 17.5511 103.989 18.0682 103.989 18.7045V24.5H102.33V23.3068H102.261C102.151 23.5265 101.987 23.7424 101.767 23.9545C101.547 24.1667 101.265 24.3428 100.92 24.4829C100.576 24.6231 100.163 24.6932 99.6818 24.6932ZM100.051 23.3295C100.521 23.3295 100.922 23.2367 101.256 23.0511C101.593 22.8655 101.848 22.6231 102.023 22.3239C102.201 22.0208 102.29 21.697 102.29 21.3523V20.2273C102.229 20.2879 102.112 20.3447 101.937 20.3977C101.767 20.447 101.572 20.4905 101.352 20.5284C101.133 20.5625 100.919 20.5947 100.71 20.625C100.502 20.6515 100.328 20.6742 100.187 20.6932C99.8579 20.7348 99.5568 20.8049 99.2841 20.9034C99.0151 21.0019 98.7992 21.1439 98.6363 21.3295C98.4772 21.5114 98.3977 21.7538 98.3977 22.0568C98.3977 22.4773 98.553 22.7954 98.8636 23.0114C99.1742 23.2235 99.57 23.3295 100.051 23.3295ZM106.388 24.5V12.8636H108.087V17.1875H108.189C108.287 17.0057 108.429 16.7954 108.615 16.5568C108.801 16.3182 109.058 16.1098 109.388 15.9318C109.717 15.75 110.153 15.6591 110.695 15.6591C111.399 15.6591 112.028 15.8371 112.581 16.1932C113.134 16.5492 113.568 17.0625 113.882 17.7329C114.2 18.4034 114.359 19.2102 114.359 20.1534C114.359 21.0966 114.202 21.9053 113.888 22.5795C113.573 23.25 113.142 23.767 112.592 24.1307C112.043 24.4905 111.416 24.6704 110.712 24.6704C110.181 24.6704 109.748 24.5814 109.41 24.4034C109.077 24.2254 108.816 24.017 108.626 23.7784C108.437 23.5398 108.291 23.3276 108.189 23.142H108.047V24.5H106.388ZM108.053 20.1364C108.053 20.75 108.142 21.2879 108.32 21.75C108.498 22.2121 108.755 22.5739 109.092 22.8352C109.429 23.0928 109.842 23.2216 110.331 23.2216C110.839 23.2216 111.263 23.0871 111.604 22.8182C111.945 22.5454 112.202 22.1761 112.376 21.7102C112.554 21.2443 112.643 20.7197 112.643 20.1364C112.643 19.5606 112.556 19.0436 112.382 18.5852C112.212 18.1269 111.954 17.7651 111.609 17.5C111.268 17.2348 110.842 17.1023 110.331 17.1023C109.839 17.1023 109.422 17.2292 109.081 17.4829C108.744 17.7367 108.488 18.0909 108.314 18.5454C108.14 19 108.053 19.5303 108.053 20.1364ZM117.966 12.8636V24.5H116.267V12.8636H117.966ZM124.013 24.6761C123.153 24.6761 122.412 24.4924 121.791 24.125C121.174 23.7538 120.696 23.2329 120.359 22.5625C120.026 21.8883 119.859 21.0985 119.859 20.1932C119.859 19.2992 120.026 18.5114 120.359 17.8295C120.696 17.1477 121.166 16.6155 121.768 16.2329C122.374 15.8504 123.083 15.6591 123.893 15.6591C124.386 15.6591 124.863 15.7405 125.325 15.9034C125.787 16.0663 126.202 16.322 126.57 16.6704C126.937 17.0189 127.227 17.4716 127.439 18.0284C127.651 18.5814 127.757 19.2538 127.757 20.0454V20.6477H120.82V19.375H126.092C126.092 18.928 126.001 18.5322 125.82 18.1875C125.638 17.839 125.382 17.5644 125.053 17.3636C124.727 17.1629 124.344 17.0625 123.905 17.0625C123.428 17.0625 123.011 17.1799 122.655 17.4148C122.303 17.6458 122.03 17.9489 121.837 18.3239C121.647 18.6951 121.553 19.0985 121.553 19.5341V20.5284C121.553 21.1117 121.655 21.6079 121.859 22.017C122.068 22.4261 122.357 22.7386 122.729 22.9545C123.1 23.1667 123.534 23.2727 124.03 23.2727C124.352 23.2727 124.645 23.2273 124.91 23.1364C125.176 23.0417 125.405 22.9015 125.598 22.7159C125.791 22.5303 125.939 22.3011 126.041 22.0284L127.649 22.3182C127.52 22.7917 127.289 23.2064 126.956 23.5625C126.626 23.9148 126.212 24.1894 125.712 24.3864C125.215 24.5795 124.649 24.6761 124.013 24.6761ZM137.553 24.6761C136.734 24.6761 136.02 24.4886 135.41 24.1136C134.801 23.7386 134.327 23.214 133.99 22.5398C133.653 21.8655 133.484 21.0776 133.484 20.1761C133.484 19.2708 133.653 18.4792 133.99 17.8011C134.327 17.1231 134.801 16.5966 135.41 16.2216C136.02 15.8466 136.734 15.6591 137.553 15.6591C138.371 15.6591 139.085 15.8466 139.695 16.2216C140.304 16.5966 140.778 17.1231 141.115 17.8011C141.452 18.4792 141.621 19.2708 141.621 20.1761C141.621 21.0776 141.452 21.8655 141.115 22.5398C140.778 23.214 140.304 23.7386 139.695 24.1136C139.085 24.4886 138.371 24.6761 137.553 24.6761ZM137.558 23.25C138.089 23.25 138.528 23.1098 138.876 22.8295C139.225 22.5492 139.482 22.1761 139.649 21.7102C139.82 21.2443 139.905 20.7311 139.905 20.1704C139.905 19.6136 139.82 19.1023 139.649 18.6364C139.482 18.1667 139.225 17.7898 138.876 17.5057C138.528 17.2216 138.089 17.0795 137.558 17.0795C137.024 17.0795 136.581 17.2216 136.229 17.5057C135.88 17.7898 135.621 18.1667 135.45 18.6364C135.284 19.1023 135.2 19.6136 135.2 20.1704C135.2 20.7311 135.284 21.2443 135.45 21.7102C135.621 22.1761 135.88 22.5492 136.229 22.8295C136.581 23.1098 137.024 23.25 137.558 23.25ZM145.216 19.3182V24.5H143.517V15.7727H145.148V17.1932H145.256C145.456 16.7311 145.771 16.3598 146.199 16.0795C146.631 15.7992 147.174 15.6591 147.83 15.6591C148.424 15.6591 148.945 15.7841 149.392 16.0341C149.839 16.2803 150.186 16.6477 150.432 17.1364C150.678 17.625 150.801 18.2292 150.801 18.9489V24.5H149.102V19.1534C149.102 18.5208 148.937 18.0265 148.608 17.6704C148.278 17.3106 147.826 17.1307 147.25 17.1307C146.856 17.1307 146.506 17.2159 146.199 17.3864C145.896 17.5568 145.655 17.8068 145.477 18.1364C145.303 18.4621 145.216 18.8561 145.216 19.3182Z" fill="#E8E8E8"/>
<path d="M72.1584 35.6158H69.1399C69.0997 35.3059 69.0171 35.0261 68.8924 34.7766C68.7676 34.5271 68.6026 34.3138 68.3974 34.1367C68.1921 33.9596 67.9486 33.8248 67.6669 33.7322C67.3892 33.6356 67.0813 33.5873 66.7432 33.5873C66.1436 33.5873 65.6264 33.7342 65.1917 34.028C64.7611 34.3218 64.4291 34.7464 64.1957 35.3018C63.9662 35.8572 63.8515 36.5293 63.8515 37.3182C63.8515 38.1392 63.9683 38.8274 64.2017 39.3828C64.4391 39.9342 64.7712 40.3507 65.1978 40.6324C65.6284 40.9101 66.1375 41.049 66.7251 41.049C67.0551 41.049 67.355 41.0067 67.6246 40.9222C67.8983 40.8377 68.1378 40.715 68.343 40.554C68.5523 40.389 68.7233 40.1897 68.8562 39.9563C68.993 39.7189 69.0876 39.4512 69.1399 39.1534L72.1584 39.1715C72.106 39.7189 71.9471 40.2582 71.6814 40.7894C71.4198 41.3207 71.0596 41.8056 70.6008 42.2443C70.142 42.679 69.5826 43.0251 68.9226 43.2827C68.2666 43.5402 67.514 43.669 66.6648 43.669C65.5459 43.669 64.5438 43.4235 63.6584 42.9325C62.777 42.4375 62.0807 41.7171 61.5696 40.7713C61.0585 39.8255 60.8029 38.6745 60.8029 37.3182C60.8029 35.9578 61.0625 34.8048 61.5817 33.859C62.1008 32.9132 62.8031 32.1948 63.6885 31.7038C64.574 31.2128 65.566 30.9673 66.6648 30.9673C67.4133 30.9673 68.1056 31.072 68.7415 31.2812C69.3773 31.4865 69.9368 31.7883 70.4197 32.1868C70.9027 32.5812 71.2951 33.0662 71.5969 33.6417C71.8988 34.2172 72.0859 34.8752 72.1584 35.6158ZM76.8204 38.2116V43.5H73.8683V31.1364H76.7238V35.9297H76.8264C77.0357 35.3582 77.3778 34.9114 77.8527 34.5895C78.3316 34.2675 78.9172 34.1065 79.6094 34.1065C80.2614 34.1065 80.8289 34.2514 81.3119 34.5412C81.7948 34.8269 82.1691 35.2314 82.4347 35.7546C82.7044 36.2778 82.8372 36.8895 82.8332 37.5898V43.5H79.8811V38.1694C79.8851 37.6542 79.7563 37.2518 79.4947 36.962C79.2331 36.6722 78.8649 36.5273 78.39 36.5273C78.0801 36.5273 77.8064 36.5958 77.569 36.7326C77.3355 36.8654 77.1524 37.0566 77.0196 37.3061C76.8908 37.5556 76.8244 37.8575 76.8204 38.2116ZM84.6759 43.5V34.2273H87.5435V35.9176H87.6401C87.8091 35.3059 88.0848 34.8511 88.4671 34.5533C88.8495 34.2514 89.2942 34.1005 89.8013 34.1005C89.9381 34.1005 90.079 34.1105 90.2239 34.1307C90.3688 34.1468 90.5036 34.1729 90.6283 34.2092V36.7748C90.4875 36.7266 90.3024 36.6883 90.073 36.6601C89.8476 36.632 89.6463 36.6179 89.4693 36.6179C89.1191 36.6179 88.8032 36.6964 88.5215 36.8533C88.2438 37.0063 88.0244 37.2216 87.8634 37.4993C87.7065 37.773 87.628 38.0949 87.628 38.4652V43.5H84.6759ZM95.6782 43.6751C94.7043 43.6751 93.8672 43.4758 93.1669 43.0774C92.4706 42.6749 91.9333 42.1155 91.555 41.3991C91.1807 40.6787 90.9936 39.8436 90.9936 38.8938C90.9936 37.94 91.1807 37.1049 91.555 36.3885C91.9333 35.6681 92.4706 35.1087 93.1669 34.7102C93.8672 34.3078 94.7043 34.1065 95.6782 34.1065C96.6522 34.1065 97.4873 34.3078 98.1836 34.7102C98.8839 35.1087 99.4211 35.6681 99.7954 36.3885C100.174 37.1049 100.363 37.94 100.363 38.8938C100.363 39.8436 100.174 40.6787 99.7954 41.3991C99.4211 42.1155 98.8839 42.6749 98.1836 43.0774C97.4873 43.4758 96.6522 43.6751 95.6782 43.6751ZM95.6964 41.4474C96.0505 41.4474 96.3504 41.3388 96.5959 41.1214C96.8414 40.9041 97.0285 40.6023 97.1573 40.2159C97.2901 39.8295 97.3565 39.3828 97.3565 38.8757C97.3565 38.3605 97.2901 37.9098 97.1573 37.5234C97.0285 37.1371 96.8414 36.8352 96.5959 36.6179C96.3504 36.4006 96.0505 36.2919 95.6964 36.2919C95.3301 36.2919 95.0202 36.4006 94.7667 36.6179C94.5171 36.8352 94.326 37.1371 94.1932 37.5234C94.0644 37.9098 94 38.3605 94 38.8757C94 39.3828 94.0644 39.8295 94.1932 40.2159C94.326 40.6023 94.5171 40.9041 94.7667 41.1214C95.0202 41.3388 95.3301 41.4474 95.6964 41.4474ZM101.875 43.5V34.2273H104.682V35.9297H104.785C104.978 35.3662 105.304 34.9215 105.763 34.5955C106.222 34.2695 106.769 34.1065 107.405 34.1065C108.049 34.1065 108.6 34.2715 109.059 34.6016C109.518 34.9316 109.81 35.3743 109.934 35.9297H110.031C110.204 35.3783 110.542 34.9376 111.045 34.6076C111.548 34.2735 112.142 34.1065 112.826 34.1065C113.704 34.1065 114.416 34.3882 114.963 34.9517C115.511 35.5111 115.784 36.2798 115.784 37.2578V43.5H112.832V37.9339C112.832 37.4711 112.713 37.119 112.476 36.8775C112.239 36.632 111.931 36.5092 111.552 36.5092C111.146 36.5092 110.826 36.642 110.592 36.9077C110.363 37.1693 110.248 37.5214 110.248 37.9641V43.5H107.411V37.9038C107.411 37.4731 107.294 37.133 107.061 36.8835C106.827 36.634 106.52 36.5092 106.137 36.5092C105.88 36.5092 105.652 36.5716 105.455 36.6964C105.258 36.8171 105.103 36.9902 104.99 37.2155C104.882 37.4409 104.827 37.7065 104.827 38.0124V43.5H101.875ZM121.948 43.6751C120.978 43.6751 120.141 43.4839 119.437 43.1016C118.736 42.7152 118.197 42.1658 117.819 41.4535C117.444 40.7371 117.257 39.8859 117.257 38.8998C117.257 37.942 117.446 37.1049 117.825 36.3885C118.203 35.6681 118.736 35.1087 119.425 34.7102C120.113 34.3078 120.924 34.1065 121.857 34.1065C122.517 34.1065 123.121 34.2092 123.668 34.4144C124.216 34.6197 124.689 34.9235 125.087 35.326C125.486 35.7284 125.795 36.2255 126.017 36.8171C126.238 37.4047 126.349 38.0788 126.349 38.8395V39.576H118.29V37.8615H123.602C123.598 37.5476 123.524 37.2679 123.379 37.0224C123.234 36.7769 123.035 36.5857 122.781 36.4489C122.532 36.308 122.244 36.2376 121.918 36.2376C121.588 36.2376 121.292 36.312 121.03 36.4609C120.769 36.6058 120.561 36.805 120.409 37.0586C120.256 37.3081 120.175 37.5918 120.167 37.9098V39.6545C120.167 40.0328 120.242 40.3648 120.39 40.6506C120.539 40.9323 120.751 41.1516 121.024 41.3086C121.298 41.4655 121.624 41.544 122.002 41.544C122.264 41.544 122.501 41.5078 122.715 41.4354C122.928 41.3629 123.111 41.2563 123.264 41.1154C123.417 40.9745 123.532 40.8015 123.608 40.5962L126.319 40.6747C126.206 41.2824 125.958 41.8117 125.576 42.2624C125.198 42.7092 124.701 43.0573 124.085 43.3068C123.469 43.5523 122.757 43.6751 121.948 43.6751ZM134.473 43.5L130.875 31.1364H134.177L136.043 39.2379H136.145L138.276 31.1364H140.969L143.1 39.256H143.202L145.074 31.1364H148.37L144.778 43.5H141.898L139.671 36.0021H139.574L137.347 43.5H134.473ZM152.91 43.6751C151.94 43.6751 151.103 43.4839 150.398 43.1016C149.698 42.7152 149.159 42.1658 148.781 41.4535C148.406 40.7371 148.219 39.8859 148.219 38.8998C148.219 37.942 148.408 37.1049 148.787 36.3885C149.165 35.6681 149.698 35.1087 150.386 34.7102C151.075 34.3078 151.886 34.1065 152.819 34.1065C153.479 34.1065 154.083 34.2092 154.63 34.4144C155.178 34.6197 155.651 34.9235 156.049 35.326C156.447 35.7284 156.757 36.2255 156.979 36.8171C157.2 37.4047 157.311 38.0788 157.311 38.8395V39.576H149.251V37.8615H154.564C154.56 37.5476 154.485 37.2679 154.341 37.0224C154.196 36.7769 153.996 36.5857 153.743 36.4489C153.493 36.308 153.206 36.2376 152.88 36.2376C152.55 36.2376 152.254 36.312 151.992 36.4609C151.731 36.6058 151.523 36.805 151.37 37.0586C151.217 37.3081 151.137 37.5918 151.129 37.9098V39.6545C151.129 40.0328 151.203 40.3648 151.352 40.6506C151.501 40.9323 151.713 41.1516 151.986 41.3086C152.26 41.4655 152.586 41.544 152.964 41.544C153.226 41.544 153.463 41.5078 153.677 41.4354C153.89 41.3629 154.073 41.2563 154.226 41.1154C154.379 40.9745 154.494 40.8015 154.57 40.5962L157.281 40.6747C157.168 41.2824 156.92 41.8117 156.538 42.2624C156.16 42.7092 155.663 43.0573 155.047 43.3068C154.431 43.5523 153.719 43.6751 152.91 43.6751ZM158.818 43.5V31.1364H161.771V35.815H161.831C161.952 35.5333 162.123 35.2616 162.344 35C162.569 34.7384 162.855 34.5251 163.201 34.3601C163.551 34.191 163.97 34.1065 164.457 34.1065C165.101 34.1065 165.703 34.2756 166.262 34.6136C166.825 34.9517 167.28 35.4729 167.626 36.1772C167.972 36.8815 168.146 37.779 168.146 38.8697C168.146 39.9201 167.979 40.7995 167.644 41.5078C167.314 42.2161 166.868 42.7474 166.304 43.1016C165.745 43.4557 165.123 43.6328 164.439 43.6328C163.972 43.6328 163.568 43.5563 163.225 43.4034C162.883 43.2505 162.596 43.0492 162.362 42.7997C162.133 42.5502 161.956 42.2825 161.831 41.9968H161.74V43.5H158.818ZM161.71 38.8636C161.71 39.3627 161.777 39.7973 161.909 40.1676C162.046 40.5379 162.241 40.8256 162.495 41.0309C162.753 41.2321 163.06 41.3327 163.419 41.3327C163.781 41.3327 164.089 41.2321 164.342 41.0309C164.596 40.8256 164.787 40.5379 164.916 40.1676C165.049 39.7973 165.115 39.3627 165.115 38.8636C165.115 38.3646 165.049 37.9319 164.916 37.5657C164.787 37.1994 164.596 36.9157 164.342 36.7145C164.093 36.5132 163.785 36.4126 163.419 36.4126C163.056 36.4126 162.749 36.5112 162.495 36.7084C162.241 36.9056 162.046 37.1874 161.909 37.5536C161.777 37.9199 161.71 38.3565 161.71 38.8636ZM180.028 34.843C179.987 34.4003 179.808 34.0562 179.49 33.8107C179.177 33.5612 178.728 33.4364 178.144 33.4364C177.758 33.4364 177.436 33.4867 177.178 33.5873C176.921 33.688 176.728 33.8268 176.599 34.0039C176.47 34.177 176.404 34.3762 176.4 34.6016C176.391 34.7867 176.428 34.9497 176.508 35.0905C176.593 35.2314 176.713 35.3562 176.87 35.4648C177.031 35.5695 177.225 35.662 177.45 35.7425C177.675 35.823 177.929 35.8935 178.211 35.9538L179.273 36.1953C179.885 36.3281 180.424 36.5052 180.891 36.7266C181.362 36.9479 181.756 37.2115 182.074 37.5174C182.396 37.8233 182.64 38.1754 182.805 38.5739C182.97 38.9723 183.054 39.419 183.058 39.9141C183.054 40.6948 182.857 41.3649 182.467 41.9243C182.076 42.4838 181.515 42.9124 180.782 43.2102C180.054 43.508 179.175 43.6569 178.144 43.6569C177.11 43.6569 176.208 43.502 175.44 43.1921C174.671 42.8822 174.073 42.4113 173.647 41.7795C173.22 41.1476 173.001 40.3487 172.989 39.3828H175.85C175.874 39.7812 175.981 40.1133 176.17 40.3789C176.359 40.6445 176.619 40.8458 176.949 40.9826C177.283 41.1194 177.669 41.1878 178.108 41.1878C178.51 41.1878 178.853 41.1335 179.134 41.0248C179.42 40.9162 179.639 40.7653 179.792 40.5721C179.945 40.3789 180.024 40.1575 180.028 39.908C180.024 39.6746 179.951 39.4754 179.81 39.3104C179.67 39.1413 179.452 38.9964 179.158 38.8757C178.869 38.7509 178.498 38.6362 178.048 38.5316L176.756 38.2297C175.685 37.9842 174.842 37.5878 174.226 37.0405C173.61 36.4891 173.305 35.7445 173.309 34.8068C173.305 34.0421 173.51 33.372 173.924 32.7965C174.339 32.221 174.912 31.7722 175.645 31.4503C176.377 31.1283 177.213 30.9673 178.15 30.9673C179.108 30.9673 179.939 31.1303 180.644 31.4563C181.352 31.7783 181.901 32.2311 182.292 32.8146C182.682 33.3982 182.881 34.0743 182.889 34.843H180.028ZM189.802 34.2273V36.4006H183.952V34.2273L189.802 34.2273ZM185.177 32.0057H188.129V40.5842C188.129 40.7653 188.157 40.9122 188.214 41.0248C188.274 41.1335 188.361 41.212 188.473 41.2603C188.586 41.3046 188.721 41.3267 188.878 41.3267C188.991 41.3267 189.109 41.3166 189.234 41.2965C189.363 41.2724 189.459 41.2522 189.524 41.2361L189.971 43.3672C189.83 43.4074 189.63 43.4577 189.373 43.5181C189.119 43.5785 188.815 43.6167 188.461 43.6328C187.769 43.665 187.175 43.5845 186.68 43.3913C186.189 43.1941 185.813 42.8882 185.552 42.4737C185.294 42.0592 185.169 41.538 185.177 40.9101V32.0057ZM195.537 43.6751C194.563 43.6751 193.726 43.4758 193.025 43.0774C192.329 42.6749 191.792 42.1155 191.413 41.3991C191.039 40.6787 190.852 39.8436 190.852 38.8938C190.852 37.94 191.039 37.1049 191.413 36.3885C191.792 35.6681 192.329 35.1087 193.025 34.7102C193.726 34.3078 194.563 34.1065 195.537 34.1065C196.511 34.1065 197.346 34.3078 198.042 34.7102C198.742 35.1087 199.28 35.6681 199.654 36.3885C200.032 37.1049 200.221 37.94 200.221 38.8938C200.221 39.8436 200.032 40.6787 199.654 41.3991C199.28 42.1155 198.742 42.6749 198.042 43.0774C197.346 43.4758 196.511 43.6751 195.537 43.6751ZM195.555 41.4474C195.909 41.4474 196.209 41.3388 196.454 41.1214C196.7 40.9041 196.887 40.6023 197.016 40.2159C197.148 39.8295 197.215 39.3828 197.215 38.8757C197.215 38.3605 197.148 37.9098 197.016 37.5234C196.887 37.1371 196.7 36.8352 196.454 36.6179C196.209 36.4006 195.909 36.2919 195.555 36.2919C195.188 36.2919 194.879 36.4006 194.625 36.6179C194.376 36.8352 194.184 37.1371 194.052 37.5234C193.923 37.9098 193.858 38.3605 193.858 38.8757C193.858 39.3828 193.923 39.8295 194.052 40.2159C194.184 40.6023 194.376 40.9041 194.625 41.1214C194.879 41.3388 195.188 41.4474 195.555 41.4474ZM201.734 43.5V34.2273H204.601V35.9176H204.698C204.867 35.3059 205.142 34.8511 205.525 34.5533C205.907 34.2514 206.352 34.1005 206.859 34.1005C206.996 34.1005 207.137 34.1105 207.281 34.1307C207.426 34.1468 207.561 34.1729 207.686 34.2092V36.7748C207.545 36.7266 207.36 36.6883 207.131 36.6601C206.905 36.632 206.704 36.6179 206.527 36.6179C206.177 36.6179 205.861 36.6964 205.579 36.8533C205.301 37.0063 205.082 37.2216 204.921 37.4993C204.764 37.773 204.686 38.0949 204.686 38.4652V43.5H201.734ZM212.742 43.6751C211.772 43.6751 210.935 43.4839 210.23 43.1016C209.53 42.7152 208.991 42.1658 208.613 41.4535C208.238 40.7371 208.051 39.8859 208.051 38.8998C208.051 37.942 208.24 37.1049 208.619 36.3885C208.997 35.6681 209.53 35.1087 210.218 34.7102C210.907 34.3078 211.718 34.1065 212.651 34.1065C213.311 34.1065 213.915 34.2092 214.462 34.4144C215.01 34.6197 215.483 34.9235 215.881 35.326C216.28 35.7284 216.589 36.2255 216.811 36.8171C217.032 37.4047 217.143 38.0788 217.143 38.8395V39.576H209.083V37.8615H214.396C214.392 37.5476 214.317 37.2679 214.173 37.0224C214.028 36.7769 213.829 36.5857 213.575 36.4489C213.325 36.308 213.038 36.2376 212.712 36.2376C212.382 36.2376 212.086 36.312 211.824 36.4609C211.563 36.6058 211.355 36.805 211.202 37.0586C211.05 37.3081 210.969 37.5918 210.961 37.9098V39.6545C210.961 40.0328 211.035 40.3648 211.184 40.6506C211.333 40.9323 211.545 41.1516 211.818 41.3086C212.092 41.4655 212.418 41.544 212.796 41.544C213.058 41.544 213.295 41.5078 213.509 41.4354C213.722 41.3629 213.905 41.2563 214.058 41.1154C214.211 40.9745 214.326 40.8015 214.402 40.5962L217.113 40.6747C217 41.2824 216.752 41.8117 216.37 42.2624C215.992 42.7092 215.495 43.0573 214.879 43.3068C214.263 43.5523 213.551 43.6751 212.742 43.6751Z" fill="url(#paint4_linear_1_50)"/>
</g>
<defs>
<filter id="filter0_d_1_50" x="6.28571" y="2.28571" width="51.4286" height="51.4286" filterUnits="userSpaceOnUse" color-interpolation-filters="sRGB">
<feFlood flood-opacity="0" result="BackgroundImageFix"/>
<feColorMatrix in="SourceAlpha" type="matrix" values="0 0 0 0 0 0 0 0 0 0 0 0 0 0 0 0 0 0 127 0" result="hardAlpha"/>
<feOffset/>
<feGaussianBlur stdDeviation="2.85714"/>
<feComposite in2="hardAlpha" operator="out"/>
<feColorMatrix type="matrix" values="0 0 0 0 0 0 0 0 0 0 0 0 0 0 0 0 0 0 0.25 0"/>
<feBlend mode="normal" in2="BackgroundImageFix" result="effect1_dropShadow_1_50"/>
<feBlend mode="normal" in="SourceGraphic" in2="effect1_dropShadow_1_50" result="shape"/>
</filter>
<filter id="filter1_d_1_50" x="54.4" y="3.9" width="169.2" height="48.2" filterUnits="userSpaceOnUse" color-interpolation-filters="sRGB">
<feFlood flood-opacity="0" result="BackgroundImageFix"/>
<feColorMatrix in="SourceAlpha" type="matrix" values="0 0 0 0 0 0 0 0 0 0 0 0 0 0 0 0 0 0 127 0" result="hardAlpha"/>
<feOffset/>
<feGaussianBlur stdDeviation="2.8"/>
<feComposite in2="hardAlpha" operator="out"/>
<feColorMatrix type="matrix" values="0 0 0 0 0 0 0 0 0 0 0 0 0 0 0 0 0 0 0.25 0"/>
<feBlend mode="normal" in2="BackgroundImageFix" result="effect1_dropShadow_1_50"/>
<feBlend mode="normal" in="SourceGraphic" in2="effect1_dropShadow_1_50" result="shape"/>
</filter>
<linearGradient id="paint0_linear_1_50" x1="115" y1="0" x2="115" y2="56" gradientUnits="userSpaceOnUse">
<stop stop-color="#00171C"/>
<stop offset="0.333333" stop-color="#0A1209"/>
<stop offset="0.666667" stop-color="#100F06"/>
<stop offset="1" stop-color="#1A0000"/>
</linearGradient>
<linearGradient id="paint1_linear_1_50" x1="17.0418" y1="36.0286" x2="46.9557" y2="36.0286" gradientUnits="userSpaceOnUse">
<stop stop-color="#D93025"/>
<stop offset="1" stop-color="#EA4335"/>
</linearGradient>
<linearGradient id="paint2_linear_1_50" x1="33.8694" y1="58.6995" x2="18.9094" y2="32.7886" gradientUnits="userSpaceOnUse">
<stop stop-color="#1E8E3E"/>
<stop offset="1" stop-color="#34A853"/>
</linearGradient>
<linearGradient id="paint3_linear_1_50" x1="44.4823" y1="33.8347" x2="29.5227" y2="59.7447" gradientUnits="userSpaceOnUse">
<stop stop-color="#FBBC04"/>
<stop offset="1" stop-color="#FCC934"/>
</linearGradient>
<linearGradient id="paint4_linear_1_50" x1="60" y1="37" x2="219.5" y2="37" gradientUnits="userSpaceOnUse">
<stop stop-color="#5991EE"/>
<stop offset="0.333333" stop-color="#56AB6C"/>
<stop offset="0.666667" stop-color="#F5D26A"/>
<stop offset="1" stop-color="#EB786F"/>
</linearGradient>
</defs>
</svg>
