<svg width="200" height="56" viewBox="0 0 200 56" fill="none" xmlns="http://www.w3.org/2000/svg">
<rect width="200" height="56" rx="8" fill="url(#paint0_linear_1_50)"/>
<rect x="1.05" y="1.05" width="197.9" height="53.9" rx="6.95" stroke="white" stroke-opacity="0.15" stroke-width="2.1"/>
<g clip-path="url(#clip0_1_50)">
<path d="M48.1094 37.7656C47.573 38.0444 47.0198 38.2896 46.4531 38.5C44.6587 39.1679 42.7585 39.5067 40.8437 39.5C33.4531 39.5 27.0156 34.4219 27.0156 27.8906C27.0252 27.0161 27.2677 26.1599 27.7181 25.4101C28.1685 24.6604 28.8105 24.0442 29.5781 23.625C22.8906 23.9062 21.1719 30.875 21.1719 34.9531C21.1719 46.5156 31.8125 47.6719 34.1094 47.6719C35.3438 47.6719 37.2031 47.3125 38.3281 46.9531L38.5312 46.8906C42.8366 45.4028 46.5068 42.493 48.9375 38.6406C49.0081 38.5236 49.0385 38.3866 49.0238 38.2507C49.0091 38.1147 48.9503 37.9874 48.8563 37.8881C48.7624 37.7888 48.6384 37.723 48.5035 37.7009C48.3686 37.6788 48.2301 37.7015 48.1094 37.7656Z" fill="url(#paint1_linear_1_50)"/>
<path opacity="0.35" d="M48.1094 37.7656C47.573 38.0444 47.0198 38.2896 46.4531 38.5C44.6587 39.1679 42.7585 39.5067 40.8437 39.5C33.4531 39.5 27.0156 34.4219 27.0156 27.8906C27.0252 27.0161 27.2677 26.1599 27.7181 25.4101C28.1685 24.6604 28.8105 24.0442 29.5781 23.625C22.8906 23.9062 21.1719 30.875 21.1719 34.9531C21.1719 46.5156 31.8125 47.6719 34.1094 47.6719C35.3438 47.6719 37.2031 47.3125 38.3281 46.9531L38.5312 46.8906C42.8366 45.4028 46.5068 42.493 48.9375 38.6406C49.0081 38.5236 49.0385 38.3866 49.0238 38.2507C49.0091 38.1147 48.9503 37.9874 48.8563 37.8881C48.7624 37.7888 48.6384 37.723 48.5035 37.7009C48.3686 37.6788 48.2301 37.7015 48.1094 37.7656Z" fill="url(#paint2_radial_1_50)"/>
<path d="M28.5156 45.7031C27.1248 44.8393 25.9192 43.7081 24.9687 42.375C23.8833 40.8894 23.1362 39.1842 22.7798 37.3791C22.4233 35.5741 22.4662 33.7129 22.9055 31.9262C23.3447 30.1395 24.1696 28.4706 25.3223 27.0365C26.475 25.6025 27.9276 24.4381 29.5781 23.625C30.0781 23.3906 30.9062 22.9844 32.0156 23C32.7963 23.006 33.5649 23.1925 34.2615 23.5449C34.9582 23.8973 35.5638 24.406 36.0312 25.0312C36.6599 25.8767 37.0046 26.8996 37.0156 27.9531C37.0156 27.9219 40.8437 15.5156 24.5156 15.5156C17.6562 15.5156 12.0156 22.0156 12.0156 27.7344C11.9883 30.7552 12.6342 33.7443 13.9062 36.4844C15.9895 40.9204 19.629 44.437 24.1338 46.3669C28.6386 48.2967 33.6953 48.5053 38.3437 46.9531C36.7152 47.4675 34.9943 47.6221 33.3002 47.4063C31.606 47.1905 29.9789 46.6094 28.5312 45.7031H28.5156Z" fill="url(#paint3_linear_1_50)"/>
<path opacity="0.41" d="M28.5156 45.7031C27.1248 44.8393 25.9192 43.7081 24.9687 42.375C23.8833 40.8894 23.1362 39.1842 22.7798 37.3791C22.4233 35.5741 22.4662 33.7129 22.9055 31.9262C23.3447 30.1395 24.1696 28.4706 25.3223 27.0365C26.475 25.6025 27.9276 24.4381 29.5781 23.625C30.0781 23.3906 30.9062 22.9844 32.0156 23C32.7963 23.006 33.5649 23.1925 34.2615 23.5449C34.9582 23.8973 35.5638 24.406 36.0312 25.0312C36.6599 25.8767 37.0046 26.8996 37.0156 27.9531C37.0156 27.9219 40.8437 15.5156 24.5156 15.5156C17.6562 15.5156 12.0156 22.0156 12.0156 27.7344C11.9883 30.7552 12.6342 33.7443 13.9062 36.4844C15.9895 40.9204 19.629 44.437 24.1338 46.3669C28.6386 48.2967 33.6953 48.5053 38.3437 46.9531C36.7152 47.4675 34.9943 47.6221 33.3002 47.4063C31.606 47.1905 29.9789 46.6094 28.5312 45.7031H28.5156Z" fill="url(#paint4_radial_1_50)"/>
<path d="M35.8125 31.25C35.6719 31.4062 35.2812 31.6406 35.2812 32.125C35.2812 32.5312 35.5469 32.9375 36.0312 33.2656C38.2656 34.8281 42.5 34.6094 42.5156 34.6094C44.1813 34.6083 45.8163 34.1604 47.25 33.3125C48.6934 32.4682 49.8911 31.2613 50.7243 29.8114C51.5575 28.3616 51.9973 26.7191 52 25.0469C52.0469 21.5469 50.75 19.2187 50.2344 18.1875C46.9062 11.7187 39.7656 8 32 8C26.744 7.99948 21.6991 10.068 17.9564 13.7581C14.2136 17.4482 12.0739 22.4633 12 27.7187C12.0781 22.0156 17.75 17.4062 24.5 17.4062C25.0469 17.4062 28.1719 17.4531 31.0625 18.9687C33.0933 19.9779 34.775 21.5725 35.8906 23.5469C36.8437 25.2031 37.0156 27.3125 37.0156 28.1562C37.0156 29 36.5937 30.2344 35.7969 31.2656L35.8125 31.25Z" fill="url(#paint5_radial_1_50)"/>
<path d="M35.8125 31.25C35.6719 31.4062 35.2812 31.6406 35.2812 32.125C35.2812 32.5312 35.5469 32.9375 36.0312 33.2656C38.2656 34.8281 42.5 34.6094 42.5156 34.6094C44.1813 34.6083 45.8163 34.1604 47.25 33.3125C48.6934 32.4682 49.8911 31.2613 50.7243 29.8114C51.5575 28.3616 51.9973 26.7191 52 25.0469C52.0469 21.5469 50.75 19.2187 50.2344 18.1875C46.9062 11.7187 39.7656 8 32 8C26.744 7.99948 21.6991 10.068 17.9564 13.7581C14.2136 17.4482 12.0739 22.4633 12 27.7187C12.0781 22.0156 17.75 17.4062 24.5 17.4062C25.0469 17.4062 28.1719 17.4531 31.0625 18.9687C33.0933 19.9779 34.775 21.5725 35.8906 23.5469C36.8437 25.2031 37.0156 27.3125 37.0156 28.1562C37.0156 29 36.5937 30.2344 35.7969 31.2656L35.8125 31.25Z" fill="url(#paint6_radial_1_50)"/>
</g>
<g filter="url(#filter0_d_1_50)">
<path d="M62.2614 24.5H60.3977L64.5852 12.8636H66.6136L70.8011 24.5H68.9375L65.6477 14.9773H65.5568L62.2614 24.5ZM62.5739 19.9432H68.6193V21.4205H62.5739V19.9432ZM78.7173 15.7727L75.5526 24.5H73.7344L70.5639 15.7727H72.3878L74.598 22.4886H74.6889L76.8935 15.7727H78.7173ZM82.6037 24.6932C82.0507 24.6932 81.5507 24.5909 81.1037 24.3864C80.6567 24.178 80.3026 23.8769 80.0412 23.483C79.7836 23.089 79.6548 22.6061 79.6548 22.0341C79.6548 21.5417 79.7495 21.1364 79.9389 20.8182C80.1283 20.5 80.384 20.2481 80.706 20.0625C81.0279 19.8769 81.3878 19.7367 81.7855 19.642C82.1832 19.5474 82.5885 19.4754 83.0014 19.4261C83.5241 19.3655 83.9484 19.3163 84.2741 19.2784C84.5999 19.2367 84.8366 19.1705 84.9844 19.0795C85.1321 18.9886 85.206 18.8409 85.206 18.6364V18.5966C85.206 18.1004 85.0658 17.7159 84.7855 17.4432C84.509 17.1705 84.0961 17.0341 83.5469 17.0341C82.9749 17.0341 82.5241 17.161 82.1946 17.4148C81.8688 17.6648 81.6435 17.9432 81.5185 18.25L79.9219 17.8864C80.1113 17.3561 80.3878 16.928 80.7514 16.6023C81.1188 16.2727 81.5412 16.0341 82.0185 15.8864C82.4957 15.7349 82.9976 15.6591 83.5241 15.6591C83.8726 15.6591 84.2419 15.7008 84.6321 15.7841C85.026 15.8636 85.3935 16.0114 85.7344 16.2273C86.0791 16.4432 86.3613 16.7519 86.581 17.1534C86.8007 17.5511 86.9105 18.0682 86.9105 18.7045V24.5H85.2514V23.3068H85.1832C85.0734 23.5265 84.9086 23.7424 84.6889 23.9545C84.4692 24.1667 84.187 24.3428 83.8423 24.483C83.4976 24.6231 83.0847 24.6932 82.6037 24.6932ZM82.973 23.3295C83.4427 23.3295 83.8442 23.2367 84.1775 23.0511C84.5147 22.8655 84.7704 22.6231 84.9446 22.3239C85.1226 22.0208 85.2116 21.697 85.2116 21.3523V20.2273C85.151 20.2879 85.0336 20.3447 84.8594 20.3977C84.6889 20.447 84.4938 20.4905 84.2741 20.5284C84.0544 20.5625 83.8404 20.5947 83.6321 20.625C83.4238 20.6515 83.2495 20.6742 83.1094 20.6932C82.7798 20.7348 82.4787 20.8049 82.206 20.9034C81.937 21.0019 81.7211 21.1439 81.5582 21.3295C81.3991 21.5114 81.3196 21.7538 81.3196 22.0568C81.3196 22.4773 81.4749 22.7955 81.7855 23.0114C82.0961 23.2235 82.4919 23.3295 82.973 23.3295ZM89.1733 24.5V15.7727H90.8722V24.5H89.1733ZM90.0312 14.4261C89.7358 14.4261 89.482 14.3277 89.2699 14.1307C89.0615 13.9299 88.9574 13.6913 88.9574 13.4148C88.9574 13.1345 89.0615 12.8958 89.2699 12.6989C89.482 12.4981 89.7358 12.3977 90.0312 12.3977C90.3267 12.3977 90.5786 12.4981 90.7869 12.6989C90.999 12.8958 91.1051 13.1345 91.1051 13.4148C91.1051 13.6913 90.999 13.9299 90.7869 14.1307C90.5786 14.3277 90.3267 14.4261 90.0312 14.4261ZM94.8565 12.8636V24.5H93.1577V12.8636H94.8565ZM99.6818 24.6932C99.1288 24.6932 98.6288 24.5909 98.1818 24.3864C97.7348 24.178 97.3807 23.8769 97.1193 23.483C96.8617 23.089 96.7329 22.6061 96.7329 22.0341C96.7329 21.5417 96.8276 21.1364 97.017 20.8182C97.2064 20.5 97.4621 20.2481 97.7841 20.0625C98.106 19.8769 98.4659 19.7367 98.8636 19.642C99.2614 19.5474 99.6667 19.4754 100.08 19.4261C100.602 19.3655 101.027 19.3163 101.352 19.2784C101.678 19.2367 101.915 19.1705 102.062 19.0795C102.21 18.9886 102.284 18.8409 102.284 18.6364V18.5966C102.284 18.1004 102.144 17.7159 101.864 17.4432C101.587 17.1705 101.174 17.0341 100.625 17.0341C100.053 17.0341 99.6023 17.161 99.2727 17.4148C98.947 17.6648 98.7216 17.9432 98.5966 18.25L97 17.8864C97.1894 17.3561 97.4659 16.928 97.8295 16.6023C98.197 16.2727 98.6193 16.0341 99.0966 15.8864C99.5739 15.7349 100.076 15.6591 100.602 15.6591C100.951 15.6591 101.32 15.7008 101.71 15.7841C102.104 15.8636 102.472 16.0114 102.812 16.2273C103.157 16.4432 103.439 16.7519 103.659 17.1534C103.879 17.5511 103.989 18.0682 103.989 18.7045V24.5H102.33V23.3068H102.261C102.152 23.5265 101.987 23.7424 101.767 23.9545C101.547 24.1667 101.265 24.3428 100.92 24.483C100.576 24.6231 100.163 24.6932 99.6818 24.6932ZM100.051 23.3295C100.521 23.3295 100.922 23.2367 101.256 23.0511C101.593 22.8655 101.848 22.6231 102.023 22.3239C102.201 22.0208 102.29 21.697 102.29 21.3523V20.2273C102.229 20.2879 102.112 20.3447 101.937 20.3977C101.767 20.447 101.572 20.4905 101.352 20.5284C101.133 20.5625 100.919 20.5947 100.71 20.625C100.502 20.6515 100.328 20.6742 100.187 20.6932C99.8579 20.7348 99.5568 20.8049 99.2841 20.9034C99.0151 21.0019 98.7992 21.1439 98.6364 21.3295C98.4773 21.5114 98.3977 21.7538 98.3977 22.0568C98.3977 22.4773 98.553 22.7955 98.8636 23.0114C99.1742 23.2235 99.5701 23.3295 100.051 23.3295ZM106.388 24.5V12.8636H108.087V17.1875H108.189C108.287 17.0057 108.429 16.7955 108.615 16.5568C108.801 16.3182 109.058 16.1099 109.388 15.9318C109.717 15.75 110.153 15.6591 110.695 15.6591C111.399 15.6591 112.028 15.8371 112.581 16.1932C113.134 16.5492 113.568 17.0625 113.882 17.733C114.2 18.4034 114.359 19.2102 114.359 20.1534C114.359 21.0966 114.202 21.9053 113.888 22.5795C113.573 23.25 113.142 23.767 112.592 24.1307C112.043 24.4905 111.416 24.6705 110.712 24.6705C110.181 24.6705 109.748 24.5814 109.41 24.4034C109.077 24.2254 108.816 24.017 108.626 23.7784C108.437 23.5398 108.291 23.3277 108.189 23.142H108.047V24.5H106.388ZM108.053 20.1364C108.053 20.75 108.142 21.2879 108.32 21.75C108.498 22.2121 108.755 22.5739 109.092 22.8352C109.429 23.0928 109.842 23.2216 110.331 23.2216C110.839 23.2216 111.263 23.0871 111.604 22.8182C111.945 22.5455 112.202 22.1761 112.376 21.7102C112.554 21.2443 112.643 20.7197 112.643 20.1364C112.643 19.5606 112.556 19.0436 112.382 18.5852C112.212 18.1269 111.954 17.7652 111.609 17.5C111.268 17.2349 110.842 17.1023 110.331 17.1023C109.839 17.1023 109.422 17.2292 109.081 17.483C108.744 17.7367 108.488 18.0909 108.314 18.5455C108.14 19 108.053 19.5303 108.053 20.1364ZM117.966 12.8636V24.5H116.267V12.8636H117.966ZM124.013 24.6761C123.153 24.6761 122.412 24.4924 121.791 24.125C121.174 23.7538 120.696 23.233 120.359 22.5625C120.026 21.8883 119.859 21.0985 119.859 20.1932C119.859 19.2992 120.026 18.5114 120.359 17.8295C120.696 17.1477 121.166 16.6155 121.768 16.233C122.375 15.8504 123.083 15.6591 123.893 15.6591C124.386 15.6591 124.863 15.7405 125.325 15.9034C125.787 16.0663 126.202 16.322 126.57 16.6705C126.937 17.0189 127.227 17.4716 127.439 18.0284C127.651 18.5814 127.757 19.2538 127.757 20.0455V20.6477H120.82V19.375H126.092C126.092 18.928 126.001 18.5322 125.82 18.1875C125.638 17.839 125.382 17.5644 125.053 17.3636C124.727 17.1629 124.344 17.0625 123.905 17.0625C123.428 17.0625 123.011 17.1799 122.655 17.4148C122.303 17.6458 122.03 17.9489 121.837 18.3239C121.647 18.6951 121.553 19.0985 121.553 19.5341V20.5284C121.553 21.1117 121.655 21.608 121.859 22.017C122.068 22.4261 122.357 22.7386 122.729 22.9545C123.1 23.1667 123.534 23.2727 124.03 23.2727C124.352 23.2727 124.645 23.2273 124.91 23.1364C125.176 23.0417 125.405 22.9015 125.598 22.7159C125.791 22.5303 125.939 22.3011 126.041 22.0284L127.649 22.3182C127.52 22.7917 127.289 23.2064 126.956 23.5625C126.626 23.9148 126.212 24.1894 125.712 24.3864C125.215 24.5795 124.649 24.6761 124.013 24.6761ZM137.553 24.6761C136.734 24.6761 136.02 24.4886 135.41 24.1136C134.801 23.7386 134.327 23.214 133.99 22.5398C133.653 21.8655 133.484 21.0777 133.484 20.1761C133.484 19.2708 133.653 18.4792 133.99 17.8011C134.327 17.1231 134.801 16.5966 135.41 16.2216C136.02 15.8466 136.734 15.6591 137.553 15.6591C138.371 15.6591 139.085 15.8466 139.695 16.2216C140.304 16.5966 140.778 17.1231 141.115 17.8011C141.452 18.4792 141.621 19.2708 141.621 20.1761C141.621 21.0777 141.452 21.8655 141.115 22.5398C140.778 23.214 140.304 23.7386 139.695 24.1136C139.085 24.4886 138.371 24.6761 137.553 24.6761ZM137.558 23.25C138.089 23.25 138.528 23.1098 138.876 22.8295C139.225 22.5492 139.482 22.1761 139.649 21.7102C139.82 21.2443 139.905 20.7311 139.905 20.1705C139.905 19.6136 139.82 19.1023 139.649 18.6364C139.482 18.1667 139.225 17.7898 138.876 17.5057C138.528 17.2216 138.089 17.0795 137.558 17.0795C137.024 17.0795 136.581 17.2216 136.229 17.5057C135.88 17.7898 135.621 18.1667 135.45 18.6364C135.284 19.1023 135.2 19.6136 135.2 20.1705C135.2 20.7311 135.284 21.2443 135.45 21.7102C135.621 22.1761 135.88 22.5492 136.229 22.8295C136.581 23.1098 137.024 23.25 137.558 23.25ZM145.216 19.3182V24.5H143.517V15.7727H145.148V17.1932H145.256C145.456 16.7311 145.771 16.3599 146.199 16.0795C146.631 15.7992 147.174 15.6591 147.83 15.6591C148.424 15.6591 148.945 15.7841 149.392 16.0341C149.839 16.2803 150.186 16.6477 150.432 17.1364C150.678 17.625 150.801 18.2292 150.801 18.9489V24.5H149.102V19.1534C149.102 18.5208 148.937 18.0265 148.608 17.6705C148.278 17.3106 147.826 17.1307 147.25 17.1307C146.856 17.1307 146.506 17.2159 146.199 17.3864C145.896 17.5568 145.655 17.8068 145.477 18.1364C145.303 18.4621 145.216 18.8561 145.216 19.3182Z" fill="#E8E8E8"/>
<path d="M60.9357 31.1364H64.6364L67.7756 38.7912H67.9205L71.0597 31.1364H74.7603V43.5H71.8505V35.9055H71.7479L68.7777 43.4215H66.9183L63.9482 35.8633H63.8455V43.5H60.9357V31.1364ZM76.6242 43.5V34.2273H79.5763V43.5H76.6242ZM78.1032 33.1467C77.6887 33.1467 77.3325 33.0098 77.0347 32.7361C76.7369 32.4584 76.588 32.1244 76.588 31.734C76.588 31.3477 76.7369 31.0176 77.0347 30.744C77.3325 30.4663 77.6887 30.3274 78.1032 30.3274C78.5218 30.3274 78.878 30.4663 79.1718 30.744C79.4696 31.0176 79.6185 31.3477 79.6185 31.734C79.6185 32.1244 79.4696 32.4584 79.1718 32.7361C78.878 33.0098 78.5218 33.1467 78.1032 33.1467ZM85.7837 43.6751C84.8057 43.6751 83.9666 43.4738 83.2663 43.0714C82.5701 42.6689 82.0348 42.1095 81.6605 41.3931C81.2862 40.6727 81.0991 39.8396 81.0991 38.8938C81.0991 37.944 81.2862 37.1109 81.6605 36.3945C82.0388 35.6741 82.5761 35.1127 83.2724 34.7102C83.9726 34.3078 84.8078 34.1065 85.7777 34.1065C86.6349 34.1065 87.3815 34.2615 88.0174 34.5714C88.6573 34.8813 89.1564 35.32 89.5146 35.8874C89.8768 36.4509 90.0679 37.1129 90.0881 37.8736H87.3292C87.2728 37.3987 87.1119 37.0264 86.8462 36.7567C86.5846 36.4871 86.2425 36.3523 85.8199 36.3523C85.4779 36.3523 85.178 36.4489 84.9204 36.642C84.6629 36.8312 84.4616 37.1129 84.3168 37.4872C84.1759 37.8575 84.1055 38.3163 84.1055 38.8636C84.1055 39.411 84.1759 39.8738 84.3168 40.2521C84.4616 40.6264 84.6629 40.9102 84.9204 41.1033C85.178 41.2925 85.4779 41.3871 85.8199 41.3871C86.0936 41.3871 86.3351 41.3287 86.5444 41.212C86.7577 41.0953 86.9328 40.9242 87.0696 40.6989C87.2064 40.4695 87.293 40.1918 87.3292 39.8658H90.0881C90.0599 40.6304 89.8687 41.2985 89.5146 41.87C89.1644 42.4415 88.6714 42.8862 88.0355 43.2042C87.4036 43.5181 86.653 43.6751 85.7837 43.6751ZM91.5988 43.5V34.2273H94.4663V35.9176H94.5629C94.732 35.3059 95.0077 34.8511 95.39 34.5533C95.7723 34.2514 96.2171 34.1005 96.7242 34.1005C96.861 34.1005 97.0019 34.1106 97.1467 34.1307C97.2916 34.1468 97.4265 34.1729 97.5512 34.2092V36.7749C97.4104 36.7266 97.2252 36.6883 96.9958 36.6602C96.7704 36.632 96.5692 36.6179 96.3921 36.6179C96.042 36.6179 95.726 36.6964 95.4443 36.8533C95.1666 37.0063 94.9473 37.2216 94.7863 37.4993C94.6293 37.773 94.5509 38.0949 94.5509 38.4652V43.5H91.5988ZM102.601 43.6751C101.627 43.6751 100.79 43.4758 100.09 43.0774C99.3935 42.6749 98.8562 42.1155 98.4779 41.3991C98.1036 40.6787 97.9164 39.8436 97.9164 38.8938C97.9164 37.94 98.1036 37.1049 98.4779 36.3885C98.8562 35.6681 99.3935 35.1087 100.09 34.7102C100.79 34.3078 101.627 34.1065 102.601 34.1065C103.575 34.1065 104.41 34.3078 105.106 34.7102C105.807 35.1087 106.344 35.6681 106.718 36.3885C107.097 37.1049 107.286 37.94 107.286 38.8938C107.286 39.8436 107.097 40.6787 106.718 41.3991C106.344 42.1155 105.807 42.6749 105.106 43.0774C104.41 43.4758 103.575 43.6751 102.601 43.6751ZM102.619 41.4474C102.973 41.4474 103.273 41.3388 103.519 41.1214C103.764 40.9041 103.951 40.6023 104.08 40.2159C104.213 39.8295 104.279 39.3828 104.279 38.8757C104.279 38.3606 104.213 37.9098 104.08 37.5234C103.951 37.1371 103.764 36.8352 103.519 36.6179C103.273 36.4006 102.973 36.2919 102.619 36.2919C102.253 36.2919 101.943 36.4006 101.69 36.6179C101.44 36.8352 101.249 37.1371 101.116 37.5234C100.987 37.9098 100.923 38.3606 100.923 38.8757C100.923 39.3828 100.987 39.8295 101.116 40.2159C101.249 40.6023 101.44 40.9041 101.69 41.1214C101.943 41.3388 102.253 41.4474 102.619 41.4474ZM116.894 37.0586L114.183 37.131C114.155 36.9379 114.078 36.7668 113.954 36.6179C113.829 36.465 113.666 36.3462 113.465 36.2617C113.267 36.1732 113.038 36.1289 112.776 36.1289C112.434 36.1289 112.142 36.1973 111.901 36.3342C111.664 36.471 111.547 36.6561 111.551 36.8896C111.547 37.0707 111.619 37.2276 111.768 37.3604C111.921 37.4932 112.193 37.5999 112.583 37.6804L114.37 38.0185C115.296 38.1955 115.984 38.4893 116.435 38.8999C116.89 39.3104 117.119 39.8537 117.123 40.5298C117.119 41.1657 116.93 41.7191 116.555 42.19C116.185 42.6609 115.678 43.0271 115.034 43.2887C114.39 43.5463 113.654 43.6751 112.825 43.6751C111.501 43.6751 110.456 43.4034 109.691 42.8601C108.931 42.3127 108.496 41.5803 108.388 40.6626L111.303 40.5902C111.368 40.9283 111.535 41.1858 111.804 41.3629C112.074 41.54 112.418 41.6285 112.837 41.6285C113.215 41.6285 113.523 41.5581 113.76 41.4173C113.998 41.2764 114.119 41.0892 114.123 40.8558C114.119 40.6465 114.026 40.4795 113.845 40.3548C113.664 40.226 113.38 40.1254 112.994 40.0529L111.376 39.745C110.446 39.576 109.754 39.2641 109.299 38.8093C108.844 38.3505 108.619 37.7669 108.623 37.0586C108.619 36.4388 108.784 35.9096 109.118 35.4709C109.452 35.0282 109.927 34.6901 110.543 34.4567C111.158 34.2232 111.885 34.1065 112.722 34.1065C113.978 34.1065 114.968 34.3701 115.692 34.8974C116.417 35.4206 116.817 36.141 116.894 37.0586ZM122.905 43.6751C121.931 43.6751 121.094 43.4758 120.393 43.0774C119.697 42.6749 119.16 42.1155 118.782 41.3991C118.407 40.6787 118.22 39.8436 118.22 38.8938C118.22 37.94 118.407 37.1049 118.782 36.3885C119.16 35.6681 119.697 35.1087 120.393 34.7102C121.094 34.3078 121.931 34.1065 122.905 34.1065C123.879 34.1065 124.714 34.3078 125.41 34.7102C126.11 35.1087 126.648 35.6681 127.022 36.3885C127.4 37.1049 127.589 37.94 127.589 38.8938C127.589 39.8436 127.4 40.6787 127.022 41.3991C126.648 42.1155 126.11 42.6749 125.41 43.0774C124.714 43.4758 123.879 43.6751 122.905 43.6751ZM122.923 41.4474C123.277 41.4474 123.577 41.3388 123.822 41.1214C124.068 40.9041 124.255 40.6023 124.384 40.2159C124.517 39.8295 124.583 39.3828 124.583 38.8757C124.583 38.3606 124.517 37.9098 124.384 37.5234C124.255 37.1371 124.068 36.8352 123.822 36.6179C123.577 36.4006 123.277 36.2919 122.923 36.2919C122.557 36.2919 122.247 36.4006 121.993 36.6179C121.744 36.8352 121.553 37.1371 121.42 37.5234C121.291 37.9098 121.227 38.3606 121.227 38.8757C121.227 39.3828 121.291 39.8295 121.42 40.2159C121.553 40.6023 121.744 40.9041 121.993 41.1214C122.247 41.3388 122.557 41.4474 122.923 41.4474ZM134.372 34.2273V36.4006H128.407V34.2273H134.372ZM129.651 43.5V33.7564C129.651 33.04 129.786 32.4464 130.056 31.9755C130.325 31.5006 130.699 31.1464 131.178 30.913C131.657 30.6755 132.211 30.5568 132.839 30.5568C133.249 30.5568 133.635 30.589 133.998 30.6534C134.364 30.7138 134.636 30.7681 134.813 30.8164L134.342 32.9776C134.233 32.9414 134.1 32.9112 133.943 32.8871C133.79 32.8629 133.646 32.8509 133.509 32.8509C133.163 32.8509 132.925 32.9273 132.796 33.0803C132.668 33.2332 132.603 33.4425 132.603 33.7081V43.5H129.651ZM141.026 34.2273V36.4006H135.176V34.2273H141.026ZM136.402 32.0057H139.354V40.5842C139.354 40.7653 139.382 40.9122 139.438 41.0249C139.499 41.1335 139.585 41.212 139.698 41.2603C139.811 41.3046 139.946 41.3267 140.103 41.3267C140.215 41.3267 140.334 41.3166 140.459 41.2965C140.587 41.2724 140.684 41.2522 140.748 41.2361L141.195 43.3672C141.054 43.4074 140.855 43.4577 140.598 43.5181C140.344 43.5785 140.04 43.6167 139.686 43.6328C138.994 43.665 138.4 43.5845 137.905 43.3913C137.414 43.1941 137.038 42.8883 136.776 42.4737C136.519 42.0592 136.394 41.538 136.402 40.9102V32.0057ZM146.185 43.5V31.1364H154.805V33.5632H149.173V36.0987H154.365V38.5316H149.173V41.0731H154.805V43.5H146.185ZM160.064 43.6328C159.379 43.6328 158.758 43.4557 158.198 43.1016C157.639 42.7474 157.192 42.2161 156.858 41.5078C156.524 40.7995 156.357 39.9201 156.357 38.8697C156.357 37.779 156.53 36.8815 156.876 36.1772C157.222 35.4729 157.675 34.9517 158.234 34.6136C158.798 34.2756 159.404 34.1065 160.052 34.1065C160.539 34.1065 160.955 34.191 161.301 34.3601C161.647 34.5251 161.933 34.7384 162.158 35C162.384 35.2616 162.555 35.5333 162.672 35.815H162.732V31.1364H165.684V43.5H162.762V41.9968H162.672C162.547 42.2825 162.37 42.5502 162.14 42.7997C161.911 43.0492 161.623 43.2505 161.277 43.4034C160.935 43.5563 160.53 43.6328 160.064 43.6328ZM161.09 41.3327C161.448 41.3327 161.754 41.2321 162.008 41.0309C162.261 40.8256 162.456 40.5379 162.593 40.1676C162.73 39.7973 162.798 39.3627 162.798 38.8636C162.798 38.3565 162.73 37.9199 162.593 37.5536C162.46 37.1874 162.265 36.9057 162.008 36.7084C161.754 36.5112 161.448 36.4126 161.09 36.4126C160.724 36.4126 160.414 36.5133 160.16 36.7145C159.907 36.9157 159.713 37.1995 159.581 37.5657C159.452 37.9319 159.387 38.3646 159.387 38.8636C159.387 39.3627 159.454 39.7973 159.587 40.1676C159.72 40.5379 159.911 40.8256 160.16 41.0309C160.414 41.2321 160.724 41.3327 161.09 41.3327ZM171.873 47.1704C170.992 47.1704 170.237 47.0477 169.61 46.8022C168.982 46.5567 168.489 46.2206 168.13 45.794C167.772 45.3674 167.557 44.8845 167.485 44.3452L170.28 44.1882C170.332 44.3774 170.429 44.5424 170.569 44.6832C170.714 44.8241 170.901 44.9328 171.131 45.0092C171.364 45.0857 171.638 45.1239 171.952 45.1239C172.447 45.1239 172.855 45.0032 173.177 44.7617C173.503 44.5243 173.666 44.1077 173.666 43.5121V41.8821H173.564C173.447 42.1678 173.27 42.4234 173.032 42.6488C172.795 42.8742 172.499 43.0513 172.145 43.18C171.795 43.3088 171.392 43.3732 170.938 43.3732C170.262 43.3732 169.642 43.2163 169.078 42.9023C168.519 42.5844 168.07 42.0934 167.732 41.4293C167.398 40.7612 167.231 39.902 167.231 38.8516C167.231 37.7689 167.404 36.8775 167.75 36.1772C168.096 35.4729 168.549 34.9517 169.108 34.6136C169.672 34.2756 170.278 34.1065 170.926 34.1065C171.413 34.1065 171.829 34.191 172.175 34.3601C172.525 34.5251 172.813 34.7384 173.038 35C173.264 35.2616 173.435 35.5333 173.552 35.815H173.636V34.2273H176.576V43.5362C176.576 44.321 176.379 44.9831 175.985 45.5224C175.59 46.0617 175.039 46.4702 174.33 46.7479C173.622 47.0296 172.803 47.1704 171.873 47.1704ZM171.964 41.2241C172.322 41.2241 172.628 41.1295 172.882 40.9403C173.135 40.7512 173.33 40.4795 173.467 40.1254C173.604 39.7712 173.672 39.3466 173.672 38.8516C173.672 38.3485 173.604 37.9158 173.467 37.5536C173.334 37.1874 173.139 36.9057 172.882 36.7084C172.628 36.5112 172.322 36.4126 171.964 36.4126C171.598 36.4126 171.288 36.5133 171.034 36.7145C170.781 36.9157 170.588 37.1995 170.455 37.5657C170.326 37.9279 170.262 38.3565 170.262 38.8516C170.262 39.3466 170.328 39.7712 170.461 40.1254C170.594 40.4795 170.785 40.7512 171.034 40.9403C171.288 41.1295 171.598 41.2241 171.964 41.2241ZM182.793 43.6751C181.823 43.6751 180.986 43.4839 180.281 43.1016C179.581 42.7152 179.042 42.1658 178.663 41.4535C178.289 40.7371 178.102 39.8859 178.102 38.8999C178.102 37.942 178.291 37.1049 178.669 36.3885C179.048 35.6681 179.581 35.1087 180.269 34.7102C180.957 34.3078 181.768 34.1065 182.702 34.1065C183.362 34.1065 183.966 34.2092 184.513 34.4144C185.061 34.6197 185.533 34.9235 185.932 35.326C186.33 35.7285 186.64 36.2255 186.862 36.8171C187.083 37.4047 187.194 38.0788 187.194 38.8395V39.576H179.134V37.8615H184.447C184.443 37.5476 184.368 37.2679 184.223 37.0224C184.079 36.7769 183.879 36.5857 183.626 36.4489C183.376 36.308 183.088 36.2376 182.762 36.2376C182.432 36.2376 182.137 36.312 181.875 36.4609C181.613 36.6058 181.406 36.805 181.253 37.0586C181.1 37.3081 181.02 37.5919 181.012 37.9098V39.6545C181.012 40.0328 181.086 40.3648 181.235 40.6506C181.384 40.9323 181.595 41.1516 181.869 41.3086C182.143 41.4656 182.469 41.544 182.847 41.544C183.109 41.544 183.346 41.5078 183.559 41.4354C183.773 41.3629 183.956 41.2563 184.109 41.1154C184.262 40.9745 184.376 40.8015 184.453 40.5962L187.163 40.6747C187.051 41.2824 186.803 41.8117 186.421 42.2624C186.043 42.7092 185.546 43.0573 184.93 43.3068C184.314 43.5523 183.602 43.6751 182.793 43.6751Z" fill="url(#paint7_linear_1_50)"/>
</g>
<defs>
<filter id="filter0_d_1_50" x="54.4" y="3.9" width="139.2" height="48.8704" filterUnits="userSpaceOnUse" color-interpolation-filters="sRGB">
<feFlood flood-opacity="0" result="BackgroundImageFix"/>
<feColorMatrix in="SourceAlpha" type="matrix" values="0 0 0 0 0 0 0 0 0 0 0 0 0 0 0 0 0 0 127 0" result="hardAlpha"/>
<feOffset/>
<feGaussianBlur stdDeviation="2.8"/>
<feComposite in2="hardAlpha" operator="out"/>
<feColorMatrix type="matrix" values="0 0 0 0 0 0 0 0 0 0 0 0 0 0 0 0 0 0 0.25 0"/>
<feBlend mode="normal" in2="BackgroundImageFix" result="effect1_dropShadow_1_50"/>
<feBlend mode="normal" in="SourceGraphic" in2="effect1_dropShadow_1_50" result="shape"/>
</filter>
<linearGradient id="paint0_linear_1_50" x1="100" y1="0" x2="100" y2="56" gradientUnits="userSpaceOnUse">
<stop stop-color="#08200E"/>
<stop offset="1" stop-color="#0C1D30"/>
</linearGradient>
<linearGradient id="paint1_linear_1_50" x1="21.1719" y1="35.6562" x2="49.0469" y2="35.6562" gradientUnits="userSpaceOnUse">
<stop stop-color="#0C59A4"/>
<stop offset="1" stop-color="#114A8B"/>
</linearGradient>
<radialGradient id="paint2_radial_1_50" cx="0" cy="0" r="1" gradientUnits="userSpaceOnUse" gradientTransform="translate(36.5625 35.8664) scale(14.9063 14.1609)">
<stop offset="0.7" stop-opacity="0"/>
<stop offset="0.9" stop-opacity="0.5"/>
<stop offset="1"/>
</radialGradient>
<linearGradient id="paint3_linear_1_50" x1="35.8594" y1="23.5625" x2="18.4687" y2="42.5156" gradientUnits="userSpaceOnUse">
<stop stop-color="#1B9DE2"/>
<stop offset="0.2" stop-color="#1595DF"/>
<stop offset="0.7" stop-color="#0680D7"/>
<stop offset="1" stop-color="#0078D4"/>
</linearGradient>
<radialGradient id="paint4_radial_1_50" cx="0" cy="0" r="1" gradientUnits="userSpaceOnUse" gradientTransform="translate(23.0242 39.0839) rotate(-81.3844) scale(22.4041 18.1002)">
<stop offset="0.8" stop-opacity="0"/>
<stop offset="0.9" stop-opacity="0.5"/>
<stop offset="1"/>
</radialGradient>
<radialGradient id="paint5_radial_1_50" cx="0" cy="0" r="1" gradientUnits="userSpaceOnUse" gradientTransform="translate(16.0453 15.3931) rotate(92.2906) scale(31.6503 67.4085)">
<stop stop-color="#35C1F1"/>
<stop offset="0.1" stop-color="#34C1ED"/>
<stop offset="0.2" stop-color="#2FC2DF"/>
<stop offset="0.3" stop-color="#2BC3D2"/>
<stop offset="0.7" stop-color="#36C752"/>
</radialGradient>
<radialGradient id="paint6_radial_1_50" cx="0" cy="0" r="1" gradientUnits="userSpaceOnUse" gradientTransform="translate(49.5094 20.0781) rotate(73.7398) scale(15.2031 12.3632)">
<stop stop-color="#66EB6E"/>
<stop offset="1" stop-color="#66EB6E" stop-opacity="0"/>
</radialGradient>
<linearGradient id="paint7_linear_1_50" x1="60" y1="37.5" x2="188" y2="37.5" gradientUnits="userSpaceOnUse">
<stop offset="0.25" stop-color="#057FD7"/>
<stop offset="0.75" stop-color="#35C1EF"/>
<stop offset="1" stop-color="#40CF62"/>
</linearGradient>
<clipPath id="clip0_1_50">
<rect width="40" height="40" fill="white" transform="translate(12 8)"/>
</clipPath>
</defs>
</svg>
